<svg width="212" height="198" viewBox="0 0 212 198" fill="none" xmlns="http://www.w3.org/2000/svg">
<path d="M2.28516 184.575V196.754H5.09476C4.94744 195.473 4.94744 194.178 5.09476 192.897C5.36164 191.465 8.41387 187.768 8.32167 184.594L2.28516 184.575Z" fill="#EBEBEB"/>
<path d="M24.7622 184.575V196.754H27.5718C27.4245 195.473 27.4245 194.178 27.5718 192.897C27.8387 191.465 30.8909 187.768 30.7987 184.594L24.7622 184.575Z" fill="#E0E0E0"/>
<path d="M46.7634 184.575V196.754H43.9489C44.0936 195.473 44.0936 194.179 43.9489 192.897C43.6772 191.465 40.6298 187.768 40.7172 184.594L46.7634 184.575Z" fill="#EBEBEB"/>
<path d="M66.2124 184.575V196.754H63.4028C63.5475 195.473 63.5475 194.179 63.4028 192.897C63.1359 191.465 60.0837 187.768 60.1759 184.594L66.2124 184.575Z" fill="#E0E0E0"/>
<path d="M67.6875 124.515H0.373535V184.963H67.6875V124.515Z" fill="#F5F5F5"/>
<path d="M49.5537 124.515L50.0535 184.963H67.6875V124.515H49.5537Z" fill="#E0E0E0"/>
<path d="M46.6178 128.965H3.40137V144.347H46.6178V128.965Z" fill="#EBEBEB"/>
<path d="M46.6178 147.409H3.40137V162.792H46.6178V147.409Z" fill="#EBEBEB"/>
<path d="M46.6178 165.859H3.40137V181.241H46.6178V165.859Z" fill="#EBEBEB"/>
<path d="M19.9679 107.148L18.1045 124.447H41.9885L43.9683 107.148H19.9679Z" fill="#E0E0E0"/>
<path d="M20.953 108.39L19.1382 123.525H40.693L42.4351 108.39H20.953Z" fill="white"/>
<path d="M24.578 110.938L23.4619 120.983H37.0635L37.7622 110.938H24.578Z" fill="#EBEBEB"/>
<path d="M43.1146 114.597L48.0495 124.515L41.9888 124.447L43.1146 114.597Z" fill="#EBEBEB"/>
<path d="M26.5916 137.457C26.5925 137.77 26.5006 138.076 26.3273 138.337C26.1541 138.598 25.9074 138.801 25.6184 138.922C25.3294 139.042 25.0112 139.074 24.704 139.014C24.3968 138.953 24.1145 138.803 23.8928 138.582C23.6711 138.361 23.5199 138.079 23.4585 137.772C23.3971 137.465 23.4281 137.147 23.5477 136.858C23.6673 136.568 23.87 136.321 24.1303 136.147C24.3905 135.973 24.6966 135.88 25.0096 135.88C25.4284 135.88 25.83 136.046 26.1265 136.341C26.423 136.637 26.5903 137.038 26.5916 137.457Z" fill="#E0E0E0"/>
<path d="M26.5916 156.09C26.5916 156.403 26.4988 156.709 26.325 156.969C26.1511 157.229 25.9041 157.432 25.615 157.552C25.326 157.671 25.0079 157.703 24.701 157.642C24.3942 157.581 24.1123 157.43 23.8911 157.209C23.6698 156.988 23.5192 156.706 23.4581 156.399C23.3971 156.092 23.4284 155.774 23.5481 155.485C23.6679 155.196 23.8706 154.949 24.1308 154.775C24.3909 154.601 24.6968 154.508 25.0097 154.508C25.2176 154.508 25.4236 154.548 25.6158 154.627C25.808 154.707 25.9826 154.823 26.1297 154.97C26.2767 155.117 26.3932 155.292 26.4725 155.484C26.5517 155.676 26.5922 155.882 26.5916 156.09Z" fill="#E0E0E0"/>
<path d="M26.5916 174.719C26.5916 175.032 26.4988 175.338 26.325 175.598C26.1511 175.858 25.9041 176.061 25.615 176.181C25.326 176.3 25.0079 176.332 24.701 176.271C24.3942 176.21 24.1123 176.059 23.8911 175.838C23.6698 175.616 23.5192 175.335 23.4581 175.028C23.3971 174.721 23.4284 174.403 23.5481 174.114C23.6679 173.825 23.8706 173.578 24.1308 173.404C24.3909 173.23 24.6968 173.137 25.0097 173.137C25.4292 173.137 25.8316 173.304 26.1282 173.601C26.4249 173.897 26.5916 174.3 26.5916 174.719Z" fill="#E0E0E0"/>
<path d="M46.5502 26.2521L8.38525 25.8833L9.44795 75.6215L47.6129 75.7622L46.5502 26.2521Z" fill="#E0E0E0"/>
<path d="M44.0897 28.4697L10.6802 27.606L11.6458 72.7148L45.0456 73.1273L44.0897 28.4697Z" fill="#FAFAFA"/>
<path d="M38.3879 35.2096L16.2168 34.8408L16.8961 66.3724L39.043 65.8969L38.3879 35.2096Z" fill="#EBEBEB"/>
<path d="M16.8961 66.3724L38.6985 49.6992L16.2168 34.8408L16.8961 66.3724Z" fill="#F5F5F5"/>
<path d="M210.783 0.325119L177.296 0L178.232 43.6386L211.71 43.7599L210.783 0.325119Z" fill="#E0E0E0"/>
<path d="M208.619 2.276L179.31 1.51416L180.159 41.0863L209.458 41.4454L208.619 2.276Z" fill="#FAFAFA"/>
<path d="M203.616 8.18596L184.172 7.86084L184.764 35.5201L204.193 35.1077L203.616 8.18596Z" fill="#EBEBEB"/>
<path d="M184.764 35.5201L203.892 20.8947L184.172 7.86084L184.764 35.5201Z" fill="#F5F5F5"/>
<path d="M173.273 164.388C173.132 164.815 178.125 183.798 178.125 183.798L181.551 183.085L176.84 164.388H173.273Z" fill="#EBEBEB"/>
<path d="M199.821 161.676L192.969 183.798H196.968L203.533 163.248L199.821 161.676Z" fill="#F5F5F5"/>
<path d="M206.1 158.25L198.249 183.798H202.247L209.813 159.822L206.1 158.25Z" fill="#EBEBEB"/>
<path d="M175.699 182.231L179.698 196.075H199.821L203.533 182.231H175.699Z" fill="#E0E0E0"/>
<path d="M186.079 182.231C186.062 182.183 186.047 182.135 186.035 182.085L185.929 181.663C185.836 181.275 185.71 180.727 185.545 180.028L184.162 173.982L179.645 153.819L179.766 153.921H176.243L176.364 153.766C178.155 161.7 179.761 168.809 180.911 173.943C181.474 176.5 181.93 178.562 182.25 180.008C182.396 180.712 182.517 181.26 182.6 181.653C182.634 181.833 182.663 181.974 182.682 182.08C182.69 182.13 182.69 182.181 182.682 182.231C182.665 182.183 182.65 182.135 182.639 182.085C182.61 181.978 182.576 181.838 182.532 181.663C182.435 181.275 182.304 180.727 182.134 180.028C181.799 178.572 181.319 176.529 180.722 173.982C179.543 168.848 177.917 161.748 176.102 153.819L176.063 153.669H179.848L179.873 153.766C181.615 161.7 183.182 168.809 184.313 173.943C184.861 176.5 185.307 178.562 185.618 180.008C185.764 180.712 185.875 181.26 185.958 181.653L186.04 182.08C186.061 182.128 186.074 182.179 186.079 182.231Z" fill="#E0E0E0"/>
<path d="M205.746 196.653C205.746 196.72 159.677 196.779 102.873 196.779C46.0697 196.779 0 196.72 0 196.653C0 196.585 46.06 196.526 102.897 196.526C159.735 196.526 205.746 196.585 205.746 196.653Z" fill="#263238"/>
<path d="M192.499 64.2083C192.388 64.1615 192.273 64.1257 192.155 64.1016C191.808 64.0235 191.448 64.0235 191.102 64.1016C190.54 64.2461 190.017 64.5147 189.573 64.8877C188.969 65.4109 188.446 66.0208 188.02 66.6977C187.026 68.2214 186.244 70.3273 185.332 72.7827C184.276 75.5865 183.363 78.4418 182.595 81.3377C182.452 81.6048 182.262 81.8433 182.032 82.0413C181.914 82.149 181.774 82.2299 181.621 82.2785C181.469 82.3271 181.308 82.3421 181.149 82.3227C180.838 82.2434 180.556 82.0747 180.339 81.8375C180.111 81.6288 179.897 81.4056 179.684 81.1775C179.262 80.7143 178.813 80.2767 178.34 79.8674C177.881 79.4267 177.272 79.1784 176.636 79.1735C176.318 79.2277 176.015 79.3481 175.747 79.527C175.479 79.7059 175.251 79.9393 175.079 80.2119C174.734 80.8014 174.549 81.4702 174.54 82.1529C174.458 83.5407 174.86 84.9431 175.103 86.394C175.346 87.8449 175.651 89.3346 175.933 90.8534C176.078 91.6153 176.219 92.382 176.365 93.1584L176.583 94.3327C176.65 94.5378 176.672 94.7548 176.647 94.9691C176.623 95.1833 176.553 95.3899 176.442 95.5749C176.369 95.6723 176.269 95.7453 176.153 95.7842C176.038 95.8232 175.914 95.8264 175.797 95.7933C175.587 95.7323 175.391 95.6318 175.219 95.4973L174.249 94.7597C173.588 94.2606 172.902 93.7973 172.191 93.3719C171.481 92.9295 170.704 92.6019 169.891 92.4014C169.489 92.3067 169.071 92.3067 168.669 92.4014C168.268 92.5026 167.915 92.7392 167.669 93.071C167.202 93.7913 166.973 94.6399 167.014 95.4973C167.015 96.3802 167.101 97.2609 167.271 98.1273C167.621 99.9084 168.116 101.658 168.751 103.358C168.936 103.793 169.077 104.245 169.173 104.707C169.196 104.838 169.192 104.973 169.162 105.102C169.131 105.231 169.074 105.353 168.994 105.459C168.95 105.51 168.903 105.557 168.853 105.6C168.798 105.65 168.734 105.688 168.664 105.712C168.516 105.734 168.365 105.699 168.242 105.615C167.838 105.356 167.463 105.057 167.121 104.722L166.082 103.751C165.402 103.093 164.663 102.499 163.874 101.975C163.481 101.717 163.051 101.521 162.598 101.393C162.383 101.326 162.156 101.306 161.933 101.334C161.71 101.361 161.495 101.436 161.302 101.553C160.928 101.825 160.667 102.226 160.57 102.679C160.453 103.142 160.394 103.618 160.395 104.096C160.4 105.077 160.522 106.055 160.759 107.007C161.238 108.943 161.947 110.815 162.87 112.583C163.788 114.396 164.838 116.139 166.009 117.799C166.596 118.642 167.228 119.452 167.902 120.226C168.552 121.031 169.212 121.832 169.872 122.652V122.681L169.755 122.632L172.842 122.186C173.864 122.064 174.88 121.889 175.884 121.662C177.864 121.217 179.81 120.631 181.707 119.91C183.579 119.218 185.362 118.308 187.021 117.198C187.835 116.659 188.58 116.021 189.238 115.3C189.563 114.947 189.842 114.554 190.068 114.131C190.3 113.731 190.376 113.259 190.282 112.806C190.219 112.589 190.111 112.388 189.965 112.217C189.818 112.045 189.637 111.907 189.432 111.811C189.011 111.605 188.561 111.461 188.098 111.384C187.162 111.243 186.215 111.186 185.269 111.215H183.852C183.365 111.234 182.877 111.203 182.396 111.122C182.247 111.103 182.111 111.027 182.018 110.909C181.982 110.843 181.961 110.77 181.955 110.695C181.947 110.629 181.947 110.562 181.955 110.496C181.969 110.365 182.01 110.238 182.074 110.122C182.138 110.006 182.225 109.904 182.328 109.822C182.71 109.545 183.118 109.306 183.546 109.109C185.161 108.278 186.705 107.316 188.161 106.231C188.866 105.705 189.516 105.11 190.102 104.455C190.708 103.849 191.108 103.068 191.247 102.223C191.288 101.811 191.185 101.398 190.956 101.053C190.724 100.711 190.415 100.429 190.054 100.228C189.322 99.8261 188.531 99.5427 187.71 99.389C186.898 99.2255 186.079 99.1072 185.254 99.0348L184.032 98.9183C183.813 98.9058 183.6 98.848 183.406 98.7485C183.297 98.6925 183.208 98.6051 183.15 98.4978C183.092 98.3904 183.068 98.2681 183.08 98.1467C183.125 97.9366 183.213 97.7381 183.34 97.5642C183.466 97.3903 183.627 97.2449 183.813 97.1374L184.784 96.4193L186.652 94.9975L190.262 92.2558C191.422 91.3484 192.659 90.5817 193.533 89.4947C193.98 88.9866 194.287 88.3714 194.426 87.709C194.482 87.3907 194.471 87.064 194.392 86.7504C194.313 86.4368 194.169 86.1434 193.969 85.8893C193.758 85.6552 193.483 85.4868 193.179 85.4041C192.874 85.3136 192.559 85.2614 192.242 85.2488C191.617 85.2324 190.991 85.2551 190.369 85.3167C190.058 85.3167 189.748 85.3604 189.442 85.3652C189.124 85.3891 188.805 85.32 188.525 85.1663C188.391 85.0757 188.279 84.9573 188.195 84.8191C188.111 84.6809 188.058 84.5262 188.04 84.3656C188.004 84.064 188.022 83.7584 188.093 83.4631C189.482 80.8317 190.737 78.1319 191.854 75.3739C192.824 72.9477 193.664 70.8611 193.965 69.0657C194.112 68.282 194.144 67.4811 194.062 66.688C193.999 66.1114 193.805 65.557 193.494 65.0672C193.306 64.7676 193.05 64.5165 192.747 64.3345C192.643 64.2713 192.535 64.2177 192.422 64.1744C192.539 64.206 192.652 64.2533 192.756 64.3151C193.069 64.4935 193.335 64.7429 193.533 65.043C193.85 65.5367 194.05 66.0958 194.12 66.6783C194.214 67.4781 194.19 68.2876 194.047 69.0802C193.756 70.8805 192.931 72.9622 191.965 75.3885C190.872 78.1781 189.638 80.9103 188.268 83.5747C188.201 83.8476 188.184 84.1305 188.219 84.4093C188.232 84.5466 188.275 84.6795 188.343 84.7992C188.412 84.9188 188.505 85.0225 188.617 85.1032C188.87 85.2372 189.157 85.2961 189.442 85.2731C189.743 85.2731 190.049 85.2439 190.359 85.2197C190.99 85.1561 191.623 85.1318 192.257 85.1469C192.585 85.1599 192.911 85.2137 193.227 85.307C193.561 85.3958 193.863 85.5756 194.101 85.8262C194.312 86.0982 194.464 86.4113 194.548 86.7455C194.632 87.0798 194.644 87.4277 194.586 87.7672C194.445 88.4625 194.123 89.1084 193.654 89.6403C192.756 90.7564 191.509 91.5328 190.359 92.4451L186.754 95.1916L184.89 96.6085L183.944 97.3315C183.784 97.4384 183.639 97.5656 183.512 97.71C183.396 97.8487 183.318 98.0163 183.289 98.1953C183.281 98.2759 183.297 98.3573 183.336 98.4284C183.375 98.4995 183.435 98.557 183.507 98.5932C183.679 98.6762 183.865 98.7241 184.056 98.7339L185.279 98.8504C186.11 98.9211 186.936 99.0394 187.753 99.2046C188.602 99.3611 189.421 99.651 190.18 100.063C190.567 100.286 190.898 100.593 191.15 100.961C191.403 101.347 191.519 101.807 191.48 102.267C191.336 103.161 190.917 103.989 190.282 104.635C189.679 105.301 189.013 105.907 188.292 106.445C186.826 107.54 185.273 108.514 183.648 109.356C183.235 109.543 182.842 109.771 182.474 110.035C182.393 110.097 182.326 110.175 182.276 110.263C182.226 110.351 182.194 110.449 182.183 110.55C182.178 110.598 182.178 110.647 182.183 110.695C182.183 110.734 182.183 110.826 182.217 110.821C182.279 110.877 182.357 110.913 182.44 110.923C182.895 110.997 183.357 111.026 183.818 111.011H185.235C186.196 110.976 187.158 111.033 188.108 111.181C188.597 111.257 189.072 111.409 189.515 111.632C189.749 111.744 189.957 111.904 190.124 112.102C190.291 112.301 190.414 112.532 190.485 112.782C190.596 113.292 190.513 113.824 190.252 114.276C190.018 114.718 189.728 115.127 189.389 115.494C188.717 116.232 187.958 116.884 187.127 117.435C185.455 118.561 183.653 119.481 181.761 120.177C179.848 120.906 177.886 121.497 175.889 121.943C174.882 122.172 173.863 122.347 172.837 122.468L169.746 122.919H169.673L169.629 122.861H169.605L167.635 120.434C166.961 119.659 166.328 118.849 165.738 118.008C164.557 116.335 163.499 114.579 162.574 112.753C161.646 110.965 160.935 109.074 160.453 107.119C160.208 106.153 160.082 105.161 160.08 104.164C160.08 103.663 160.142 103.165 160.264 102.679C160.378 102.17 160.675 101.722 161.099 101.417C161.32 101.281 161.567 101.193 161.825 101.159C162.083 101.126 162.345 101.148 162.593 101.223C163.068 101.358 163.52 101.564 163.932 101.835C164.734 102.365 165.485 102.969 166.174 103.64L167.213 104.61C167.543 104.931 167.904 105.219 168.29 105.469C168.359 105.519 168.442 105.546 168.528 105.547C168.528 105.547 168.601 105.503 168.635 105.479L168.741 105.372C168.8 105.29 168.842 105.197 168.863 105.099C168.885 105 168.886 104.899 168.867 104.8C168.775 104.355 168.639 103.921 168.46 103.504C167.822 101.791 167.325 100.028 166.975 98.2341C166.803 97.3533 166.717 96.4578 166.718 95.5604C166.679 94.6532 166.927 93.7568 167.426 92.9982C167.703 92.6299 168.096 92.3664 168.542 92.251C168.978 92.1492 169.431 92.1492 169.867 92.251C170.701 92.4482 171.498 92.7757 172.23 93.2215C172.949 93.6483 173.643 94.1166 174.307 94.6238L175.278 95.3614C175.422 95.4785 175.587 95.5688 175.763 95.6283C175.841 95.6512 175.924 95.6495 176.002 95.6235C176.079 95.5974 176.146 95.5483 176.195 95.4827C176.291 95.3382 176.346 95.1706 176.355 94.9975C176.36 94.8046 176.339 94.612 176.292 94.4249C176.219 94.0318 176.151 93.6436 176.078 93.2554C175.933 92.479 175.792 91.7075 175.651 90.9505C175.375 89.4268 175.098 87.9419 174.831 86.491C174.564 85.0401 174.191 83.6329 174.273 82.2014C174.287 81.492 174.485 80.7984 174.846 80.1876C175.033 79.8921 175.28 79.6398 175.572 79.4474C175.864 79.2549 176.194 79.1268 176.539 79.0716C176.883 79.0433 177.228 79.1122 177.534 79.2705C177.832 79.415 178.111 79.5959 178.364 79.8091C178.844 80.2238 179.298 80.6678 179.723 81.1387C179.93 81.3652 180.143 81.5835 180.363 81.7938C180.561 82.003 180.813 82.1526 181.091 82.2257C181.228 82.241 181.367 82.2269 181.499 82.1842C181.63 82.1415 181.751 82.0713 181.853 81.9782C182.065 81.7949 182.243 81.5746 182.377 81.328C183.154 78.4273 184.081 75.5686 185.152 72.7633C186.074 70.3128 186.87 68.2019 187.884 66.6783C188.318 65.9976 188.851 65.3859 189.466 64.8634C189.919 64.4883 190.452 64.2226 191.024 64.087C191.375 64.0042 191.741 64.0042 192.092 64.087C192.233 64.104 192.371 64.145 192.499 64.2083Z" fill="#263238"/>
<path d="M189.951 70.8076C189.943 70.8631 189.927 70.917 189.903 70.9678L189.738 71.4239C189.578 71.8364 189.354 72.4235 189.073 73.1659C188.481 74.6945 187.641 76.883 186.603 79.5761L178.543 100.752C175.408 109.002 172.536 116.509 170.41 121.904C169.352 124.602 168.469 126.781 167.867 128.286C167.567 129.023 167.329 129.601 167.159 130.008C167.077 130.197 167.018 130.343 166.97 130.459L166.897 130.605C166.906 130.551 166.922 130.499 166.946 130.45C166.984 130.333 167.043 130.183 167.11 129.994C167.271 129.576 167.494 128.994 167.775 128.247C168.367 126.718 169.207 124.535 170.245 121.841L178.305 100.675C181.44 92.4013 184.308 84.9236 186.438 79.5276C187.496 76.8296 188.379 74.646 188.981 73.1465C189.282 72.4089 189.519 71.8266 189.689 71.419C189.772 71.2346 189.83 71.0842 189.878 70.9726L189.951 70.8076Z" fill="#263238"/>
<path d="M190.214 87.5732C189.83 87.8479 189.424 88.0898 189 88.2963L186.031 89.9461C184.866 90.5915 183.808 91.1689 183.027 91.562C182.616 91.7951 182.182 91.9838 181.731 92.1249C182.118 91.8552 182.523 91.6136 182.945 91.4019L185.905 89.7278C187.069 89.0824 188.132 88.5195 188.918 88.1361C189.331 87.9076 189.765 87.7191 190.214 87.5732Z" fill="#263238"/>
<path d="M181.338 91.8142C181.275 91.8433 180.12 89.6403 178.762 86.8938C177.403 84.1472 176.336 81.8957 176.408 81.8617C176.481 81.8277 177.626 84.0356 178.99 86.7822C180.353 89.5287 181.402 91.7802 181.338 91.8142Z" fill="#263238"/>
<path d="M177.097 104.736C176.709 104.45 176.352 104.125 176.03 103.766C175.399 103.135 174.574 102.237 173.676 101.199C172.778 100.16 172.051 99.1803 171.536 98.4524C171.234 98.0767 170.972 97.67 170.755 97.2393C171.088 97.5856 171.396 97.9554 171.677 98.3456C172.23 99.0444 172.992 100 173.87 101.034C174.749 102.068 175.564 102.975 176.156 103.64C176.497 103.981 176.811 104.348 177.097 104.736Z" fill="#263238"/>
<path d="M185.972 102.65C185.558 102.816 185.129 102.942 184.691 103.028C183.896 103.227 182.789 103.485 181.566 103.756C180.344 104.028 179.227 104.242 178.422 104.416C177.989 104.525 177.547 104.592 177.102 104.615C177.516 104.451 177.945 104.326 178.383 104.242C179.179 104.043 180.285 103.756 181.513 103.509C182.741 103.261 183.847 103.024 184.653 102.854C185.085 102.745 185.527 102.677 185.972 102.65Z" fill="#263238"/>
<path d="M183.677 114.539C183.138 114.725 182.587 114.873 182.027 114.98C180.998 115.218 179.601 115.533 178.009 115.863C176.418 116.193 175.005 116.484 173.972 116.679C173.418 116.811 172.855 116.9 172.288 116.945C172.826 116.757 173.378 116.61 173.938 116.504C174.962 116.266 176.364 115.951 177.956 115.621C179.547 115.291 180.955 115 181.988 114.805C182.543 114.673 183.108 114.584 183.677 114.539Z" fill="#263238"/>
<path d="M172.541 116.809C172.406 116.716 172.283 116.605 172.177 116.479C171.954 116.256 171.643 115.926 171.26 115.509C170.498 114.674 169.474 113.495 168.397 112.151C167.319 110.807 166.393 109.545 165.747 108.618C165.422 108.157 165.17 107.779 165 107.512C164.899 107.38 164.817 107.235 164.757 107.08C164.879 107.191 164.986 107.317 165.078 107.454L165.893 108.516C166.572 109.414 167.518 110.652 168.596 111.991C169.673 113.33 170.668 114.529 171.396 115.388C171.808 115.836 172.191 116.311 172.541 116.809Z" fill="#263238"/>
<path d="M167.688 149.317C159.264 142.523 158.041 130.911 159.099 120.619C159.279 118.901 159.211 117.072 160.133 115.616C161.055 114.16 163.044 113.262 164.534 114.092C165.771 114.781 166.223 116.31 166.853 117.586C167.698 119.292 169.006 120.725 170.629 121.72C171.687 122.366 173.021 122.807 174.142 122.283C175.685 121.565 176 119.527 176.107 117.814L176.704 108.235C176.811 106.517 176.927 104.771 177.573 103.184C178.218 101.597 179.514 100.166 181.159 99.8161C182.804 99.4668 184.769 100.554 184.997 102.242C185.013 102.955 184.981 103.669 184.9 104.378C184.9 105.091 185.176 105.901 185.836 106.144C186.496 106.386 187.224 105.955 187.777 105.489C189.665 103.883 191.014 101.738 192.29 99.5978C193.566 97.4578 194.804 95.2645 196.541 93.4885C198.278 91.7125 200.593 90.3683 203.058 90.3974C205.523 90.4266 208.027 92.1201 208.483 94.5706C208.939 97.0211 207.362 99.3843 205.693 101.233C203.215 103.982 200.351 106.357 197.191 108.284C196.575 108.562 196.064 109.032 195.736 109.623C195.284 110.739 196.289 111.947 197.39 112.404C198.637 112.913 200.035 112.889 201.36 113.127C202.684 113.364 204.092 114.063 204.509 115.359C205.091 117.159 203.5 118.891 201.976 119.998C198.939 122.205 195.547 123.876 191.946 124.938C190.65 125.311 189.296 125.622 188.219 126.437C187.142 127.252 186.424 128.752 186.957 129.999C187.491 131.246 189.039 131.746 190.354 131.59C191.669 131.435 192.921 130.799 194.212 130.411C196.638 129.683 199.656 130.057 201.005 132.192C201.903 133.599 201.864 135.468 201.253 137.045C200.571 138.576 199.589 139.955 198.366 141.101C194.328 145.327 189.241 148.405 183.624 150.02C178.034 151.539 172.948 151.704 167.649 149.346" fill="#A6DA99"/>
<g opacity="0.1">
<path d="M167.688 149.317C159.264 142.523 158.041 130.911 159.099 120.619C159.279 118.901 159.211 117.072 160.133 115.616C161.055 114.16 163.044 113.262 164.534 114.092C165.771 114.781 166.223 116.31 166.853 117.586C167.698 119.292 169.006 120.725 170.629 121.72C171.687 122.366 173.021 122.807 174.142 122.283C175.685 121.565 176 119.527 176.107 117.814L176.704 108.235C176.811 106.517 176.927 104.771 177.573 103.184C178.218 101.597 179.514 100.166 181.159 99.8161C182.804 99.4668 184.769 100.554 184.997 102.242C185.013 102.955 184.981 103.669 184.9 104.378C184.9 105.091 185.176 105.901 185.836 106.144C186.496 106.386 187.224 105.955 187.777 105.489C189.665 103.883 191.014 101.738 192.29 99.5978C193.566 97.4578 194.804 95.2645 196.541 93.4885C198.278 91.7125 200.593 90.3683 203.058 90.3974C205.523 90.4266 208.027 92.1201 208.483 94.5706C208.939 97.0211 207.362 99.3843 205.693 101.233C203.215 103.982 200.351 106.357 197.191 108.284C196.575 108.562 196.064 109.032 195.736 109.623C195.284 110.739 196.289 111.947 197.39 112.404C198.637 112.913 200.035 112.889 201.36 113.127C202.684 113.364 204.092 114.063 204.509 115.359C205.091 117.159 203.5 118.891 201.976 119.998C198.939 122.205 195.547 123.876 191.946 124.938C190.65 125.311 189.296 125.622 188.219 126.437C187.142 127.252 186.424 128.752 186.957 129.999C187.491 131.246 189.039 131.746 190.354 131.59C191.669 131.435 192.921 130.799 194.212 130.411C196.638 129.683 199.656 130.057 201.005 132.192C201.903 133.599 201.864 135.468 201.253 137.045C200.571 138.576 199.589 139.955 198.366 141.101C194.328 145.327 189.241 148.405 183.624 150.02C178.034 151.539 172.948 151.704 167.649 149.346" fill="black"/>
</g>
<path d="M167.028 156.964C167.837 152.214 169.098 147.552 170.794 143.042C172.893 137.54 175.305 132.163 178.019 126.937L180.13 122.812C180.829 121.458 181.518 120.119 182.275 118.847C183.732 116.414 185.321 114.062 187.035 111.802C188.661 109.632 190.277 107.633 191.805 105.775C193.334 103.916 194.799 102.218 196.197 100.723C198.392 98.3541 200.77 96.1621 203.31 94.1676C204.208 93.464 204.922 92.9399 205.412 92.5905L205.97 92.1975C206.031 92.1506 206.096 92.1085 206.164 92.0713C206.113 92.1293 206.054 92.1799 205.989 92.2217L205.45 92.6439C204.965 93.0078 204.271 93.5464 203.388 94.2695C200.884 96.2934 198.535 98.5026 196.362 100.879C194.979 102.378 193.528 104.086 191.994 105.945C190.461 107.803 188.865 109.827 187.254 111.981C185.549 114.234 183.971 116.579 182.527 119.008C181.775 120.274 181.071 121.604 180.397 122.957L178.286 127.082C175.579 132.298 173.164 137.66 171.051 143.144C169.35 147.635 168.071 152.274 167.232 157.003" fill="#263238"/>
<path d="M182.367 118.833C182.299 118.591 182.258 118.342 182.246 118.09C182.192 117.605 182.129 116.916 182.066 116.052C181.945 114.335 181.853 111.947 181.761 109.322C181.668 106.697 181.542 104.314 181.392 102.596C181.319 101.742 181.256 101.048 181.202 100.568C181.159 100.32 181.144 100.067 181.159 99.8159C181.238 100.054 181.293 100.3 181.324 100.549C181.411 101.034 181.513 101.718 181.615 102.577C181.824 104.29 181.984 106.673 182.1 109.307C182.217 111.942 182.26 114.247 182.314 116.043C182.348 116.853 182.372 117.532 182.396 118.081C182.411 118.332 182.401 118.584 182.367 118.833Z" fill="#263238"/>
<path d="M204.669 116.227C204.376 116.273 204.078 116.29 203.781 116.276C203.213 116.276 202.393 116.276 201.355 116.344C199.327 116.426 196.502 116.63 193.44 116.999C190.379 117.368 187.584 117.819 185.584 118.207C184.585 118.392 183.779 118.566 183.221 118.692C182.935 118.768 182.643 118.819 182.348 118.843C182.621 118.728 182.903 118.637 183.192 118.571C183.74 118.416 184.541 118.212 185.541 117.994C187.53 117.552 190.311 117.062 193.402 116.688C196.04 116.366 198.693 116.18 201.35 116.13C202.369 116.13 203.194 116.13 203.776 116.159C204.075 116.156 204.374 116.178 204.669 116.227Z" fill="#263238"/>
<path d="M171.095 142.644C171.037 142.559 170.993 142.466 170.964 142.368L170.639 141.543C170.362 140.829 169.988 139.781 169.547 138.486C168.659 135.89 167.543 132.265 166.363 128.252C165.184 124.239 164.107 120.604 163.272 117.994C162.865 116.722 162.525 115.679 162.278 114.903L162.011 114.063C161.973 113.967 161.948 113.865 161.938 113.762C161.993 113.849 162.037 113.941 162.069 114.039C162.156 114.262 162.263 114.524 162.389 114.864C162.666 115.577 163.04 116.625 163.486 117.921C164.374 120.517 165.49 124.142 166.664 128.16C167.839 132.177 168.926 135.802 169.76 138.413C170.168 139.684 170.503 140.728 170.731 141.504L170.998 142.343C171.044 142.439 171.076 142.54 171.095 142.644Z" fill="#263238"/>
<path d="M201.006 135.22C200.912 135.27 200.81 135.305 200.705 135.322L199.836 135.55L196.633 136.351C193.926 137.025 190.204 138.001 186.089 139.088C181.974 140.175 178.238 141.116 175.515 141.737C174.157 142.048 173.055 142.29 172.288 142.441L171.405 142.611C171.304 142.636 171.199 142.647 171.095 142.645C171.189 142.6 171.288 142.567 171.391 142.548L172.264 142.319L175.467 141.519C178.17 140.844 181.896 139.864 186.011 138.777C190.126 137.69 193.863 136.749 196.58 136.128C197.939 135.817 199.045 135.579 199.807 135.429L200.69 135.259C200.793 135.234 200.899 135.221 201.006 135.22Z" fill="#263238"/>
<path d="M169.648 15.3628H51.9702V176.612H169.648V15.3628Z" fill="#455A64"/>
<path d="M164.995 167.023H143.202H61.7725V21.8799H164.995V148.967V167.023Z" fill="#E0E0E0"/>
<path d="M163.365 164.33H141.766H61.0688V19.9629H163.365V146.371V164.33Z" fill="#EBEBEB"/>
<path d="M152.373 153.097L140.591 162.69H59.1616V20.3271H162.384V144.978L152.373 153.097Z" fill="#FAFAFA"/>
<path d="M152.374 153.082C152.374 153.082 152.582 152.902 153.004 152.558L154.892 151.014L162.36 144.934V144.963C162.36 124.486 162.321 78.9693 162.287 20.3123L162.399 20.4287H60.0741H59.1764L59.3025 20.3026C59.3025 73.8257 59.3025 123.2 59.2734 162.665L59.1764 162.563L140.606 162.622H140.577L149.428 155.445L151.646 153.654C152.131 153.256 152.388 153.062 152.388 153.062L151.66 153.669L149.443 155.508L140.621 162.719L59.1618 162.787H59.0599V162.685C59.0599 123.219 59.0599 73.8451 59.0356 20.322V20.1958H60.0595H162.384H162.501V20.3074C162.467 78.9839 162.438 124.481 162.428 144.959L154.931 151.01L153.034 152.596L152.374 153.082Z" fill="#263238"/>
<path d="M96.8464 10.3794H125.064C126.885 10.3794 128.631 11.1028 129.919 12.3905C131.207 13.6782 131.93 15.4246 131.93 17.2457V24.8593H89.6841V17.5368C89.6854 15.6381 90.4405 13.8176 91.7836 12.4755C93.1266 11.1333 94.9477 10.3794 96.8464 10.3794Z" fill="#A6DA99"/>
<path d="M100.034 10.3794L98.4912 2.56689H122.817L121.463 10.3794H100.034Z" fill="#A6DA99"/>
<path d="M87.345 60.3987H69.9585V43.0073H87.345V60.3987ZM70.4437 59.9135H86.8598V43.4926H70.4437V59.9135Z" fill="#A6DA99"/>
<path d="M148.802 47.2097C148.802 47.2776 136.695 47.3358 121.769 47.3358C106.842 47.3358 94.7305 47.2776 94.7305 47.2097C94.7305 47.1417 106.833 47.0835 121.769 47.0835C136.705 47.0835 148.802 47.1369 148.802 47.2097Z" fill="#263238"/>
<path d="M148.802 50.82C148.802 50.8928 136.695 50.9462 121.769 50.9462C106.842 50.9462 94.7305 50.8928 94.7305 50.82C94.7305 50.7472 106.833 50.6938 121.769 50.6938C136.705 50.6938 148.802 50.7521 148.802 50.82Z" fill="#263238"/>
<path d="M148.802 54.4353C148.802 54.5032 136.695 54.5614 121.769 54.5614C106.842 54.5614 94.7305 54.5032 94.7305 54.4353C94.7305 54.3673 106.833 54.3091 121.769 54.3091C136.705 54.3091 148.802 54.3673 148.802 54.4353Z" fill="#263238"/>
<path d="M148.802 58.0505C148.802 58.1184 136.695 58.1766 121.769 58.1766C106.842 58.1766 94.7305 58.1184 94.7305 58.0505C94.7305 57.9826 106.833 57.9243 121.769 57.9243C136.705 57.9243 148.802 57.9728 148.802 58.0505Z" fill="#263238"/>
<path d="M87.345 87.1995H69.9585V69.8081H87.345V87.1995ZM70.4437 86.7142H86.8598V70.2934H70.4437V86.7142Z" fill="#A6DA99"/>
<path d="M73.4136 78.8629L75.7234 76.3833L79.5714 79.4598L88.3787 70.9097L90.4895 73.399L79.4016 84.3365L73.4136 78.8629Z" fill="#A6DA99"/>
<path d="M148.802 74.01C148.802 74.0779 136.695 74.1361 121.769 74.1361C106.842 74.1361 94.7305 74.0779 94.7305 74.01C94.7305 73.942 106.833 73.8838 121.769 73.8838C136.705 73.8838 148.802 73.942 148.802 74.01Z" fill="#263238"/>
<path d="M148.802 77.6252C148.802 77.6931 136.695 77.7513 121.769 77.7513C106.842 77.7513 94.7305 77.6931 94.7305 77.6252C94.7305 77.5573 106.833 77.499 121.769 77.499C136.705 77.499 148.802 77.5524 148.802 77.6252Z" fill="#263238"/>
<path d="M148.802 81.2355C148.802 81.3083 136.695 81.3617 121.769 81.3617C106.842 81.3617 94.7305 81.3083 94.7305 81.2355C94.7305 81.1628 106.833 81.1094 121.769 81.1094C136.705 81.1094 148.802 81.1676 148.802 81.2355Z" fill="#263238"/>
<path d="M148.802 84.8508C148.802 84.9187 136.695 84.9769 121.769 84.9769C106.842 84.9769 94.7305 84.9187 94.7305 84.8508C94.7305 84.7828 106.833 84.7246 121.769 84.7246C136.705 84.7246 148.802 84.7828 148.802 84.8508Z" fill="#263238"/>
<path d="M87.345 113.136H69.9585V95.7446H87.345V113.136ZM70.4437 112.651H86.8598V96.2299H70.4437V112.651Z" fill="#A6DA99"/>
<path d="M73.4136 104.799L75.7234 102.32L79.5714 105.396L88.3787 96.8462L90.4895 99.3355L79.4016 110.273L73.4136 104.799Z" fill="#A6DA99"/>
<path d="M148.802 99.947C148.802 100.015 136.695 100.073 121.769 100.073C106.842 100.073 94.7305 100.015 94.7305 99.947C94.7305 99.879 106.833 99.8208 121.769 99.8208C136.705 99.8208 148.802 99.8742 148.802 99.947Z" fill="#263238"/>
<path d="M148.802 103.557C148.802 103.63 136.695 103.683 121.769 103.683C106.842 103.683 94.7305 103.63 94.7305 103.557C94.7305 103.485 106.833 103.431 121.769 103.431C136.705 103.431 148.802 103.489 148.802 103.557Z" fill="#263238"/>
<path d="M148.802 107.172C148.802 107.245 136.695 107.298 121.769 107.298C106.842 107.298 94.7305 107.245 94.7305 107.172C94.7305 107.099 106.833 107.046 121.769 107.046C136.705 107.046 148.802 107.104 148.802 107.172Z" fill="#263238"/>
<path d="M148.802 110.787C148.802 110.855 136.695 110.913 121.769 110.913C106.842 110.913 94.7305 110.855 94.7305 110.787C94.7305 110.719 106.833 110.661 121.769 110.661C136.705 110.661 148.802 110.719 148.802 110.787Z" fill="#263238"/>
<path d="M87.345 138.18H69.9585V120.789H87.345V138.18ZM70.4437 137.695H86.8598V121.274H70.4437V137.695Z" fill="#A6DA99"/>
<path d="M73.4136 129.843L75.7234 127.363L79.5714 130.44L88.3787 121.89L90.4895 124.374L79.4016 135.312L73.4136 129.843Z" fill="#A6DA99"/>
<path d="M148.802 124.986C148.802 125.059 136.695 125.112 121.769 125.112C106.842 125.112 94.7305 125.059 94.7305 124.986C94.7305 124.913 106.833 124.86 121.769 124.86C136.705 124.86 148.802 124.938 148.802 124.986Z" fill="#263238"/>
<path d="M148.802 128.601C148.802 128.669 136.695 128.727 121.769 128.727C106.842 128.727 94.7305 128.669 94.7305 128.601C94.7305 128.533 106.833 128.475 121.769 128.475C136.705 128.475 148.802 128.533 148.802 128.601Z" fill="#263238"/>
<path d="M148.802 132.216C148.802 132.284 136.695 132.342 121.769 132.342C106.842 132.342 94.7305 132.284 94.7305 132.216C94.7305 132.148 106.833 132.09 121.769 132.09C136.705 132.09 148.802 132.143 148.802 132.216Z" fill="#263238"/>
<path d="M148.802 135.826C148.802 135.899 136.695 135.953 121.769 135.953C106.842 135.953 94.7305 135.899 94.7305 135.826C94.7305 135.754 106.833 135.7 121.769 135.7C136.705 135.7 148.802 135.758 148.802 135.826Z" fill="#263238"/>
<path d="M143.828 139.121L132.512 162.559H140.592L143.828 139.121Z" fill="#E0E0E0"/>
<path d="M140.592 162.69L143.828 139.252L162.384 144.978L140.592 162.69Z" fill="#FAFAFA"/>
<path d="M140.592 162.689L146.832 157.551L162.307 144.881L162.35 145.094L155.183 142.891L143.814 139.363L143.964 139.266C142.994 146.06 142.164 151.907 141.577 156.051C140.99 160.084 140.689 162.165 140.606 162.689C140.605 162.654 140.605 162.618 140.606 162.583L140.65 162.262C140.689 161.957 140.742 161.53 140.815 160.986C140.965 159.846 141.179 158.211 141.451 156.134C142.014 151.956 142.8 146.079 143.717 139.213V139.077L143.848 139.116L155.246 142.629L162.409 144.842L162.632 144.91L162.452 145.055C156.188 150.107 150.709 154.523 146.788 157.672L142.213 161.345L140.99 162.316L140.679 162.563L140.592 162.689Z" fill="#263238"/>
<g opacity="0.3">
<path d="M121.133 2.56689L119.794 10.3794H121.463L122.817 2.56689H120.687" fill="black"/>
</g>
<path d="M49.8839 84.9628C50.4689 85.007 51.0569 84.9328 51.6126 84.7447C52.1683 84.5566 52.6805 84.2584 53.1184 83.868C53.5564 83.4776 53.9112 83.0029 54.1617 82.4724C54.4121 81.9418 54.5532 81.3662 54.5763 80.78C54.6685 78.4023 54.751 76.0003 54.751 76.0003C54.751 76.0003 58.3515 75.6654 58.633 72.1183C58.9144 68.5711 58.7737 60.3315 58.7737 60.3315C56.7999 59.3357 54.596 58.8853 52.3898 59.027C50.1836 59.1686 48.0553 59.8971 46.2251 61.137L46.4435 73.6759V80.4258C46.4483 82.6676 47.6275 84.793 49.8839 84.9628Z" fill="#FFBE9D"/>
<path d="M55.0615 67.7509C54.7985 67.3729 54.4026 67.108 53.9529 67.0091C53.5032 66.9101 53.0326 66.9844 52.6353 67.2172C52.232 67.4974 51.9413 67.9117 51.8151 68.3863C51.6889 68.8609 51.7354 69.3649 51.9462 69.8084C52.1299 70.1375 52.3801 70.4249 52.6809 70.6521C52.9816 70.8793 53.3263 71.0415 53.6931 71.1283C54.0183 71.199 54.3066 71.3859 54.504 71.6538C54.7014 71.9218 54.7944 72.2525 54.7655 72.584C54.6162 73.5206 54.1785 74.3874 53.5136 75.0637C52.4144 76.1822 50.9514 76.8706 49.389 77.0047C47.8701 77.1842 46.1329 76.8688 45.2498 75.6217C44.6044 74.7143 44.5607 73.5254 44.5364 72.4142C44.4815 69.7874 44.4265 67.1606 44.3715 64.5337C44.3143 63.5869 44.3746 62.6367 44.551 61.7047C44.7369 60.7647 45.2706 59.9294 46.0456 59.3658C46.9142 58.7932 48.0108 58.7447 48.9959 58.4293C50.2333 58.0265 51.2814 57.2113 52.4363 56.6193C53.5912 56.0273 55.0033 55.6731 56.163 56.2554C56.9977 56.6727 57.5557 57.5025 58.3612 57.9634C59.5161 58.6185 61.0835 58.4487 61.6415 60.1665C61.838 60.7538 61.838 61.3891 61.6415 61.9765C60.8603 64.2814 58.007 65.2131 55.9495 64.2183C55.9107 64.6065 56.2941 65.4751 55.8816 66.7077C55.7506 67.1056 55.7069 67.7024 55.0906 67.717" fill="#263238"/>
<path d="M45.2256 60.3993C45.7911 59.2724 46.1775 58.0641 46.3708 56.8182C46.4623 56.1941 46.4088 55.5574 46.2144 54.9573C46.02 54.3573 45.6899 53.8102 45.2499 53.3583C44.6003 52.7943 43.7609 52.4978 42.9012 52.5285C42.0846 52.5751 41.3022 52.8727 40.6612 53.3809C40.0202 53.889 39.5518 54.5828 39.3201 55.3673C39.1202 56.1582 39.1511 56.9899 39.4091 57.7639C39.6671 58.5378 40.1414 59.2217 40.7758 59.7345C41.4246 60.2328 42.1935 60.5509 43.0047 60.6566C43.8159 60.7622 44.6407 60.6517 45.3954 60.3362" fill="#263238"/>
<path d="M45.924 59.1133C45.8978 59.549 45.7103 59.9592 45.3982 60.2642C45.086 60.5692 44.6715 60.7471 44.2354 60.7632C44.2354 60.6904 44.7594 60.5497 45.2059 60.0838C45.6523 59.618 45.8561 59.0939 45.924 59.1133Z" fill="#A6DA99"/>
<path d="M44.7547 59.9866C44.4765 60.2781 44.1477 60.5165 43.7842 60.6902C43.3957 60.9116 42.9596 61.0365 42.5128 61.0541C42.2291 61.0695 41.9458 61.0167 41.6866 60.9002C41.4275 60.7837 41.2 60.6069 41.0231 60.3845C40.8665 60.1504 40.7621 59.8854 40.7169 59.6075C40.6717 59.3295 40.6867 59.0451 40.761 58.7735C40.8737 58.3424 41.0772 57.9403 41.3579 57.5943C41.5902 57.2663 41.8756 56.9793 42.2022 56.7451C41.9863 57.0805 41.753 57.4044 41.5035 57.7156C41.2599 58.0535 41.0851 58.4361 40.9891 58.8414C40.9286 59.0804 40.9184 59.3294 40.9594 59.5725C41.0003 59.8156 41.0914 60.0475 41.2269 60.2535C41.382 60.4429 41.5787 60.594 41.8018 60.695C42.0248 60.796 42.2681 60.8442 42.5128 60.8358C42.9275 60.8291 43.3354 60.7296 43.7065 60.5446C44.3373 60.2195 44.7304 59.9478 44.7547 59.9866Z" fill="#263238"/>
<path d="M38.6989 64.0092C38.772 64.1324 38.8291 64.2645 38.8687 64.4023C38.9945 64.7659 39.1727 65.1092 39.3977 65.4213C39.5472 65.647 39.7568 65.8266 40.0028 65.9397C40.2489 66.0529 40.5216 66.0951 40.7903 66.0618C41.112 65.971 41.4047 65.7986 41.6402 65.5614C41.8757 65.3242 42.0459 65.0303 42.1345 64.708C42.3088 64.0293 42.4305 63.3382 42.4984 62.6408C42.5669 62.0428 42.8023 61.4761 43.1778 61.0055C43.4466 60.696 43.8129 60.4872 44.2162 60.4135C44.3621 60.3778 44.5156 60.3915 44.6529 60.4523C44.6529 60.4523 44.4928 60.4523 44.2356 60.5106C43.8712 60.6113 43.5482 60.8255 43.3136 61.122C42.983 61.578 42.7803 62.1141 42.7265 62.6748C42.6705 63.389 42.5519 64.0969 42.3722 64.7905C42.2721 65.1545 42.0768 65.4853 41.8065 65.7488C41.5361 66.0123 41.2005 66.1991 40.834 66.2899C40.4989 66.3434 40.1556 66.2782 39.8635 66.1055C39.6211 65.9584 39.4127 65.7616 39.2521 65.528C39.0296 65.1943 38.8655 64.8251 38.7668 64.4362C38.717 64.2996 38.694 64.1546 38.6989 64.0092Z" fill="#263238"/>
<path d="M36.9469 93.9447C36.9469 93.9447 35.1272 107.25 36.9469 108.939C38.7666 110.628 40.5087 110.065 40.5087 110.065L43.9685 107.153L44.6479 93.9253L36.9469 93.9447Z" fill="#FFBE9D"/>
<path d="M74.5298 56.5949L76.8396 54.1152L80.6876 57.1917L89.4949 48.6416L91.6058 51.1309L80.5178 62.0685L74.5298 56.5949Z" fill="#A6DA99"/>
<path d="M85.3799 57.2695L82.0317 59.4192C81.8813 58.0945 80.872 56.7843 80.9205 57.4491C80.969 58.1139 80.9205 61.564 80.9205 61.564L74.9568 74.1271C74.1464 76.1167 72.5014 77.3686 71.2737 77.6646L65.6885 79.3242L67.8673 86.6951L75.6313 84.1233C76.6222 83.7949 77.5225 83.239 78.2598 82.4999C78.9972 81.7609 79.5511 80.8594 79.8772 79.8676L85.215 63.6021C85.5694 62.5543 85.8547 61.4845 86.069 60.3994C86.3019 59.0358 85.3799 57.2695 85.3799 57.2695Z" fill="#FFBE9D"/>
<path d="M57.9485 194.678L57.8612 190.956L50.8833 191.068L50.9464 196.517L51.3831 196.541C53.3241 196.614 61.19 196.789 62.4711 196.381C63.8977 195.92 57.9485 194.678 57.9485 194.678Z" fill="#A6DA99"/>
<g opacity="0.5">
<path d="M53.4796 196.425C53.362 195.844 53.0358 195.326 52.5625 194.969C52.0964 194.606 51.5107 194.433 50.9224 194.484L50.9515 196.425H53.4796Z" fill="white"/>
</g>
<g opacity="0.4">
<path d="M60.8361 195.391C60.8361 195.391 62.9226 195.954 62.6703 196.303C62.418 196.653 54.4502 196.789 50.9272 196.517V196.362L60.2246 196.299C60.2246 196.299 60.4527 195.415 60.8361 195.391Z" fill="white"/>
</g>
<path d="M50.8446 196.357H50.9659H51.3105L52.5818 196.391C53.6542 196.415 55.1342 196.425 56.7695 196.391C58.4048 196.357 59.8897 196.313 60.9573 196.26L62.2286 196.187L62.5731 196.163H62.6896H62.5683H62.2238L60.9573 196.211C59.8849 196.245 58.4048 196.294 56.7695 196.318C55.1342 196.342 53.6542 196.318 52.5818 196.318H51.3153H50.8301L50.8446 196.357Z" fill="#263238"/>
<path d="M60.2539 196.405C60.3044 196.194 60.381 195.991 60.4819 195.799C60.6041 195.622 60.7457 195.459 60.9041 195.313C60.6976 195.41 60.5251 195.567 60.4091 195.764C60.2931 195.96 60.239 196.187 60.2539 196.415V196.405Z" fill="#263238"/>
<path d="M58.1767 195.391C58.1767 195.391 58.2931 195.284 58.395 195.124C58.4969 194.964 58.5552 194.818 58.5357 194.809C58.5163 194.799 58.4193 194.915 58.3222 195.076C58.2252 195.236 58.1572 195.381 58.1767 195.391Z" fill="#263238"/>
<path d="M57.6092 195.105C57.6092 195.105 57.7305 195.047 57.8518 194.935C57.9731 194.823 58.0507 194.721 58.0362 194.707C58.0216 194.692 57.91 194.765 57.7935 194.872C57.6771 194.979 57.5897 195.085 57.6092 195.105Z" fill="#263238"/>
<path d="M57.2402 194.45C57.3566 194.492 57.4815 194.505 57.6042 194.488C57.7272 194.503 57.8519 194.488 57.9681 194.445C57.8506 194.407 57.7269 194.394 57.6042 194.406C57.4811 194.392 57.3565 194.407 57.2402 194.45Z" fill="#263238"/>
<path d="M57.1094 193.989C57.2319 194.064 57.3733 194.103 57.517 194.1C57.6608 194.121 57.8076 194.099 57.9391 194.037C57.8004 194.024 57.6606 194.024 57.5218 194.037C57.3861 194.009 57.2481 193.992 57.1094 193.989Z" fill="#263238"/>
<path d="M58.4097 194.779C58.5572 194.807 58.7085 194.807 58.8561 194.779C59.021 194.758 59.1835 194.72 59.3413 194.668C59.4356 194.638 59.5267 194.599 59.6131 194.551C59.6404 194.537 59.6645 194.517 59.6837 194.493C59.7029 194.469 59.7169 194.441 59.7247 194.411C59.7304 194.377 59.7266 194.342 59.7138 194.311C59.7009 194.279 59.6795 194.251 59.6519 194.231C59.479 194.151 59.2839 194.133 59.0992 194.18C58.9145 194.227 58.7516 194.336 58.6377 194.488C58.5724 194.579 58.5247 194.681 58.497 194.789C58.4885 194.829 58.4885 194.871 58.497 194.911C58.5434 194.773 58.6105 194.644 58.696 194.527C58.7961 194.408 58.927 194.319 59.0745 194.27C59.2509 194.209 59.4443 194.219 59.6131 194.299C59.681 194.352 59.6568 194.435 59.5791 194.483C59.4987 194.529 59.4142 194.566 59.3268 194.595C59.1686 194.65 59.0063 194.692 58.8415 194.721C58.5747 194.765 58.4097 194.765 58.4097 194.779Z" fill="#263238"/>
<path d="M58.5214 194.813C58.576 194.72 58.5933 194.609 58.5699 194.503C58.5516 194.386 58.5068 194.275 58.4389 194.178C58.4005 194.112 58.3461 194.057 58.2807 194.018C58.2154 193.979 58.1413 193.957 58.0652 193.955C58.0425 193.959 58.0209 193.968 58.0018 193.981C57.9826 193.994 57.9662 194.011 57.9536 194.03C57.941 194.05 57.9323 194.072 57.9281 194.094C57.924 194.117 57.9244 194.141 57.9294 194.163C57.9401 194.235 57.9667 194.302 58.007 194.362C58.066 194.462 58.1396 194.552 58.2254 194.629C58.2946 194.71 58.3831 194.771 58.4825 194.809C58.4825 194.809 58.3952 194.731 58.269 194.59C58.1964 194.507 58.1314 194.418 58.0749 194.323C58.0118 194.231 57.9682 194.061 58.0749 194.037C58.1817 194.013 58.303 194.134 58.3709 194.221C58.4359 194.308 58.4822 194.407 58.5068 194.513C58.5202 194.612 58.5251 194.713 58.5214 194.813Z" fill="#263238"/>
<path d="M50.9609 194.445C50.9609 194.445 51.1599 194.445 51.4753 194.445C51.8867 194.484 52.2787 194.638 52.6059 194.891C52.9331 195.143 53.1821 195.483 53.3241 195.871C53.4357 196.167 53.4503 196.357 53.4648 196.357C53.4744 196.31 53.4744 196.262 53.4648 196.216C53.449 196.089 53.4214 195.964 53.3823 195.842C53.2478 195.437 52.9944 195.081 52.6552 194.822C52.316 194.562 51.9066 194.411 51.4802 194.387C51.3528 194.372 51.2242 194.372 51.0968 194.387C51.0481 194.397 51.0019 194.417 50.9609 194.445Z" fill="#263238"/>
<path d="M51.6406 191.533C51.5972 192.009 51.5843 192.487 51.6018 192.965C51.5863 193.45 51.6009 193.937 51.6455 194.42C51.6896 193.937 51.7026 193.45 51.6843 192.965C51.696 192.487 51.6814 192.009 51.6406 191.533Z" fill="#263238"/>
<path d="M54.3433 195.73C54.6799 195.8 55.0238 195.827 55.3671 195.813C55.7097 195.827 56.0526 195.795 56.3862 195.716C56.3862 195.692 55.9009 195.716 55.3671 195.716C54.8334 195.716 54.3481 195.706 54.3433 195.73Z" fill="#263238"/>
<path d="M52.9795 195.745C52.9795 195.745 53.0183 195.842 53.062 195.949C53.1057 196.056 53.1396 196.143 53.1639 196.143C53.1882 196.143 53.1979 196.032 53.1396 195.91C53.0814 195.789 52.994 195.731 52.9795 195.745Z" fill="#263238"/>
<path d="M52.4507 195.114C52.4507 195.114 52.4798 195.202 52.5574 195.275C52.6351 195.347 52.703 195.391 52.7176 195.376C52.7321 195.362 52.6885 195.284 52.6157 195.216C52.5429 195.148 52.4701 195.095 52.4507 195.114Z" fill="#263238"/>
<path d="M51.7082 194.814C51.7082 194.814 51.8101 194.814 51.912 194.867C52.0139 194.92 52.0867 194.954 52.1061 194.94C52.1255 194.925 52.0673 194.828 51.9362 194.789C51.8052 194.751 51.7033 194.814 51.7082 194.814Z" fill="#263238"/>
<path d="M51.1841 194.702C51.1841 194.702 51.2132 194.76 51.2714 194.78C51.3297 194.799 51.383 194.804 51.3927 194.78C51.4024 194.755 51.3588 194.721 51.3005 194.702C51.2423 194.683 51.1889 194.678 51.1841 194.702Z" fill="#263238"/>
<path d="M33.3173 193.489L35.6853 190.611L30.3185 186.142L26.8149 190.315L27.1255 190.616C28.5376 191.931 34.4043 197.201 35.6368 197.725C37.0198 198.312 33.3173 193.489 33.3173 193.489Z" fill="#A6DA99"/>
<g opacity="0.5">
<path d="M28.8097 191.902C29.1065 191.384 29.2016 190.774 29.0765 190.189C28.9575 189.612 28.6248 189.1 28.1449 188.758L26.8687 190.248L28.8097 191.902Z" fill="white"/>
</g>
<g opacity="0.4">
<path d="M35.0593 195.925C35.0593 195.925 36.2725 197.715 35.8552 197.812C35.4378 197.909 29.2946 192.805 26.8149 190.315L26.9217 190.204L34.0112 196.221C34.0112 196.221 34.7342 195.677 35.0593 195.925Z" fill="white"/>
</g>
<path d="M26.8394 190.131L26.9218 190.218L27.1742 190.456L28.1156 191.31C28.9114 192.023 30.0274 192.999 31.2842 194.047C32.541 195.095 33.7105 196.022 34.5451 196.682L35.5545 197.453L35.831 197.657L35.9329 197.725L35.8407 197.643L35.5739 197.424L34.6034 196.633C33.7639 195.964 32.6138 195.032 31.357 193.984C30.1002 192.936 28.9793 191.97 28.1738 191.266L27.2033 190.432L26.9413 190.204L26.8394 190.131Z" fill="#263238"/>
<path d="M33.9385 196.303C34.1153 196.174 34.3077 196.068 34.5111 195.988C34.7209 195.934 34.9354 195.902 35.1516 195.891C34.9355 195.811 34.6981 195.811 34.482 195.891C34.2568 195.958 34.0637 196.104 33.9385 196.303Z" fill="#263238"/>
<path d="M33.0264 194.178C33.0264 194.202 33.1865 194.178 33.366 194.115C33.5456 194.052 33.6912 193.993 33.6815 193.969C33.6717 193.945 33.5213 193.969 33.3418 194.032C33.2274 194.058 33.1198 194.107 33.0264 194.178Z" fill="#263238"/>
<path d="M32.7837 193.586C32.7837 193.586 32.9147 193.625 33.0797 193.62C33.2447 193.615 33.3708 193.591 33.3708 193.567C33.3708 193.542 33.235 193.528 33.0748 193.533C32.975 193.528 32.8753 193.546 32.7837 193.586Z" fill="#263238"/>
<path d="M32.9292 192.873C32.9292 192.873 33.0263 193.008 33.1815 193.139C33.2691 193.228 33.3729 193.299 33.4872 193.348C33.4872 193.348 33.3902 193.207 33.2349 193.076C33.0796 192.945 32.9486 192.834 32.9292 192.873Z" fill="#263238"/>
<path d="M33.1328 192.416C33.1856 192.55 33.2662 192.67 33.3691 192.769C33.472 192.869 33.5949 192.945 33.7297 192.994C33.6357 192.892 33.5352 192.796 33.4288 192.708C33.2687 192.552 33.1765 192.387 33.1328 192.416Z" fill="#263238"/>
<path d="M33.5989 193.843C33.6952 193.959 33.812 194.056 33.9435 194.129C34.0811 194.218 34.2275 194.293 34.3802 194.353C34.4704 194.393 34.5648 194.424 34.6616 194.445C34.7227 194.455 34.7854 194.441 34.8363 194.406C34.8631 194.385 34.8833 194.357 34.8945 194.326C34.9057 194.294 34.9074 194.259 34.8994 194.227C34.8245 194.049 34.6899 193.903 34.5188 193.815C34.3478 193.726 34.1511 193.7 33.9629 193.741C33.8521 193.763 33.7476 193.809 33.6572 193.877C33.6232 193.899 33.5936 193.927 33.5698 193.96C33.6941 193.884 33.8303 193.83 33.9726 193.799C34.1266 193.773 34.285 193.791 34.4287 193.853C34.6017 193.92 34.7412 194.052 34.8169 194.222C34.8169 194.309 34.7635 194.358 34.6713 194.343C34.5818 194.323 34.4942 194.295 34.4093 194.26C34.2598 194.205 34.1153 194.137 33.9774 194.057C33.7397 193.964 33.6086 193.843 33.5989 193.843Z" fill="#263238"/>
<path d="M33.6619 193.955C33.6619 193.955 33.7881 193.916 33.9045 193.751C33.9671 193.651 34.0068 193.538 34.021 193.421C34.0321 193.345 34.0252 193.268 34.0007 193.195C33.9762 193.123 33.935 193.057 33.8803 193.004C33.8384 192.981 33.7894 192.976 33.7439 192.99C33.6985 193.004 33.6602 193.035 33.6376 193.076C33.6007 193.137 33.5775 193.205 33.5697 193.275C33.5555 193.39 33.5555 193.506 33.5697 193.62C33.5697 193.727 33.5964 193.832 33.6473 193.926C33.6473 193.926 33.6473 193.804 33.6473 193.62C33.646 193.509 33.6558 193.399 33.6765 193.29C33.6765 193.178 33.7638 193.023 33.8657 193.076C33.9676 193.13 33.9725 193.3 33.9725 193.411C33.9638 193.519 33.9324 193.623 33.8803 193.717C33.8165 193.804 33.7433 193.884 33.6619 193.955Z" fill="#263238"/>
<path d="M28.1738 188.758C28.1738 188.758 28.3388 188.869 28.5572 189.097C28.8414 189.398 29.0377 189.771 29.1249 190.175C29.2053 190.58 29.1717 191 29.0279 191.388C28.9163 191.689 28.7949 191.849 28.8095 191.873C28.846 191.841 28.8771 191.803 28.9017 191.762C28.974 191.657 29.0343 191.545 29.0812 191.427C29.249 191.032 29.293 190.595 29.2074 190.175C29.1198 189.755 28.9085 189.372 28.6008 189.073C28.5091 188.984 28.4083 188.904 28.3 188.835C28.2633 188.802 28.2205 188.775 28.1738 188.758Z" fill="#263238"/>
<path d="M30.5904 186.986C30.2457 187.321 29.9216 187.675 29.6199 188.049C29.2995 188.405 28.9983 188.777 28.7173 189.165C29.0642 188.835 29.3884 188.481 29.6878 188.107C30.0076 187.749 30.3088 187.375 30.5904 186.986Z" fill="#263238"/>
<path d="M29.9014 191.936C30.1087 192.208 30.3501 192.453 30.6195 192.664C30.8715 192.898 31.1538 193.097 31.459 193.256C31.459 193.256 31.1048 192.965 30.6778 192.601C30.2507 192.237 29.9208 191.902 29.9014 191.936Z" fill="#263238"/>
<path d="M28.8532 191.058C28.8532 191.058 28.8192 191.155 28.7901 191.266C28.761 191.378 28.7173 191.461 28.7367 191.475C28.7562 191.49 28.8338 191.417 28.8726 191.286C28.9114 191.155 28.8775 191.053 28.8532 191.058Z" fill="#263238"/>
<path d="M28.8678 190.233C28.8436 190.233 28.8339 190.32 28.8436 190.422C28.8533 190.524 28.8775 190.607 28.9018 190.607C28.9261 190.607 28.9358 190.519 28.9018 190.417C28.8678 190.315 28.8921 190.233 28.8678 190.233Z" fill="#263238"/>
<path d="M28.4893 189.534C28.4893 189.558 28.5523 189.616 28.6057 189.709C28.6591 189.801 28.6834 189.893 28.7076 189.893C28.7319 189.893 28.7464 189.781 28.6785 189.665C28.6106 189.549 28.499 189.515 28.4893 189.534Z" fill="#263238"/>
<path d="M28.1738 189.092C28.1738 189.092 28.1738 189.16 28.1738 189.214C28.1738 189.267 28.2466 189.301 28.266 189.291C28.2854 189.282 28.266 189.223 28.266 189.17C28.266 189.117 28.1932 189.083 28.1738 189.092Z" fill="#263238"/>
<path d="M47.8411 115.519C47.8411 115.519 45.5167 125.35 46.1767 127.296C46.8366 129.242 51.0923 130.362 51.0923 130.362L50.9467 157.289L27.4023 186.404L36.0883 193.508C36.0883 193.508 61.5834 164.349 63.8301 159.055C66.0768 153.761 62.3743 115.067 62.3743 115.067L47.8411 115.519Z" fill="#263238"/>
<path d="M59.8653 111.511L61.0153 193.285L49.0442 193.358L43.0319 126.743C41.7606 125.53 39.97 123.453 40.2175 118.819L40.5086 113.437L59.8653 111.511Z" fill="#263238"/>
<path d="M47.249 161.841C47.2665 161.798 47.2893 161.757 47.317 161.719C47.38 161.632 47.4528 161.52 47.545 161.385L48.433 160.128L51.6842 155.625V155.688C51.4222 152.849 51.1068 149.409 50.7671 145.696C50.3304 140.844 49.981 136.428 49.7723 133.23C49.6656 131.634 49.5976 130.343 49.5588 129.45C49.5588 129.023 49.5297 128.679 49.5248 128.417C49.51 128.297 49.51 128.177 49.5248 128.058C49.5483 128.176 49.5629 128.296 49.5685 128.417C49.5685 128.674 49.617 129.018 49.651 129.445C49.7238 130.363 49.8208 131.644 49.947 133.221C50.1993 136.409 50.5778 140.81 51.0146 145.672C51.3397 149.399 51.6697 152.835 51.888 155.688V155.722V155.751L48.5641 160.196L47.6275 161.423L47.3752 161.739C47.2733 161.816 47.249 161.846 47.249 161.841Z" fill="#455A64"/>
<path d="M50.9174 128.058C49.8462 128.001 48.7832 127.838 47.7438 127.572C46.6866 127.394 45.6496 127.111 44.6479 126.728C45.7087 126.864 46.7603 127.063 47.7972 127.325C48.8504 127.509 49.8921 127.754 50.9174 128.058Z" fill="#455A64"/>
<path d="M59.1182 155.993C58.0849 155.565 56.9974 155.281 55.8864 155.149C54.7672 155.104 53.647 155.213 52.5576 155.474C52.8421 155.295 53.1584 155.171 53.4893 155.11C54.2804 154.904 55.1005 154.832 55.9155 154.897C56.7254 154.962 57.5189 155.16 58.2642 155.484C58.5771 155.601 58.8663 155.774 59.1182 155.993Z" fill="#455A64"/>
<path d="M63.3448 159.769C63.3982 159.813 60.0306 164.335 55.8186 169.867C51.6066 175.399 48.1468 179.858 48.0934 179.819C48.04 179.781 51.4077 175.253 55.6196 169.717C59.8316 164.18 63.2914 159.725 63.3448 159.769Z" fill="#455A64"/>
<path d="M61.724 117.581C61.586 117.935 61.3525 118.244 61.0495 118.474C60.7027 118.778 60.2969 119.006 59.8575 119.146C59.4181 119.285 58.9547 119.332 58.4962 119.284C58.0378 119.235 57.5943 119.093 57.1936 118.865C56.7929 118.637 56.4437 118.329 56.1679 117.959C55.911 117.676 55.7424 117.323 55.6826 116.945C55.8694 117.256 56.0735 117.556 56.294 117.843C56.8486 118.515 57.6451 118.943 58.5118 119.034C59.3786 119.124 60.2463 118.871 60.9282 118.328C61.2063 118.093 61.4719 117.844 61.724 117.581Z" fill="#455A64"/>
<path d="M45.3567 75.5053C43.384 73.631 42.2209 71.0608 42.1149 68.3419C42.0088 65.6229 42.9683 62.9699 44.7889 60.9478" fill="#263238"/>
<path d="M38.6259 83.1333C38.6259 83.1333 36.025 86.0739 35.4863 97.3172C35.4863 97.3172 42.8961 98.7244 43.032 98.3216C43.1678 97.9189 38.6259 83.1333 38.6259 83.1333Z" fill="#A6DA99"/>
<g opacity="0.3">
<path d="M38.6259 83.1333C38.6259 83.1333 36.025 86.0739 35.4863 97.3172C35.4863 97.3172 42.8961 98.7244 43.032 98.3216C43.1678 97.9189 38.6259 83.1333 38.6259 83.1333Z" fill="black"/>
</g>
<path d="M39.8297 115.883H62.5831L62.2143 112.326C62.2143 112.326 59.6134 98.8066 59.6328 98.627L60.0404 97.7681C60.572 96.6529 60.8564 95.4359 60.874 94.2006C60.8916 92.9652 60.642 91.7406 60.1423 90.6107L71.3031 86.8015L68.5759 77.6108C63.5196 78.46 55.8769 79.416 55.8769 79.416L54.7414 79.5082C54.7414 79.5082 46.8513 79.9206 46.6814 79.94C43.3817 80.3428 39.5434 80.5951 38.141 84.1277C37.3889 86.0154 38.1022 88.8492 39.3299 91.7704L42.2414 100.748C43.406 105.683 41.5475 105.445 40.5236 110.414C40.3586 111.161 39.8151 115.193 39.8297 115.883Z" fill="#A6DA99"/>
<g opacity="0.3">
<path d="M39.8297 115.883H62.5831L62.2143 112.326C62.2143 112.326 59.6134 98.8066 59.6328 98.627L60.0404 97.7681C60.572 96.6529 60.8564 95.4359 60.874 94.2006C60.8916 92.9652 60.642 91.7406 60.1423 90.6107L71.3031 86.8015L68.5759 77.6108C63.5196 78.46 55.8769 79.416 55.8769 79.416L54.7414 79.5082C54.7414 79.5082 46.8513 79.9206 46.6814 79.94C43.3817 80.3428 39.5434 80.5951 38.141 84.1277C37.3889 86.0154 38.1022 88.8492 39.3299 91.7704L42.2414 100.748C43.406 105.683 41.5475 105.445 40.5236 110.414C40.3586 111.161 39.8151 115.193 39.8297 115.883Z" fill="black"/>
</g>
<path d="M71.1766 86.9521C71.0227 87.0387 70.8601 87.1087 70.6914 87.1608C70.3711 87.2773 69.9004 87.4374 69.3181 87.6461C68.1535 88.0391 66.5328 88.5583 64.747 89.1309C62.9613 89.7035 61.3503 90.2713 60.2342 90.7371C59.6616 90.97 59.2103 91.1738 58.8949 91.3097C58.7419 91.3944 58.5789 91.4596 58.4097 91.5038C58.5506 91.3917 58.7036 91.2957 58.8658 91.2175C59.1715 91.0574 59.6131 90.8244 60.176 90.5721C61.647 89.931 63.1519 89.3705 64.684 88.8932C66.4745 88.3206 68.0807 87.8256 69.2793 87.4762C69.8664 87.3015 70.3468 87.1657 70.6768 87.0735C70.8377 87.0124 71.0056 86.9716 71.1766 86.9521Z" fill="#263238"/>
<path d="M69.8565 82.0559C69.8565 82.1238 63.1261 82.182 54.8138 82.182C46.5014 82.182 39.771 82.1238 39.771 82.0559C39.771 81.9879 46.4966 81.9297 54.8138 81.9297C63.131 81.9297 69.8565 81.9879 69.8565 82.0559Z" fill="#FAFAFA"/>
<path d="M70.5412 86.5251C70.5412 86.593 63.0537 86.6513 53.8194 86.6513C44.5851 86.6513 37.1025 86.593 37.1025 86.5251C37.1025 86.4572 44.5851 86.3989 53.8194 86.3989C63.0537 86.3989 70.5412 86.4572 70.5412 86.5251Z" fill="#FAFAFA"/>
<path d="M38.9997 91.6104C38.5448 91.7338 38.0718 91.7765 37.6021 91.7366C37.1341 91.7763 36.6627 91.7336 36.2095 91.6104C36.6627 91.4872 37.1341 91.4445 37.6021 91.4842C38.0718 91.4443 38.5448 91.487 38.9997 91.6104Z" fill="#FAFAFA"/>
<path d="M60.8361 91.7658C60.8361 91.8337 55.9399 91.892 49.9034 91.892C43.8669 91.892 38.9707 91.8337 38.9707 91.7658C38.9707 91.6979 43.862 91.6396 49.9034 91.6396C55.9448 91.6396 60.8361 91.693 60.8361 91.7658Z" fill="#FAFAFA"/>
<path d="M60.3505 97.0017C60.3505 97.0744 55.9542 97.1278 50.5388 97.1278C45.1234 97.1278 40.7222 97.0744 40.7222 97.0017C40.7222 96.9289 45.1137 96.8755 50.5388 96.8755C55.9639 96.8755 60.3505 96.9337 60.3505 97.0017Z" fill="#FAFAFA"/>
<path d="M60.2146 101.859C60.2146 101.927 56.2355 101.985 51.3248 101.985C46.4141 101.985 42.4253 101.927 42.4253 101.859C42.4253 101.791 46.4092 101.733 51.3248 101.733C56.2404 101.733 60.2146 101.786 60.2146 101.859Z" fill="#FAFAFA"/>
<path d="M60.9959 105.785C60.9959 105.858 56.7354 105.911 51.4801 105.911C46.2249 105.911 41.9644 105.858 41.9644 105.785C41.9644 105.712 46.2249 105.659 51.4801 105.659C56.7354 105.659 60.9959 105.717 60.9959 105.785Z" fill="#FAFAFA"/>
<path d="M62.2285 110.793C62.2285 110.865 57.376 110.919 51.4026 110.919C45.4292 110.919 40.5767 110.865 40.5767 110.793C40.5767 110.72 45.4292 110.667 51.4026 110.667C57.376 110.667 62.2285 110.725 62.2285 110.793Z" fill="#FAFAFA"/>
<path d="M42.0905 100.326C41.9989 100.189 41.9301 100.038 41.8867 99.8791L41.4015 98.6369C40.9987 97.5887 40.431 96.1427 39.8487 94.5268C39.2664 92.9109 38.7763 91.4358 38.4706 90.3536C38.3201 89.8102 38.2037 89.3832 38.1406 89.0629C38.0939 88.905 38.0662 88.7421 38.0581 88.5776C38.2826 89.1411 38.477 89.7161 38.6404 90.3003C38.9898 91.3678 39.4993 92.8333 40.0962 94.4443C40.693 96.0553 41.2171 97.5111 41.5519 98.5786C41.7315 99.1124 41.8673 99.5491 41.9547 99.85C42.02 100.002 42.0657 100.162 42.0905 100.326Z" fill="#263238"/>
<path d="M35.6116 21.7268C28.9098 17.6537 20.175 19.7846 16.1019 26.4864C12.0288 33.1882 14.1597 41.9229 20.8615 45.996C27.5632 50.0692 36.298 47.9382 40.3711 41.2365C44.4443 34.5347 42.3133 25.7999 35.6116 21.7268Z" fill="#A6DA99"/>
<path d="M32.4208 43.7004L41.6467 51.1267L37.4557 39.9219L32.4208 43.7004Z" fill="#A6DA99"/>
<path opacity="0.77" d="M30.7807 35.308C31.1267 35.4435 31.3004 35.8339 31.0932 36.1374C30.8567 36.4836 30.5514 36.7823 30.193 37.0142C29.6458 37.3683 29.0012 37.5498 28.3458 37.5342C27.6903 37.5188 27.0555 37.3071 26.5262 36.9276C26.1796 36.679 25.8893 36.3663 25.6701 36.0093C25.478 35.6964 25.6707 35.3147 26.0229 35.1956C26.3751 35.0766 26.7516 35.2724 26.9898 35.5533C27.087 35.6679 27.1985 35.771 27.3226 35.8599C27.6296 36.0801 27.998 36.2029 28.3782 36.2119C28.7585 36.2209 29.1325 36.1156 29.45 35.9102C29.5782 35.8271 29.6948 35.7295 29.7975 35.6196C30.0492 35.3503 30.4348 35.1725 30.7807 35.308Z" fill="white"/>
<path opacity="0.77" d="M26.7119 31.2018C26.7119 30.7646 26.4617 30.4102 26.1531 30.4102C25.8444 30.4102 25.5942 30.7646 25.5942 31.2018V31.9935C25.5942 32.4307 25.8444 32.7852 26.1531 32.7852C26.4617 32.7852 26.7119 32.4307 26.7119 31.9935V31.2018Z" fill="white"/>
<path opacity="0.77" d="M32.2998 31.2018C32.2998 30.7646 32.0496 30.4102 31.741 30.4102C31.4323 30.4102 31.1821 30.7646 31.1821 31.2018V31.9935C31.1821 32.4307 31.4323 32.7852 31.741 32.7852C32.0496 32.7852 32.2998 32.4307 32.2998 31.9935V31.2018Z" fill="white"/>
<path opacity="0.77" fill-rule="evenodd" clip-rule="evenodd" d="M18.8882 33.9727C18.8882 28.7259 23.1415 24.4727 28.3882 24.4727C33.6348 24.4727 37.8882 28.7259 37.8882 33.9727C37.8882 39.2193 33.6348 43.4727 28.3882 43.4727C23.1415 43.4727 18.8882 39.2193 18.8882 33.9727ZM28.3882 26.3727C24.1908 26.3727 20.7882 29.7753 20.7882 33.9727C20.7882 38.17 24.1908 41.5727 28.3882 41.5727C32.5856 41.5727 35.9882 38.17 35.9882 33.9727C35.9882 29.7753 32.5856 26.3727 28.3882 26.3727Z" fill="white"/>
</svg>
