<svg width="201" height="188" viewBox="0 0 201 188" fill="none" xmlns="http://www.w3.org/2000/svg">
<path d="M2.16821 175.094V186.648H4.8335C4.69374 185.432 4.69374 184.204 4.8335 182.989C5.08667 181.631 7.98212 178.123 7.89466 175.112L2.16821 175.094Z" fill="#EBEBEB"/>
<path d="M23.4905 175.094V186.648H26.1558C26.016 185.432 26.016 184.204 26.1558 182.989C26.4089 181.631 29.3044 178.123 29.2169 175.112L23.4905 175.094Z" fill="#E0E0E0"/>
<path d="M44.3617 175.094V186.648H41.6918C41.829 185.432 41.829 184.205 41.6918 182.989C41.434 181.631 38.5432 178.123 38.626 175.112L44.3617 175.094Z" fill="#EBEBEB"/>
<path d="M62.8114 175.094V186.648H60.1461C60.2834 185.432 60.2834 184.205 60.1461 182.989C59.8929 181.631 56.9975 178.123 57.0849 175.112L62.8114 175.094Z" fill="#E0E0E0"/>
<path d="M64.2108 118.119H0.354492V175.462H64.2108V118.119Z" fill="#F5F5F5"/>
<path d="M47.0085 118.119L47.4827 175.462H64.2109V118.119H47.0085Z" fill="#E0E0E0"/>
<path d="M44.2236 122.341H3.22705V136.933H44.2236V122.341Z" fill="#EBEBEB"/>
<path d="M44.2236 139.838H3.22705V154.43H44.2236V139.838Z" fill="#EBEBEB"/>
<path d="M44.2236 157.339H3.22705V171.931H44.2236V157.339Z" fill="#EBEBEB"/>
<path d="M18.9425 101.644L17.1748 118.055H39.832L41.7101 101.644H18.9425Z" fill="#E0E0E0"/>
<path d="M19.8769 102.823L18.1553 117.18H38.6029L40.2555 102.823H19.8769Z" fill="white"/>
<path d="M23.3156 105.24L22.2568 114.768H35.1597L35.8226 105.24H23.3156Z" fill="#EBEBEB"/>
<path d="M40.9 108.71L45.5815 118.119L39.832 118.055L40.9 108.71Z" fill="#EBEBEB"/>
<path d="M25.2259 130.396C25.2268 130.693 25.1396 130.984 24.9753 131.231C24.8109 131.479 24.5769 131.672 24.3027 131.786C24.0286 131.9 23.7267 131.931 23.4353 131.873C23.1439 131.816 22.8761 131.674 22.6658 131.464C22.4554 131.254 22.3121 130.987 22.2538 130.696C22.1955 130.404 22.225 130.102 22.3384 129.828C22.4518 129.553 22.6442 129.319 22.8911 129.154C23.1379 128.989 23.4283 128.9 23.7253 128.9C24.1225 128.9 24.5035 129.058 24.7848 129.338C25.0661 129.619 25.2247 129.999 25.2259 130.396Z" fill="#E0E0E0"/>
<path d="M25.2259 148.073C25.2259 148.369 25.1379 148.66 24.973 148.906C24.8081 149.153 24.5738 149.346 24.2995 149.459C24.0253 149.573 23.7236 149.602 23.4325 149.545C23.1414 149.487 22.874 149.344 22.6641 149.134C22.4543 148.924 22.3113 148.657 22.2534 148.365C22.1955 148.074 22.2253 147.773 22.3388 147.498C22.4524 147.224 22.6448 146.99 22.8915 146.825C23.1383 146.66 23.4285 146.572 23.7253 146.572C23.9225 146.571 24.1179 146.61 24.3003 146.685C24.4826 146.76 24.6483 146.871 24.7878 147.01C24.9272 147.15 25.0377 147.315 25.1129 147.498C25.1881 147.68 25.2265 147.875 25.2259 148.073Z" fill="#E0E0E0"/>
<path d="M25.2259 165.745C25.2259 166.042 25.1379 166.332 24.973 166.579C24.8081 166.825 24.5738 167.018 24.2995 167.131C24.0253 167.245 23.7236 167.275 23.4325 167.217C23.1414 167.159 22.874 167.016 22.6641 166.806C22.4543 166.596 22.3113 166.329 22.2534 166.038C22.1955 165.746 22.2253 165.445 22.3388 165.171C22.4524 164.896 22.6448 164.662 22.8915 164.497C23.1383 164.332 23.4285 164.244 23.7253 164.244C24.1233 164.244 24.505 164.402 24.7864 164.684C25.0678 164.965 25.2259 165.347 25.2259 165.745Z" fill="#E0E0E0"/>
<path d="M44.1592 24.9036L7.95459 24.5537L8.9627 71.737L45.1673 71.8705L44.1592 24.9036Z" fill="#E0E0E0"/>
<path d="M41.8252 27.0074L10.1318 26.188L11.0479 68.9798L42.7321 69.3711L41.8252 27.0074Z" fill="#FAFAFA"/>
<path d="M36.4163 33.4011L15.384 33.0513L16.0285 62.9632L37.0377 62.5121L36.4163 33.4011Z" fill="#EBEBEB"/>
<path d="M16.0285 62.9632L36.7109 47.1464L15.384 33.0513L16.0285 62.9632Z" fill="#F5F5F5"/>
<path d="M199.956 0.308419L168.189 0L169.077 41.397L200.835 41.5121L199.956 0.308419Z" fill="#E0E0E0"/>
<path d="M197.903 2.15899L170.099 1.43628L170.905 38.9758L198.699 39.3164L197.903 2.15899Z" fill="#FAFAFA"/>
<path d="M193.157 7.76569L174.712 7.45728L175.274 33.6958L193.705 33.3045L193.157 7.76569Z" fill="#EBEBEB"/>
<path d="M175.274 33.6958L193.42 19.8216L174.712 7.45728L175.274 33.6958Z" fill="#F5F5F5"/>
<path d="M164.373 155.944C164.239 156.349 168.976 174.357 168.976 174.357L172.226 173.681L167.756 155.944H164.373Z" fill="#EBEBEB"/>
<path d="M189.557 153.371L183.058 174.357H186.851L193.079 154.863L189.557 153.371Z" fill="#F5F5F5"/>
<path d="M195.514 150.121L188.066 174.357H191.859L199.035 151.613L195.514 150.121Z" fill="#EBEBEB"/>
<path d="M166.675 172.871L170.468 186.004H189.557L193.079 172.871H166.675Z" fill="#E0E0E0"/>
<path d="M176.521 172.87C176.504 172.825 176.49 172.779 176.479 172.732L176.378 172.332C176.291 171.964 176.171 171.443 176.015 170.78L174.703 165.045L170.417 145.918L170.532 146.015H167.19L167.305 145.868C169.004 153.394 170.527 160.138 171.618 165.008C172.152 167.434 172.585 169.39 172.889 170.762C173.027 171.43 173.142 171.95 173.22 172.323C173.253 172.493 173.28 172.626 173.299 172.728C173.306 172.775 173.306 172.823 173.299 172.87C173.282 172.825 173.268 172.779 173.257 172.732C173.23 172.631 173.197 172.498 173.156 172.332C173.064 171.964 172.94 171.443 172.778 170.78C172.461 169.4 172.005 167.462 171.439 165.045C170.32 160.175 168.778 153.44 167.057 145.918L167.02 145.776H170.61L170.633 145.868C172.286 153.394 173.773 160.138 174.845 165.008C175.365 167.434 175.789 169.39 176.084 170.762C176.222 171.43 176.328 171.95 176.406 172.323L176.484 172.728C176.504 172.773 176.516 172.821 176.521 172.87Z" fill="#E0E0E0"/>
<path d="M195.178 186.551C195.178 186.616 151.475 186.671 97.5889 186.671C43.7033 186.671 0 186.616 0 186.551C0 186.487 43.6941 186.432 97.6119 186.432C151.53 186.432 195.178 186.487 195.178 186.551Z" fill="#263238"/>
<path d="M182.611 60.9103C182.506 60.8659 182.396 60.832 182.284 60.8091C181.955 60.735 181.614 60.735 181.285 60.8091C180.752 60.9462 180.257 61.201 179.835 61.5548C179.262 62.0511 178.766 62.6297 178.362 63.2718C177.419 64.7172 176.677 66.715 175.812 69.0443C174.811 71.7041 173.944 74.4127 173.216 77.1598C173.08 77.4132 172.899 77.6395 172.682 77.8273C172.57 77.9295 172.437 78.0062 172.292 78.0523C172.147 78.0984 171.995 78.1127 171.844 78.0943C171.548 78.019 171.281 77.859 171.075 77.6339C170.859 77.436 170.656 77.2243 170.454 77.0079C170.054 76.5684 169.628 76.1534 169.179 75.765C168.744 75.347 168.166 75.1114 167.563 75.1068C167.261 75.1582 166.974 75.2725 166.719 75.4422C166.465 75.6119 166.249 75.8332 166.085 76.0919C165.759 76.6511 165.583 77.2855 165.574 77.9332C165.496 79.2497 165.878 80.58 166.108 81.9564C166.339 83.3328 166.629 84.746 166.896 86.1868C167.034 86.9095 167.167 87.6368 167.305 88.3733L167.512 89.4873C167.576 89.6819 167.596 89.8877 167.573 90.091C167.55 90.2943 167.484 90.4903 167.379 90.6658C167.31 90.7581 167.214 90.8273 167.105 90.8643C166.996 90.9013 166.878 90.9043 166.767 90.8729C166.568 90.8151 166.382 90.7197 166.219 90.5921L165.298 89.8924C164.672 89.4189 164.02 88.9795 163.346 88.5759C162.672 88.1562 161.936 87.8455 161.164 87.6552C160.783 87.5654 160.386 87.5654 160.004 87.6552C159.625 87.7513 159.29 87.9757 159.056 88.2905C158.613 88.9737 158.396 89.7788 158.435 90.5921C158.436 91.4296 158.518 92.2651 158.679 93.0871C159.011 94.7766 159.48 96.4363 160.083 98.0494C160.258 98.4617 160.392 98.8904 160.483 99.3291C160.505 99.4533 160.501 99.5808 160.472 99.7035C160.443 99.8263 160.389 99.9417 160.313 100.043C160.272 100.09 160.227 100.135 160.179 100.176C160.127 100.223 160.066 100.259 160 100.282C159.86 100.303 159.716 100.27 159.599 100.19C159.217 99.9445 158.861 99.6607 158.536 99.3429L157.551 98.4222C156.906 97.7977 156.205 97.2337 155.456 96.7374C155.084 96.4924 154.675 96.3061 154.246 96.185C154.042 96.1217 153.827 96.1026 153.615 96.1287C153.403 96.1549 153.199 96.2259 153.017 96.337C152.661 96.5951 152.414 96.9754 152.322 97.4049C152.211 97.8443 152.155 98.2959 152.156 98.7491C152.16 99.6802 152.276 100.607 152.501 101.511C152.956 103.347 153.628 105.123 154.504 106.8C155.375 108.52 156.37 110.174 157.482 111.749C158.038 112.548 158.637 113.316 159.277 114.05C159.894 114.814 160.52 115.574 161.146 116.352V116.38L161.036 116.333L163.963 115.91C164.933 115.794 165.897 115.628 166.849 115.413C168.728 114.99 170.574 114.435 172.373 113.751C174.149 113.095 175.841 112.231 177.414 111.178C178.186 110.666 178.893 110.062 179.518 109.378C179.826 109.043 180.09 108.67 180.305 108.269C180.524 107.889 180.596 107.441 180.507 107.012C180.448 106.806 180.346 106.616 180.207 106.453C180.068 106.29 179.896 106.159 179.702 106.068C179.302 105.873 178.875 105.736 178.436 105.663C177.548 105.529 176.65 105.475 175.752 105.502H174.408C173.946 105.52 173.483 105.491 173.027 105.415C172.886 105.396 172.757 105.324 172.668 105.212C172.634 105.149 172.614 105.08 172.608 105.009C172.601 104.947 172.601 104.883 172.608 104.821C172.622 104.696 172.661 104.575 172.722 104.465C172.782 104.356 172.864 104.259 172.963 104.181C173.325 103.919 173.712 103.692 174.118 103.504C175.65 102.717 177.114 101.804 178.496 100.774C179.164 100.276 179.781 99.7115 180.337 99.0897C180.912 98.5149 181.292 97.7743 181.423 96.9722C181.462 96.5816 181.364 96.1898 181.147 95.8628C180.927 95.5384 180.634 95.2704 180.291 95.0803C179.597 94.6985 178.846 94.4297 178.068 94.2839C177.298 94.1288 176.52 94.0166 175.738 93.9479L174.578 93.8374C174.371 93.8255 174.169 93.7707 173.985 93.6763C173.882 93.6232 173.797 93.5403 173.742 93.4385C173.687 93.3367 173.664 93.2206 173.676 93.1055C173.718 92.9061 173.802 92.7178 173.922 92.5529C174.042 92.3879 174.195 92.25 174.371 92.148L175.292 91.4667L177.064 90.118L180.489 87.5171C181.589 86.6563 182.763 85.929 183.592 84.8979C184.015 84.4159 184.307 83.8322 184.439 83.2039C184.492 82.9019 184.481 82.592 184.407 82.2945C184.332 81.9971 184.195 81.7187 184.006 81.4777C183.805 81.2556 183.544 81.0958 183.255 81.0173C182.967 80.9315 182.668 80.882 182.367 80.87C181.774 80.8545 181.181 80.876 180.59 80.9345C180.296 80.9345 180.001 80.9759 179.711 80.9805C179.409 81.0031 179.107 80.9376 178.841 80.7918C178.714 80.7058 178.607 80.5935 178.528 80.4624C178.448 80.3313 178.398 80.1845 178.381 80.0322C178.347 79.7461 178.364 79.4562 178.431 79.176C179.749 76.6798 180.94 74.1187 181.999 71.5024C182.919 69.2008 183.716 67.2214 184.001 65.5182C184.141 64.7747 184.172 64.015 184.093 63.2626C184.034 62.7157 183.849 62.1897 183.555 61.7251C183.376 61.4408 183.134 61.2027 182.846 61.03C182.748 60.9701 182.645 60.9192 182.537 60.8781C182.649 60.9081 182.756 60.953 182.855 61.0116C183.151 61.1809 183.403 61.4174 183.592 61.7021C183.892 62.1705 184.082 62.7009 184.149 63.2534C184.238 64.0122 184.215 64.78 184.079 65.532C183.803 67.2398 183.021 69.2146 182.105 71.5162C181.068 74.1625 179.897 76.7544 178.597 79.2819C178.533 79.5408 178.518 79.8092 178.551 80.0737C178.563 80.2039 178.604 80.33 178.669 80.4435C178.734 80.557 178.822 80.6553 178.928 80.7319C179.169 80.8591 179.44 80.915 179.711 80.893C179.996 80.893 180.286 80.8654 180.581 80.8424C181.179 80.7821 181.78 80.759 182.381 80.7734C182.693 80.7857 183.002 80.8368 183.302 80.9253C183.618 81.0095 183.905 81.18 184.13 81.4178C184.331 81.6758 184.475 81.9728 184.555 82.2899C184.634 82.6069 184.646 82.9371 184.59 83.2591C184.457 83.9186 184.152 84.5314 183.707 85.036C182.855 86.0947 181.672 86.8312 180.581 87.6967L177.161 90.3021L175.393 91.6462L174.495 92.3321C174.344 92.4335 174.206 92.5542 174.086 92.6912C173.975 92.8227 173.902 92.9818 173.874 93.1515C173.866 93.228 173.882 93.3052 173.919 93.3727C173.956 93.4401 174.012 93.4947 174.081 93.529C174.244 93.6078 174.421 93.6532 174.601 93.6625L175.761 93.7729C176.55 93.84 177.334 93.9522 178.109 94.109C178.914 94.2574 179.691 94.5324 180.411 94.9238C180.778 95.1348 181.092 95.4259 181.331 95.7754C181.571 96.1415 181.681 96.5775 181.644 97.0136C181.508 97.8623 181.11 98.6473 180.507 99.26C179.936 99.8924 179.303 100.467 178.62 100.977C177.229 102.016 175.756 102.94 174.215 103.739C173.823 103.917 173.45 104.132 173.101 104.383C173.024 104.442 172.96 104.516 172.913 104.599C172.866 104.683 172.835 104.776 172.825 104.871C172.82 104.917 172.82 104.964 172.825 105.009C172.825 105.046 172.825 105.134 172.857 105.129C172.916 105.182 172.99 105.216 173.068 105.226C173.501 105.296 173.938 105.323 174.376 105.309H175.72C176.631 105.276 177.544 105.329 178.445 105.47C178.91 105.542 179.36 105.687 179.78 105.898C180.002 106.004 180.199 106.156 180.358 106.344C180.516 106.532 180.633 106.752 180.701 106.989C180.805 107.473 180.726 107.978 180.48 108.407C180.257 108.825 179.982 109.214 179.66 109.562C179.023 110.261 178.303 110.88 177.515 111.403C175.928 112.471 174.219 113.344 172.424 114.004C170.61 114.696 168.749 115.256 166.854 115.68C165.898 115.897 164.932 116.062 163.959 116.177L161.026 116.605H160.957L160.916 116.55H160.893L159.024 114.248C158.385 113.513 157.784 112.744 157.224 111.947C156.104 110.36 155.101 108.694 154.223 106.961C153.343 105.266 152.668 103.472 152.211 101.617C151.978 100.701 151.859 99.759 151.857 98.8135C151.857 98.3386 151.916 97.8655 152.032 97.4049C152.14 96.9225 152.422 96.4967 152.823 96.2081C153.033 96.0784 153.268 95.995 153.512 95.9632C153.757 95.9315 154.005 95.9522 154.241 96.0239C154.692 96.1515 155.12 96.3471 155.512 96.6039C156.272 97.1071 156.984 97.6804 157.638 98.3163L158.623 99.237C158.937 99.5411 159.279 99.814 159.645 100.052C159.711 100.099 159.79 100.125 159.871 100.125C159.871 100.125 159.94 100.084 159.972 100.061L160.073 99.9597C160.129 99.882 160.169 99.7938 160.189 99.7004C160.21 99.6071 160.211 99.5105 160.193 99.4165C160.106 98.9949 159.976 98.5831 159.807 98.1875C159.201 96.5623 158.73 94.8904 158.398 93.1883C158.234 92.3528 158.153 91.5033 158.154 90.6519C158.117 89.7913 158.353 88.941 158.826 88.2214C159.088 87.872 159.462 87.6221 159.885 87.5125C160.298 87.416 160.728 87.416 161.141 87.5125C161.932 87.6996 162.689 88.0103 163.383 88.4332C164.065 88.8381 164.723 89.2823 165.353 89.7635L166.274 90.4632C166.411 90.5743 166.567 90.66 166.734 90.7164C166.809 90.7381 166.888 90.7365 166.961 90.7118C167.034 90.6871 167.098 90.6405 167.144 90.5783C167.235 90.4412 167.287 90.2822 167.296 90.118C167.301 89.935 167.281 89.7523 167.236 89.5748C167.167 89.2019 167.103 88.8337 167.034 88.4654C166.896 87.7289 166.762 86.997 166.629 86.2789C166.366 84.8334 166.104 83.4248 165.851 82.0485C165.597 80.6721 165.243 79.3371 165.321 77.9792C165.335 77.3063 165.522 76.6482 165.864 76.0688C166.042 75.7885 166.277 75.5491 166.554 75.3666C166.831 75.184 167.143 75.0625 167.471 75.0101C167.797 74.9833 168.124 75.0487 168.415 75.1988C168.697 75.3359 168.962 75.5075 169.202 75.7098C169.657 76.1031 170.088 76.5244 170.491 76.9711C170.687 77.1859 170.89 77.393 171.098 77.5925C171.286 77.791 171.525 77.9329 171.789 78.0022C171.919 78.0168 172.051 78.0033 172.175 77.9629C172.3 77.9224 172.415 77.8558 172.511 77.7674C172.713 77.5935 172.882 77.3845 173.009 77.1506C173.746 74.3989 174.625 71.687 175.642 69.0259C176.516 66.7012 177.271 64.6988 178.233 63.2534C178.645 62.6077 179.15 62.0274 179.734 61.5318C180.163 61.1759 180.669 60.9239 181.212 60.7953C181.545 60.7167 181.891 60.7167 182.224 60.7953C182.359 60.8114 182.49 60.8503 182.611 60.9103Z" fill="#263238"/>
<path d="M180.194 67.1709C180.186 67.2235 180.171 67.2747 180.148 67.3228L179.992 67.7555C179.84 68.1468 179.628 68.7038 179.361 69.4081C178.799 70.8581 178.003 72.9342 177.018 75.489L169.372 95.5776C166.398 103.403 163.673 110.524 161.657 115.643C160.653 118.203 159.816 120.269 159.245 121.696C158.959 122.396 158.734 122.944 158.573 123.331C158.495 123.51 158.439 123.648 158.393 123.759L158.324 123.897C158.333 123.846 158.348 123.796 158.37 123.749C158.407 123.639 158.462 123.496 158.527 123.317C158.679 122.921 158.89 122.368 159.157 121.66C159.719 120.21 160.515 118.138 161.5 115.583L169.146 95.5039C172.12 87.6554 174.841 80.5618 176.862 75.4429C177.865 72.8835 178.703 70.8121 179.274 69.3897C179.559 68.69 179.785 68.1376 179.946 67.7509C180.024 67.576 180.079 67.4333 180.125 67.3274L180.194 67.1709Z" fill="#263238"/>
<path d="M180.443 83.0752C180.079 83.3357 179.694 83.5652 179.292 83.7611L176.475 85.3262C175.37 85.9384 174.366 86.4862 173.625 86.8591C173.236 87.0802 172.824 87.2592 172.396 87.393C172.763 87.1372 173.148 86.908 173.547 86.7072L176.355 85.119C177.46 84.5068 178.468 83.9728 179.214 83.6092C179.605 83.3924 180.017 83.2136 180.443 83.0752Z" fill="#263238"/>
<path d="M172.023 87.0984C171.964 87.126 170.868 85.0361 169.579 82.4307C168.29 79.8252 167.278 77.6893 167.347 77.6571C167.416 77.6249 168.502 79.7194 169.796 82.3248C171.089 84.9302 172.083 87.0662 172.023 87.0984Z" fill="#263238"/>
<path d="M168 99.3567C167.633 99.0848 167.293 98.7763 166.988 98.436C166.389 97.8376 165.607 96.986 164.755 96.0009C163.903 95.0158 163.213 94.0859 162.725 93.3954C162.438 93.039 162.19 92.6533 161.984 92.2446C162.3 92.5732 162.592 92.924 162.859 93.2942C163.383 93.957 164.106 94.8639 164.939 95.8444C165.772 96.8249 166.546 97.6857 167.107 98.3163C167.431 98.6402 167.729 98.9879 168 99.3567Z" fill="#263238"/>
<path d="M176.42 97.3774C176.027 97.5346 175.62 97.6548 175.204 97.7365C174.449 97.9252 173.4 98.1692 172.24 98.427C171.08 98.6848 170.021 98.8873 169.257 99.053C168.847 99.1564 168.427 99.2196 168.005 99.2418C168.398 99.086 168.805 98.9673 169.22 98.8873C169.975 98.6986 171.025 98.427 172.189 98.1922C173.354 97.9574 174.403 97.7319 175.168 97.5708C175.578 97.4679 175.997 97.4032 176.42 97.3774Z" fill="#263238"/>
<path d="M174.242 108.655C173.731 108.832 173.208 108.972 172.677 109.074C171.701 109.3 170.376 109.599 168.866 109.912C167.356 110.225 166.016 110.501 165.036 110.685C164.511 110.811 163.977 110.895 163.438 110.938C163.949 110.76 164.472 110.62 165.004 110.52C165.975 110.294 167.305 109.995 168.815 109.682C170.325 109.369 171.66 109.093 172.64 108.908C173.167 108.783 173.703 108.698 174.242 108.655Z" fill="#263238"/>
<path d="M163.678 110.81C163.55 110.721 163.434 110.616 163.333 110.497C163.121 110.285 162.826 109.972 162.463 109.576C161.74 108.784 160.769 107.666 159.747 106.39C158.725 105.115 157.845 103.919 157.233 103.039C156.925 102.602 156.685 102.243 156.524 101.99C156.428 101.865 156.351 101.727 156.294 101.58C156.41 101.685 156.512 101.804 156.598 101.935L157.371 102.943C158.016 103.794 158.913 104.968 159.935 106.239C160.957 107.509 161.901 108.646 162.591 109.461C162.983 109.886 163.346 110.337 163.678 110.81Z" fill="#263238"/>
<path d="M159.075 141.647C151.083 135.202 149.923 124.187 150.927 114.423C151.097 112.794 151.033 111.058 151.907 109.677C152.782 108.296 154.669 107.445 156.082 108.232C157.256 108.885 157.684 110.335 158.283 111.546C159.084 113.164 160.325 114.524 161.864 115.468C162.868 116.08 164.134 116.499 165.197 116.002C166.661 115.321 166.96 113.387 167.061 111.762L167.627 102.676C167.729 101.046 167.839 99.3889 168.451 97.8837C169.064 96.3784 170.293 95.0204 171.853 94.689C173.414 94.3576 175.278 95.3887 175.494 96.9906C175.51 97.6671 175.479 98.3438 175.402 99.0161C175.402 99.6927 175.665 100.461 176.291 100.692C176.917 100.922 177.607 100.512 178.132 100.07C179.923 98.5465 181.202 96.5119 182.413 94.4819C183.624 92.4518 184.798 90.3712 186.445 88.6864C188.093 87.0016 190.289 85.7265 192.628 85.7541C194.966 85.7817 197.341 87.3883 197.774 89.7129C198.207 92.0375 196.711 94.2793 195.127 96.0332C192.776 98.6406 190.06 100.894 187.062 102.722C186.477 102.986 185.993 103.431 185.681 103.992C185.253 105.051 186.206 106.197 187.251 106.63C188.434 107.113 189.76 107.09 191.017 107.316C192.273 107.541 193.608 108.204 194.004 109.433C194.556 111.141 193.047 112.784 191.601 113.834C188.72 115.928 185.502 117.513 182.086 118.52C180.857 118.874 179.573 119.169 178.551 119.942C177.529 120.716 176.848 122.138 177.354 123.321C177.86 124.504 179.329 124.978 180.576 124.831C181.824 124.684 183.011 124.081 184.236 123.713C186.538 123.022 189.401 123.376 190.68 125.402C191.532 126.737 191.495 128.509 190.915 130.005C190.268 131.458 189.337 132.766 188.176 133.853C184.346 137.862 179.52 140.782 174.192 142.314C168.889 143.755 164.064 143.912 159.038 141.674" fill="#FC4B6C"/>
<g opacity="0.1">
<path d="M159.075 141.647C151.083 135.202 149.923 124.187 150.927 114.423C151.097 112.794 151.033 111.058 151.907 109.677C152.782 108.296 154.669 107.445 156.082 108.232C157.256 108.885 157.684 110.335 158.283 111.546C159.084 113.164 160.325 114.524 161.864 115.468C162.868 116.08 164.134 116.499 165.197 116.002C166.661 115.321 166.96 113.387 167.061 111.762L167.627 102.676C167.729 101.046 167.839 99.3889 168.451 97.8837C169.064 96.3784 170.293 95.0204 171.853 94.689C173.414 94.3576 175.278 95.3887 175.494 96.9906C175.51 97.6671 175.479 98.3438 175.402 99.0161C175.402 99.6927 175.665 100.461 176.291 100.692C176.917 100.922 177.607 100.512 178.132 100.07C179.923 98.5465 181.202 96.5119 182.413 94.4819C183.624 92.4518 184.798 90.3712 186.445 88.6864C188.093 87.0016 190.289 85.7265 192.628 85.7541C194.966 85.7817 197.341 87.3883 197.774 89.7129C198.207 92.0375 196.711 94.2793 195.127 96.0332C192.776 98.6406 190.06 100.894 187.062 102.722C186.477 102.986 185.993 103.431 185.681 103.992C185.253 105.051 186.206 106.197 187.251 106.63C188.434 107.113 189.76 107.09 191.017 107.316C192.273 107.541 193.608 108.204 194.004 109.433C194.556 111.141 193.047 112.784 191.601 113.834C188.72 115.928 185.502 117.513 182.086 118.52C180.857 118.874 179.573 119.169 178.551 119.942C177.529 120.716 176.848 122.138 177.354 123.321C177.86 124.504 179.329 124.978 180.576 124.831C181.824 124.684 183.011 124.081 184.236 123.713C186.538 123.022 189.401 123.376 190.68 125.402C191.532 126.737 191.495 128.509 190.915 130.005C190.268 131.458 189.337 132.766 188.176 133.853C184.346 137.862 179.52 140.782 174.192 142.314C168.889 143.755 164.064 143.912 159.038 141.674" fill="black"/>
</g>
<path d="M158.448 148.902C159.215 144.396 160.412 139.973 162.021 135.695C164.012 130.475 166.3 125.374 168.875 120.417L170.877 116.504C171.54 115.22 172.194 113.949 172.912 112.743C174.294 110.434 175.802 108.203 177.428 106.059C178.97 104.001 180.503 102.105 181.953 100.342C183.403 98.5788 184.793 96.9677 186.119 95.5499C188.201 93.3024 190.457 91.2229 192.867 89.3309C193.719 88.6634 194.395 88.1663 194.86 87.8348L195.39 87.462C195.448 87.4176 195.509 87.3776 195.574 87.3423C195.525 87.3973 195.47 87.4454 195.408 87.485L194.897 87.8855C194.437 88.2307 193.778 88.7417 192.941 89.4276C190.565 91.3475 188.337 93.4433 186.275 95.6972C184.963 97.1196 183.587 98.7399 182.132 100.503C180.678 102.266 179.163 104.186 177.635 106.229C176.018 108.366 174.521 110.592 173.151 112.895C172.438 114.096 171.77 115.358 171.13 116.642L169.128 120.555C166.56 125.503 164.269 130.59 162.265 135.792C160.65 140.052 159.438 144.453 158.642 148.938" fill="#263238"/>
<path d="M172.999 112.729C172.934 112.499 172.896 112.263 172.884 112.025C172.834 111.564 172.774 110.911 172.714 110.091C172.599 108.462 172.511 106.197 172.424 103.707C172.336 101.216 172.217 98.9562 172.074 97.3266C172.005 96.5165 171.945 95.8582 171.895 95.4025C171.853 95.167 171.839 94.9276 171.853 94.689C171.928 94.9149 171.98 95.1478 172.01 95.3841C172.092 95.8444 172.189 96.4934 172.286 97.3082C172.484 98.9332 172.636 101.193 172.746 103.693C172.857 106.192 172.898 108.379 172.949 110.082C172.981 110.851 173.004 111.495 173.027 112.016C173.041 112.254 173.031 112.493 172.999 112.729Z" fill="#263238"/>
<path d="M194.156 110.257C193.877 110.301 193.595 110.316 193.314 110.303C192.775 110.303 191.997 110.303 191.012 110.368C189.088 110.446 186.409 110.639 183.504 110.989C180.599 111.339 177.948 111.767 176.051 112.135C175.103 112.31 174.339 112.476 173.81 112.596C173.538 112.668 173.261 112.715 172.981 112.738C173.24 112.629 173.508 112.543 173.782 112.481C174.302 112.333 175.062 112.14 176.01 111.933C177.897 111.514 180.535 111.049 183.467 110.695C185.97 110.389 188.487 110.213 191.007 110.165C191.974 110.165 192.757 110.165 193.309 110.193C193.593 110.189 193.876 110.211 194.156 110.257Z" fill="#263238"/>
<path d="M162.306 135.317C162.251 135.237 162.209 135.148 162.182 135.055L161.873 134.273C161.611 133.596 161.256 132.602 160.838 131.373C159.995 128.91 158.936 125.471 157.818 121.664C156.699 117.857 155.677 114.41 154.886 111.933C154.499 110.727 154.177 109.737 153.942 109.001L153.689 108.204C153.653 108.113 153.63 108.017 153.62 107.919C153.672 108.001 153.714 108.089 153.744 108.181C153.827 108.393 153.928 108.642 154.048 108.964C154.31 109.641 154.665 110.635 155.088 111.864C155.93 114.327 156.989 117.765 158.103 121.577C159.217 125.388 160.248 128.827 161.04 131.303C161.427 132.51 161.744 133.499 161.961 134.236L162.214 135.032C162.258 135.122 162.289 135.219 162.306 135.317Z" fill="#263238"/>
<path d="M190.681 128.274C190.591 128.322 190.495 128.355 190.395 128.371L189.571 128.587L186.533 129.347C183.964 129.987 180.434 130.912 176.53 131.943C172.627 132.974 169.082 133.867 166.5 134.457C165.211 134.751 164.166 134.981 163.439 135.124L162.601 135.285C162.504 135.309 162.405 135.32 162.306 135.317C162.395 135.275 162.49 135.244 162.587 135.225L163.416 135.009L166.454 134.249C169.018 133.61 172.553 132.68 176.457 131.649C180.36 130.617 183.905 129.724 186.482 129.135C187.771 128.841 188.821 128.615 189.544 128.472L190.381 128.311C190.479 128.287 190.58 128.275 190.681 128.274Z" fill="#263238"/>
<path d="M160.934 14.5737H49.3008V167.54H160.934V14.5737Z" fill="#455A64"/>
<path d="M156.52 158.444H135.847H58.5994V20.7561H156.52V141.315V158.444Z" fill="#E0E0E0"/>
<path d="M154.973 155.889H134.484H57.9319V18.9377H154.973V138.852V155.889Z" fill="#EBEBEB"/>
<path d="M144.547 145.233L133.37 154.333H56.1228V19.283H154.043V137.531L144.547 145.233Z" fill="#FAFAFA"/>
<path d="M144.547 145.219C144.547 145.219 144.745 145.048 145.145 144.722L146.936 143.258L154.02 137.49V137.518C154.02 118.092 153.983 74.9133 153.951 19.2692L154.057 19.3796H56.9883H56.1367L56.2564 19.26C56.2564 70.0338 56.2564 116.872 56.2287 154.31L56.1367 154.214L133.384 154.269H133.356L141.753 147.461L143.856 145.762C144.317 145.384 144.561 145.2 144.561 145.2L143.87 145.776L141.766 147.52L133.398 154.361L56.1229 154.425H56.0262V154.329C56.0262 116.89 56.0262 70.0522 56.0032 19.2784V19.1587H56.9745H154.043H154.154V19.2646C154.121 74.9271 154.094 118.087 154.085 137.513L146.973 143.253L145.173 144.758L144.547 145.219Z" fill="#263238"/>
<path d="M91.8716 9.84644H118.639C120.367 9.84644 122.024 10.5327 123.245 11.7542C124.467 12.9758 125.153 14.6325 125.153 16.36V23.5825H85.0771V16.6362C85.0784 14.835 85.7947 13.108 87.0688 11.8348C88.3429 10.5616 90.0704 9.84644 91.8716 9.84644Z" fill="#FC4B6C"/>
<path d="M94.896 9.84629L93.4321 2.43506H116.508L115.224 9.84629H94.896Z" fill="#FC4B6C"/>
<path d="M82.8584 57.2966H66.365V40.7986H82.8584V57.2966ZM66.8253 56.8363H82.3981V41.2589H66.8253V56.8363Z" fill="#FC4B6C"/>
<path d="M141.159 44.785C141.159 44.8494 129.674 44.9047 115.514 44.9047C101.354 44.9047 89.8647 44.8494 89.8647 44.785C89.8647 44.7205 101.345 44.6653 115.514 44.6653C129.683 44.6653 141.159 44.7159 141.159 44.785Z" fill="#263238"/>
<path d="M141.159 48.2098C141.159 48.2788 129.674 48.3295 115.514 48.3295C101.354 48.3295 89.8647 48.2788 89.8647 48.2098C89.8647 48.1407 101.345 48.0901 115.514 48.0901C129.683 48.0901 141.159 48.1453 141.159 48.2098Z" fill="#263238"/>
<path d="M141.159 51.6392C141.159 51.7037 129.674 51.7589 115.514 51.7589C101.354 51.7589 89.8647 51.7037 89.8647 51.6392C89.8647 51.5748 101.345 51.5195 115.514 51.5195C129.683 51.5195 141.159 51.5748 141.159 51.6392Z" fill="#263238"/>
<path d="M141.159 55.0687C141.159 55.1331 129.674 55.1883 115.514 55.1883C101.354 55.1883 89.8647 55.1331 89.8647 55.0687C89.8647 55.0042 101.345 54.949 115.514 54.949C129.683 54.949 141.159 54.995 141.159 55.0687Z" fill="#263238"/>
<path d="M82.8584 82.7205H66.365V66.2224H82.8584V82.7205ZM66.8253 82.2601H82.3981V66.6827H66.8253V82.2601Z" fill="#FC4B6C"/>
<path d="M141.159 70.2088C141.159 70.2732 129.674 70.3285 115.514 70.3285C101.354 70.3285 89.8647 70.2732 89.8647 70.2088C89.8647 70.1444 101.345 70.0891 115.514 70.0891C129.683 70.0891 141.159 70.1444 141.159 70.2088Z" fill="#263238"/>
<path d="M141.159 73.6382C141.159 73.7027 129.674 73.7579 115.514 73.7579C101.354 73.7579 89.8647 73.7027 89.8647 73.6382C89.8647 73.5738 101.345 73.5186 115.514 73.5186C129.683 73.5186 141.159 73.5692 141.159 73.6382Z" fill="#263238"/>
<path d="M141.159 77.063C141.159 77.1321 129.674 77.1827 115.514 77.1827C101.354 77.1827 89.8647 77.1321 89.8647 77.063C89.8647 76.994 101.345 76.9434 115.514 76.9434C129.683 76.9434 141.159 76.9986 141.159 77.063Z" fill="#263238"/>
<path d="M141.159 80.4925C141.159 80.5569 129.674 80.6122 115.514 80.6122C101.354 80.6122 89.8647 80.5569 89.8647 80.4925C89.8647 80.428 101.345 80.3728 115.514 80.3728C129.683 80.3728 141.159 80.428 141.159 80.4925Z" fill="#263238"/>
<path d="M82.8584 107.325H66.365V90.8267H82.8584V107.325ZM66.8253 106.864H82.3981V91.287H66.8253V106.864Z" fill="#FC4B6C"/>
<path d="M141.159 94.8133C141.159 94.8777 129.674 94.933 115.514 94.933C101.354 94.933 89.8647 94.8777 89.8647 94.8133C89.8647 94.7488 101.345 94.6936 115.514 94.6936C129.683 94.6936 141.159 94.7442 141.159 94.8133Z" fill="#263238"/>
<path d="M141.159 98.2381C141.159 98.3071 129.674 98.3578 115.514 98.3578C101.354 98.3578 89.8647 98.3071 89.8647 98.2381C89.8647 98.169 101.345 98.1184 115.514 98.1184C129.683 98.1184 141.159 98.1737 141.159 98.2381Z" fill="#263238"/>
<path d="M141.159 101.668C141.159 101.737 129.674 101.787 115.514 101.787C101.354 101.787 89.8647 101.737 89.8647 101.668C89.8647 101.598 101.345 101.548 115.514 101.548C129.683 101.548 141.159 101.603 141.159 101.668Z" fill="#263238"/>
<path d="M141.159 105.097C141.159 105.161 129.674 105.217 115.514 105.217C101.354 105.217 89.8647 105.161 89.8647 105.097C89.8647 105.033 101.345 104.977 115.514 104.977C129.683 104.977 141.159 105.033 141.159 105.097Z" fill="#263238"/>
<path d="M82.8584 131.082H66.365V114.584H82.8584V131.082ZM66.8253 130.622H82.3981V115.044H66.8253V130.622Z" fill="#FC4B6C"/>
<path d="M141.159 118.566C141.159 118.635 129.674 118.686 115.514 118.686C101.354 118.686 89.8647 118.635 89.8647 118.566C89.8647 118.497 101.345 118.446 115.514 118.446C129.683 118.446 141.159 118.52 141.159 118.566Z" fill="#263238"/>
<path d="M141.159 121.995C141.159 122.06 129.674 122.115 115.514 122.115C101.354 122.115 89.8647 122.06 89.8647 121.995C89.8647 121.931 101.345 121.876 115.514 121.876C129.683 121.876 141.159 121.931 141.159 121.995Z" fill="#263238"/>
<path d="M141.159 125.425C141.159 125.489 129.674 125.545 115.514 125.545C101.354 125.545 89.8647 125.489 89.8647 125.425C89.8647 125.36 101.345 125.305 115.514 125.305C129.683 125.305 141.159 125.356 141.159 125.425Z" fill="#263238"/>
<path d="M141.159 128.85C141.159 128.919 129.674 128.969 115.514 128.969C101.354 128.969 89.8647 128.919 89.8647 128.85C89.8647 128.781 101.345 128.73 115.514 128.73C129.683 128.73 141.159 128.785 141.159 128.85Z" fill="#263238"/>
<path d="M136.44 131.975L125.706 154.209H133.37L136.44 131.975Z" fill="#E0E0E0"/>
<path d="M133.37 154.333L136.44 132.099L154.043 137.531L133.37 154.333Z" fill="#FAFAFA"/>
<path d="M133.37 154.333L139.29 149.458L153.969 137.439L154.011 137.642L147.212 135.552L136.426 132.205L136.569 132.113C135.648 138.558 134.861 144.105 134.304 148.036C133.747 151.861 133.462 153.836 133.384 154.333C133.382 154.299 133.382 154.265 133.384 154.232L133.425 153.928C133.462 153.638 133.513 153.233 133.582 152.717C133.724 151.636 133.927 150.084 134.185 148.114C134.719 144.151 135.464 138.576 136.334 132.062V131.934L136.459 131.97L147.272 135.303L154.066 137.402L154.278 137.467L154.108 137.605C148.165 142.397 142.968 146.586 139.248 149.573L134.907 153.058L133.747 153.979L133.453 154.213L133.37 154.333Z" fill="#263238"/>
<g opacity="0.3">
<path d="M114.911 2.43506L113.64 9.84629H115.224L116.508 2.43506H114.487" fill="black"/>
</g>
<path fill-rule="evenodd" clip-rule="evenodd" d="M85.5496 46.7322C86.0501 47.1239 86.1383 47.8472 85.7465 48.3477L75.7156 61.1637C75.3239 61.6642 74.6006 61.7524 74.1001 61.3606C73.5996 60.9689 73.5114 60.2456 73.9032 59.7451L83.9341 46.9291C84.3258 46.4286 85.0491 46.3404 85.5496 46.7322Z" fill="#FC4B6C"/>
<path fill-rule="evenodd" clip-rule="evenodd" d="M72.5106 48.3216C72.9024 47.8211 73.6257 47.733 74.1262 48.1247L86.9422 58.1556C87.4427 58.5473 87.5309 59.2706 87.1391 59.7711C86.7474 60.2716 86.0241 60.3598 85.5236 59.9681L72.7076 49.9372C72.2071 49.5454 72.1189 48.8221 72.5106 48.3216Z" fill="#FC4B6C"/>
<path fill-rule="evenodd" clip-rule="evenodd" d="M79.5588 69.7754C79.9138 70.1215 79.921 70.6897 79.575 71.0446L70.7146 80.1334C70.3685 80.4884 69.8003 80.4956 69.4454 80.1496C69.0904 79.8035 69.0832 79.2353 69.4292 78.8803L78.2896 69.7916C78.6356 69.4366 79.2039 69.4294 79.5588 69.7754Z" fill="#FC4B6C"/>
<path fill-rule="evenodd" clip-rule="evenodd" d="M69.3153 69.9058C69.6613 69.5508 70.2295 69.5436 70.5845 69.8896L79.6733 78.75C80.0282 79.096 80.0355 79.6643 79.6894 80.0192C79.3434 80.3742 78.7752 80.3814 78.4202 80.0354L69.3314 71.175C68.9765 70.8289 68.9693 70.2607 69.3153 69.9058Z" fill="#FC4B6C"/>
<path fill-rule="evenodd" clip-rule="evenodd" d="M80.019 94.1727C80.374 94.5187 80.3812 95.0869 80.0352 95.4419L71.1748 104.531C70.8288 104.886 70.2605 104.893 69.9056 104.547C69.5506 104.201 69.5434 103.633 69.8894 103.278L78.7498 94.1888C79.0958 93.8339 79.6641 93.8266 80.019 94.1727Z" fill="#FC4B6C"/>
<path fill-rule="evenodd" clip-rule="evenodd" d="M69.7755 94.303C70.1215 93.948 70.6898 93.9408 71.0447 94.2868L80.1335 103.147C80.4884 103.493 80.4957 104.062 80.1496 104.416C79.8036 104.771 79.2354 104.779 78.8804 104.433L69.7916 95.5722C69.4367 95.2262 69.4295 94.6579 69.7755 94.303Z" fill="#FC4B6C"/>
<path fill-rule="evenodd" clip-rule="evenodd" d="M79.0984 117.649C79.4533 117.995 79.4606 118.563 79.1145 118.918L70.2541 128.007C69.9081 128.362 69.3399 128.369 68.9849 128.023C68.63 127.677 68.6227 127.109 68.9688 126.754L77.8292 117.665C78.1752 117.31 78.7434 117.303 79.0984 117.649Z" fill="#FC4B6C"/>
<path fill-rule="evenodd" clip-rule="evenodd" d="M68.8548 117.78C69.2009 117.425 69.7691 117.417 70.124 117.763L79.2128 126.624C79.5678 126.97 79.575 127.538 79.229 127.893C78.883 128.248 78.3147 128.255 77.9598 127.909L68.871 119.049C68.516 118.703 68.5088 118.134 68.8548 117.78Z" fill="#FC4B6C"/>
<path d="M47.3212 80.5983C47.8762 80.6402 48.4339 80.5698 48.9611 80.3913C49.4883 80.2129 49.9741 79.93 50.3896 79.5597C50.8051 79.1893 51.1416 78.7391 51.3793 78.2358C51.6169 77.7325 51.7506 77.1864 51.7725 76.6303C51.86 74.3747 51.9383 72.0961 51.9383 72.0961C51.9383 72.0961 55.3539 71.7785 55.6209 68.4135C55.8878 65.0485 55.7543 57.2322 55.7543 57.2322C53.882 56.2875 51.7912 55.8603 49.6984 55.9946C47.6055 56.129 45.5866 56.82 43.8503 57.9963L44.0575 69.8911V76.2943C44.0621 78.421 45.1807 80.4372 47.3212 80.5983Z" fill="#FFBE9D"/>
<path d="M52.233 64.2707C51.9835 63.9121 51.608 63.6608 51.1813 63.5669C50.7547 63.4731 50.3084 63.5436 49.9314 63.7643C49.5488 64.0301 49.2731 64.4232 49.1534 64.8734C49.0336 65.3236 49.0777 65.8017 49.2777 66.2225C49.452 66.5347 49.6894 66.8072 49.9746 67.0228C50.2599 67.2383 50.587 67.3922 50.9349 67.4746C51.2434 67.5417 51.5169 67.7189 51.7041 67.9731C51.8914 68.2273 51.9796 68.541 51.9522 68.8555C51.8105 69.744 51.3954 70.5662 50.7646 71.2078C49.7219 72.2688 48.334 72.9219 46.8518 73.0491C45.411 73.2194 43.763 72.9202 42.9253 71.7372C42.313 70.8764 42.2716 69.7486 42.2486 68.6944C42.1964 66.2025 42.1442 63.7106 42.0921 61.2187C42.0379 60.3206 42.0951 59.4191 42.2624 58.535C42.4387 57.6433 42.945 56.8509 43.6802 56.3163C44.5042 55.7731 45.5445 55.7271 46.479 55.4278C47.6528 55.0458 48.6471 54.2724 49.7427 53.7108C50.8382 53.1492 52.1778 52.8132 53.278 53.3656C54.0697 53.7615 54.5991 54.5486 55.3632 54.9859C56.4588 55.6074 57.9457 55.4463 58.475 57.0758C58.6614 57.633 58.6614 58.2356 58.475 58.7928C57.7339 60.9794 55.0272 61.8632 53.0754 60.9195C53.0386 61.2878 53.4023 62.1118 53.011 63.281C52.8867 63.6585 52.8453 64.2247 52.2607 64.2385" fill="#263238"/>
<path d="M42.9021 57.2967C43.4386 56.2276 43.8051 55.0814 43.9885 53.8995C44.0753 53.3075 44.0245 52.7034 43.8401 52.1342C43.6557 51.565 43.3426 51.046 42.9252 50.6174C42.309 50.0823 41.5127 49.801 40.6972 49.8302C39.9225 49.8743 39.1803 50.1567 38.5722 50.6387C37.9641 51.1208 37.5198 51.7789 37.3 52.5231C37.1104 53.2734 37.1397 54.0624 37.3844 54.7966C37.6291 55.5308 38.0791 56.1795 38.681 56.666C39.2964 57.1387 40.0258 57.4405 40.7953 57.5407C41.5649 57.6409 42.3472 57.5361 43.0633 57.2368" fill="#263238"/>
<path d="M43.5651 56.0767C43.5402 56.4899 43.3624 56.8791 43.0662 57.1685C42.7701 57.4578 42.3769 57.6265 41.9631 57.6418C41.9631 57.5727 42.4603 57.4392 42.8838 56.9973C43.3073 56.5554 43.5006 56.0583 43.5651 56.0767Z" fill="#A6DA99"/>
<path d="M42.4556 56.9053C42.1918 57.1818 41.8798 57.408 41.535 57.5728C41.1664 57.7828 40.7528 57.9012 40.3289 57.918C40.0598 57.9325 39.791 57.8825 39.5452 57.7719C39.2993 57.6614 39.0835 57.4937 38.9157 57.2828C38.7672 57.0607 38.6681 56.8093 38.6253 56.5456C38.5824 56.282 38.5966 56.0122 38.6671 55.7545C38.774 55.3455 38.967 54.9641 39.2333 54.6359C39.4537 54.3248 39.7244 54.0525 40.0343 53.8303C39.8294 54.1485 39.6082 54.4558 39.3714 54.751C39.1404 55.0715 38.9746 55.4344 38.8835 55.8189C38.826 56.0456 38.8164 56.2818 38.8553 56.5124C38.8941 56.7431 38.9805 56.9631 39.109 57.1585C39.2562 57.3382 39.4428 57.4815 39.6544 57.5773C39.866 57.6731 40.0968 57.7188 40.3289 57.7109C40.7223 57.7045 41.1092 57.6102 41.4613 57.4347C42.0597 57.1263 42.4326 56.8685 42.4556 56.9053Z" fill="#263238"/>
<path d="M36.7108 60.7215C36.7802 60.8384 36.8344 60.9637 36.8719 61.0943C36.9913 61.4392 37.1603 61.7649 37.3737 62.061C37.5156 62.2751 37.7144 62.4455 37.9478 62.5528C38.1812 62.6601 38.4399 62.7003 38.6948 62.6686C39 62.5825 39.2777 62.419 39.501 62.194C39.7244 61.969 39.8859 61.6901 39.9699 61.3843C40.1353 60.7405 40.2507 60.0849 40.3152 59.4233C40.3802 58.856 40.6035 58.3184 40.9596 57.872C41.2147 57.5784 41.5621 57.3803 41.9447 57.3105C42.0831 57.2766 42.2288 57.2896 42.359 57.3473C42.359 57.3473 42.2071 57.3473 41.9631 57.4025C41.6174 57.4981 41.3111 57.7012 41.0885 57.9825C40.7748 58.4151 40.5825 58.9237 40.5315 59.4556C40.4784 60.1331 40.366 60.8047 40.1955 61.4626C40.1005 61.8079 39.9153 62.1217 39.6588 62.3717C39.4023 62.6217 39.0839 62.7989 38.7363 62.885C38.4184 62.9358 38.0927 62.8739 37.8156 62.7101C37.5857 62.5705 37.388 62.3838 37.2356 62.1623C37.0245 61.8456 36.8689 61.4954 36.7753 61.1266C36.728 60.9969 36.7062 60.8594 36.7108 60.7215Z" fill="#263238"/>
<path d="M35.0492 89.119C35.0492 89.119 33.323 101.741 35.0492 103.343C36.7754 104.945 38.428 104.411 38.428 104.411L41.7101 101.649L42.3546 89.1006L35.0492 89.119Z" fill="#FFBE9D"/>
<path d="M80.9942 54.3276L77.818 56.3669C77.6753 55.1102 76.7178 53.8673 76.7638 54.498C76.8098 55.1286 76.7638 58.4015 76.7638 58.4015L71.1064 70.3193C70.3377 72.2067 68.7772 73.3943 67.6125 73.6751L62.3142 75.2494L64.3811 82.2418L71.7463 79.802C72.6863 79.4905 73.5404 78.9631 74.2398 78.262C74.9393 77.561 75.4648 76.7058 75.7741 75.765L80.8377 60.3349C81.1739 59.341 81.4446 58.3261 81.6479 57.2967C81.8688 56.0032 80.9942 54.3276 80.9942 54.3276Z" fill="#FFBE9D"/>
<path d="M54.9719 184.678L54.889 181.147L48.2695 181.253L48.3294 186.423L48.7437 186.446C50.585 186.515 58.0468 186.68 59.2621 186.294C60.6154 185.856 54.9719 184.678 54.9719 184.678Z" fill="#FC4B6C"/>
<g opacity="0.5">
<path d="M50.7323 186.335C50.6207 185.784 50.3113 185.293 49.8623 184.954C49.4202 184.61 48.8645 184.446 48.3064 184.494L48.334 186.335H50.7323Z" fill="white"/>
</g>
<g opacity="0.4">
<path d="M57.7109 185.354C57.7109 185.354 59.6903 185.888 59.4509 186.22C59.2115 186.551 51.653 186.68 48.311 186.422V186.275L57.1309 186.215C57.1309 186.215 57.3472 185.378 57.7109 185.354Z" fill="white"/>
</g>
<path d="M48.2328 186.271H48.3479H48.6747L49.8808 186.303C50.8981 186.326 52.3021 186.335 53.8534 186.303C55.4047 186.271 56.8133 186.229 57.826 186.178L59.032 186.109L59.3589 186.086H59.4693H59.3543H59.0274L57.826 186.132C56.8087 186.165 55.4047 186.211 53.8534 186.234C52.3021 186.257 50.8981 186.234 49.8808 186.234H48.6793H48.219L48.2328 186.271Z" fill="#263238"/>
<path d="M57.1585 186.316C57.2064 186.116 57.2791 185.923 57.3749 185.741C57.4908 185.573 57.6251 185.419 57.7754 185.281C57.5795 185.373 57.4158 185.522 57.3058 185.708C57.1958 185.895 57.1445 186.11 57.1585 186.326V186.316Z" fill="#263238"/>
<path d="M55.1882 185.354C55.1882 185.354 55.2987 185.253 55.3954 185.101C55.492 184.949 55.5473 184.811 55.5288 184.802C55.5104 184.793 55.4184 184.903 55.3263 185.055C55.2342 185.207 55.1698 185.345 55.1882 185.354Z" fill="#263238"/>
<path d="M54.6498 185.083C54.6498 185.083 54.7649 185.028 54.8799 184.922C54.995 184.816 55.0687 184.719 55.0549 184.705C55.0411 184.692 54.9352 184.761 54.8247 184.862C54.7142 184.963 54.6314 185.064 54.6498 185.083Z" fill="#263238"/>
<path d="M54.2998 184.461C54.4102 184.502 54.5287 184.514 54.645 184.498C54.7618 184.512 54.8801 184.498 54.9903 184.457C54.8789 184.421 54.7614 184.409 54.645 184.42C54.5283 184.407 54.4101 184.421 54.2998 184.461Z" fill="#263238"/>
<path d="M54.1755 184.024C54.2918 184.095 54.4259 184.132 54.5622 184.13C54.6987 184.15 54.8379 184.129 54.9627 184.07C54.831 184.057 54.6985 184.057 54.5668 184.07C54.4381 184.043 54.3071 184.027 54.1755 184.024Z" fill="#263238"/>
<path d="M55.4092 184.774C55.5492 184.8 55.6927 184.8 55.8327 184.774C55.9891 184.754 56.1432 184.718 56.293 184.669C56.3825 184.641 56.4688 184.604 56.5508 184.558C56.5767 184.544 56.5995 184.525 56.6177 184.502C56.636 184.48 56.6492 184.453 56.6567 184.425C56.6621 184.393 56.6585 184.36 56.6463 184.33C56.6341 184.3 56.6138 184.273 56.5876 184.254C56.4236 184.178 56.2385 184.161 56.0633 184.206C55.8881 184.25 55.7335 184.353 55.6255 184.498C55.5636 184.584 55.5183 184.681 55.492 184.784C55.484 184.822 55.484 184.861 55.492 184.899C55.5361 184.769 55.5997 184.646 55.6808 184.535C55.7757 184.422 55.9 184.338 56.0398 184.291C56.2072 184.233 56.3906 184.243 56.5508 184.319C56.6152 184.369 56.5922 184.448 56.5186 184.494C56.4423 184.536 56.3622 184.572 56.2792 184.6C56.1291 184.651 55.9752 184.691 55.8189 184.719C55.5657 184.761 55.4092 184.761 55.4092 184.774Z" fill="#263238"/>
<path d="M55.5152 184.807C55.567 184.718 55.5834 184.613 55.5612 184.512C55.5438 184.401 55.5013 184.296 55.4369 184.204C55.4005 184.141 55.3489 184.089 55.2869 184.052C55.2249 184.015 55.1546 183.994 55.0825 183.992C55.0609 183.996 55.0405 184.005 55.0223 184.017C55.0041 184.03 54.9886 184.045 54.9766 184.064C54.9646 184.082 54.9563 184.103 54.9524 184.125C54.9485 184.146 54.9488 184.168 54.9536 184.19C54.9638 184.257 54.989 184.322 55.0272 184.379C55.0831 184.473 55.153 184.558 55.2344 184.632C55.3 184.708 55.384 184.767 55.4783 184.802C55.4783 184.802 55.3955 184.728 55.2758 184.595C55.2069 184.516 55.1452 184.432 55.0917 184.342C55.0318 184.254 54.9904 184.093 55.0917 184.07C55.1929 184.047 55.308 184.162 55.3725 184.245C55.4341 184.327 55.478 184.421 55.5013 184.521C55.514 184.616 55.5187 184.711 55.5152 184.807Z" fill="#263238"/>
<path d="M48.3433 184.457C48.3433 184.457 48.532 184.457 48.8312 184.457C49.2215 184.494 49.5934 184.641 49.9037 184.88C50.2141 185.12 50.4503 185.442 50.585 185.81C50.6909 186.091 50.7047 186.271 50.7185 186.271C50.7276 186.227 50.7276 186.181 50.7185 186.137C50.7035 186.017 50.6773 185.898 50.6403 185.783C50.5126 185.398 50.2723 185.061 49.9505 184.815C49.6287 184.568 49.2404 184.424 48.8358 184.402C48.715 184.388 48.593 184.388 48.4722 184.402C48.4259 184.411 48.3821 184.43 48.3433 184.457Z" fill="#263238"/>
<path d="M48.9876 181.695C48.9464 182.146 48.9341 182.6 48.9508 183.053C48.9361 183.514 48.9499 183.975 48.9922 184.434C49.0341 183.975 49.0464 183.513 49.029 183.053C49.0401 182.6 49.0263 182.146 48.9876 181.695Z" fill="#263238"/>
<path d="M51.5518 185.677C51.8711 185.742 52.1973 185.769 52.523 185.755C52.848 185.769 53.1733 185.738 53.4897 185.663C53.4897 185.64 53.0294 185.663 52.523 185.663C52.0167 185.663 51.5564 185.654 51.5518 185.677Z" fill="#263238"/>
<path d="M50.2583 185.691C50.2583 185.691 50.2951 185.783 50.3366 185.884C50.378 185.985 50.4102 186.068 50.4332 186.068C50.4562 186.068 50.4654 185.962 50.4102 185.847C50.355 185.732 50.2721 185.677 50.2583 185.691Z" fill="#263238"/>
<path d="M49.7563 185.092C49.7563 185.092 49.784 185.175 49.8576 185.244C49.9313 185.313 49.9957 185.355 50.0095 185.341C50.0233 185.327 49.9819 185.253 49.9129 185.189C49.8438 185.124 49.7748 185.074 49.7563 185.092Z" fill="#263238"/>
<path d="M49.0522 184.807C49.0522 184.807 49.1488 184.807 49.2455 184.857C49.3422 184.908 49.4112 184.94 49.4296 184.926C49.448 184.913 49.3928 184.821 49.2685 184.784C49.1442 184.747 49.0476 184.807 49.0522 184.807Z" fill="#263238"/>
<path d="M48.5549 184.701C48.5549 184.701 48.5825 184.756 48.6378 184.774C48.693 184.793 48.7437 184.797 48.7529 184.774C48.7621 184.751 48.7207 184.719 48.6654 184.701C48.6102 184.682 48.5595 184.678 48.5549 184.701Z" fill="#263238"/>
<path d="M31.6059 183.55L33.8522 180.82L28.761 176.581L25.4375 180.54L25.7321 180.825C27.0717 182.072 32.637 187.072 33.8062 187.569C35.1181 188.126 31.6059 183.55 31.6059 183.55Z" fill="#FC4B6C"/>
<g opacity="0.5">
<path d="M27.3293 182.045C27.611 181.553 27.7011 180.974 27.5825 180.42C27.4696 179.872 27.1539 179.387 26.6987 179.062L25.488 180.475L27.3293 182.045Z" fill="white"/>
</g>
<g opacity="0.4">
<path d="M33.2584 185.861C33.2584 185.861 34.4092 187.559 34.0134 187.651C33.6175 187.744 27.7898 182.901 25.4375 180.539L25.5388 180.434L32.2641 186.142C32.2641 186.142 32.95 185.626 33.2584 185.861Z" fill="white"/>
</g>
<path d="M25.4604 180.365L25.5387 180.448L25.7781 180.673L26.6711 181.483C27.426 182.16 28.4848 183.085 29.677 184.08C30.8693 185.074 31.9787 185.953 32.7704 186.579L33.7279 187.311L33.9903 187.504L34.0869 187.569L33.9995 187.491L33.7463 187.283L32.8257 186.533C32.0293 185.898 30.9383 185.014 29.7461 184.02C28.5538 183.025 27.4905 182.109 26.7263 181.442L25.8057 180.65L25.5571 180.434L25.4604 180.365Z" fill="#263238"/>
<path d="M32.1951 186.22C32.3628 186.098 32.5453 185.997 32.7383 185.921C32.9373 185.87 33.1408 185.839 33.3459 185.828C33.1408 185.753 32.9157 185.753 32.7106 185.828C32.4971 185.892 32.3139 186.031 32.1951 186.22Z" fill="#263238"/>
<path d="M31.3296 184.204C31.3296 184.227 31.4815 184.204 31.6518 184.144C31.8221 184.084 31.9602 184.029 31.951 184.006C31.9418 183.983 31.7991 184.006 31.6288 184.066C31.5203 184.09 31.4182 184.137 31.3296 184.204Z" fill="#263238"/>
<path d="M31.0994 183.642C31.0994 183.642 31.2237 183.679 31.3802 183.674C31.5367 183.67 31.6564 183.647 31.6564 183.624C31.6564 183.601 31.5275 183.587 31.3756 183.591C31.2808 183.587 31.1863 183.604 31.0994 183.642Z" fill="#263238"/>
<path d="M31.2375 182.965C31.2375 182.965 31.3296 183.094 31.4769 183.219C31.56 183.303 31.6585 183.37 31.7669 183.417C31.7669 183.417 31.6749 183.283 31.5276 183.159C31.3803 183.034 31.256 182.929 31.2375 182.965Z" fill="#263238"/>
<path d="M31.4309 182.533C31.481 182.659 31.5574 182.773 31.6551 182.868C31.7527 182.962 31.8693 183.035 31.9971 183.081C31.9079 182.984 31.8126 182.893 31.7117 182.809C31.5598 182.662 31.4723 182.505 31.4309 182.533Z" fill="#263238"/>
<path d="M31.8728 183.886C31.9641 183.996 32.0749 184.088 32.1997 184.158C32.3303 184.242 32.4691 184.313 32.614 184.369C32.6995 184.408 32.789 184.437 32.8809 184.457C32.9389 184.467 32.9983 184.453 33.0467 184.42C33.072 184.4 33.0912 184.374 33.1018 184.344C33.1124 184.313 33.1141 184.281 33.1065 184.25C33.0355 184.081 32.9078 183.943 32.7455 183.859C32.5832 183.775 32.3966 183.75 32.2181 183.789C32.113 183.81 32.0138 183.854 31.9281 183.918C31.8958 183.939 31.8677 183.965 31.8452 183.996C31.9631 183.925 32.0923 183.873 32.2273 183.845C32.3734 183.819 32.5237 183.837 32.66 183.895C32.8241 183.959 32.9564 184.084 33.0283 184.245C33.0283 184.328 32.9776 184.374 32.8902 184.36C32.8053 184.341 32.7221 184.315 32.6416 184.282C32.4997 184.229 32.3627 184.165 32.2319 184.089C32.0063 184.001 31.882 183.886 31.8728 183.886Z" fill="#263238"/>
<path d="M31.9325 183.992C31.9325 183.992 32.0522 183.955 32.1627 183.799C32.222 183.704 32.2597 183.597 32.2731 183.486C32.2837 183.414 32.2771 183.34 32.2539 183.272C32.2307 183.203 32.1915 183.141 32.1396 183.09C32.0999 183.068 32.0534 183.064 32.0103 183.077C31.9672 183.09 31.9309 183.119 31.9095 183.159C31.8745 183.216 31.8525 183.281 31.845 183.348C31.8316 183.456 31.8316 183.566 31.845 183.674C31.845 183.776 31.8703 183.875 31.9187 183.964C31.9187 183.964 31.9187 183.849 31.9187 183.674C31.9174 183.569 31.9267 183.464 31.9463 183.361C31.9463 183.255 32.0292 183.108 32.1258 183.159C32.2225 183.209 32.2271 183.371 32.2271 183.476C32.2189 183.578 32.1891 183.677 32.1396 183.766C32.0792 183.849 32.0097 183.925 31.9325 183.992Z" fill="#263238"/>
<path d="M26.7263 179.062C26.7263 179.062 26.8828 179.168 27.09 179.384C27.3596 179.669 27.5458 180.022 27.6286 180.406C27.7048 180.791 27.6729 181.189 27.5365 181.557C27.4306 181.842 27.3155 181.994 27.3293 182.017C27.3639 181.987 27.3935 181.951 27.4168 181.911C27.4854 181.812 27.5426 181.706 27.5871 181.594C27.7463 181.219 27.788 180.805 27.7068 180.406C27.6237 180.008 27.4233 179.644 27.1314 179.361C27.0444 179.276 26.9488 179.2 26.846 179.135C26.8112 179.103 26.7706 179.078 26.7263 179.062Z" fill="#263238"/>
<path d="M29.0188 177.382C28.6918 177.699 28.3844 178.035 28.0981 178.39C27.7943 178.727 27.5085 179.081 27.2419 179.448C27.571 179.135 27.8786 178.8 28.1626 178.445C28.4659 178.105 28.7517 177.75 29.0188 177.382Z" fill="#263238"/>
<path d="M28.3652 182.077C28.562 182.335 28.7909 182.567 29.0465 182.767C29.2855 182.99 29.5534 183.179 29.8429 183.329C29.8429 183.329 29.5068 183.053 29.1018 182.708C28.6967 182.362 28.3836 182.045 28.3652 182.077Z" fill="#263238"/>
<path d="M27.3709 181.244C27.3709 181.244 27.3387 181.336 27.3111 181.442C27.2834 181.548 27.242 181.626 27.2604 181.64C27.2788 181.653 27.3525 181.584 27.3893 181.46C27.4261 181.336 27.3939 181.239 27.3709 181.244Z" fill="#263238"/>
<path d="M27.3847 180.461C27.3617 180.461 27.3525 180.544 27.3617 180.641C27.3709 180.737 27.3939 180.816 27.4169 180.816C27.4399 180.816 27.4491 180.733 27.4169 180.636C27.3847 180.539 27.4077 180.461 27.3847 180.461Z" fill="#263238"/>
<path d="M27.0256 179.798C27.0256 179.821 27.0855 179.877 27.1361 179.964C27.1868 180.052 27.2098 180.139 27.2328 180.139C27.2558 180.139 27.2696 180.033 27.2052 179.923C27.1407 179.812 27.0348 179.78 27.0256 179.798Z" fill="#263238"/>
<path d="M26.7263 179.379C26.7263 179.379 26.7263 179.444 26.7263 179.495C26.7263 179.545 26.7954 179.577 26.8138 179.568C26.8322 179.559 26.8138 179.504 26.8138 179.453C26.8138 179.403 26.7447 179.37 26.7263 179.379Z" fill="#263238"/>
<path d="M45.3833 109.585C45.3833 109.585 43.1783 118.911 43.8044 120.757C44.4304 122.603 48.4675 123.666 48.4675 123.666L48.3294 149.21L25.9944 176.829L34.2342 183.569C34.2342 183.569 58.4197 155.908 60.551 150.885C62.6823 145.863 59.17 109.157 59.17 109.157L45.3833 109.585Z" fill="#263238"/>
<path d="M56.7902 105.783L57.8811 183.357L46.5249 183.426L40.8215 120.232C39.6154 119.082 37.9168 117.111 38.1516 112.715L38.4278 107.61L56.7902 105.783Z" fill="#263238"/>
<path d="M44.8218 153.528C44.8384 153.487 44.86 153.448 44.8862 153.412C44.9461 153.33 45.0151 153.224 45.1026 153.095L45.945 151.903L49.0291 147.631V147.691C48.7806 144.998 48.4814 141.734 48.1591 138.213C47.7448 133.609 47.4134 129.42 47.2155 126.387C47.1142 124.872 47.0497 123.648 47.0129 122.801C47.0129 122.396 46.9853 122.069 46.9807 121.82C46.9666 121.707 46.9666 121.593 46.9807 121.48C47.003 121.592 47.0168 121.706 47.0221 121.82C47.0221 122.064 47.0682 122.391 47.1004 122.796C47.1694 123.666 47.2615 124.882 47.3812 126.378C47.6206 129.402 47.9796 133.577 48.3939 138.19C48.7023 141.725 49.0153 144.984 49.2225 147.691V147.723V147.75L46.0693 151.967L45.1808 153.132L44.9415 153.431C44.8448 153.505 44.8218 153.532 44.8218 153.528Z" fill="#455A64"/>
<path d="M48.3019 121.48C47.2857 121.426 46.2773 121.272 45.2914 121.019C44.2884 120.85 43.3047 120.582 42.3545 120.219C43.3607 120.347 44.3584 120.537 45.342 120.785C46.3411 120.96 47.3293 121.192 48.3019 121.48Z" fill="#455A64"/>
<path d="M56.0813 147.981C55.101 147.574 54.0694 147.304 53.0155 147.18C51.9537 147.137 50.8911 147.241 49.8577 147.488C50.1276 147.318 50.4276 147.2 50.7415 147.143C51.492 146.947 52.27 146.878 53.0431 146.94C53.8114 147.002 54.5641 147.19 55.2711 147.497C55.5679 147.608 55.8423 147.772 56.0813 147.981Z" fill="#455A64"/>
<path d="M60.0907 151.562C60.1413 151.603 56.9467 155.894 52.951 161.141C48.9554 166.389 45.6733 170.62 45.6227 170.583C45.572 170.546 48.7667 166.251 52.7623 160.999C56.7579 155.746 60.04 151.521 60.0907 151.562Z" fill="#455A64"/>
<path d="M58.5533 111.541C58.4224 111.877 58.2009 112.17 57.9135 112.388C57.5845 112.676 57.1995 112.893 56.7827 113.026C56.3659 113.158 55.9262 113.202 55.4914 113.157C55.0565 113.111 54.6358 112.976 54.2557 112.759C53.8756 112.543 53.5443 112.251 53.2826 111.9C53.039 111.631 52.879 111.297 52.8223 110.938C52.9994 111.233 53.1931 111.517 53.4023 111.79C53.9284 112.428 54.6839 112.833 55.5062 112.919C56.3284 113.005 57.1516 112.765 57.7984 112.25C58.0622 112.027 58.3142 111.791 58.5533 111.541Z" fill="#455A64"/>
<path d="M43.0264 71.6266C41.1551 69.8487 40.0517 67.4105 39.9511 64.8312C39.8505 62.2519 40.7607 59.7352 42.4878 57.8169" fill="#263238"/>
<path d="M36.6419 78.8628C36.6419 78.8628 34.1745 81.6524 33.6636 92.3181C33.6636 92.3181 40.6927 93.653 40.8216 93.271C40.9505 92.8889 36.6419 78.8628 36.6419 78.8628Z" fill="#A6DA99"/>
<g opacity="0.7">
<path d="M36.6419 78.8628C36.6419 78.8628 34.1745 81.6524 33.6636 92.3181C33.6636 92.3181 40.6927 93.653 40.8216 93.271C40.9505 92.8889 36.6419 78.8628 36.6419 78.8628Z" fill="#FC4B6C"/>
</g>
<path d="M37.7833 109.93H59.3679L59.0181 106.556C59.0181 106.556 56.5507 93.7313 56.5692 93.5609L56.9558 92.7462C57.4602 91.6882 57.7299 90.5338 57.7466 89.3618C57.7633 88.1899 57.5265 87.0283 57.0525 85.9564L67.64 82.3428L65.053 73.6243C60.2564 74.4298 53.0062 75.3367 53.0062 75.3367L51.9291 75.4241C51.9291 75.4241 44.4442 75.8154 44.2831 75.8338C41.1529 76.2159 37.5117 76.4553 36.1814 79.8064C35.4679 81.5971 36.1445 84.2854 37.3092 87.0566L40.0711 95.5726C41.1759 100.254 39.4128 100.029 38.4416 104.742C38.285 105.451 37.7695 109.276 37.7833 109.93Z" fill="#A6DA99"/>
<g opacity="0.68">
<path d="M37.7833 109.93H59.3679L59.0181 106.556C59.0181 106.556 56.5507 93.7313 56.5692 93.5609L56.9558 92.7462C57.4602 91.6882 57.7299 90.5338 57.7466 89.3618C57.7633 88.1899 57.5265 87.0283 57.0525 85.9564L67.64 82.3428L65.053 73.6243C60.2564 74.4298 53.0062 75.3367 53.0062 75.3367L51.9291 75.4241C51.9291 75.4241 44.4442 75.8154 44.2831 75.8338C41.1529 76.2159 37.5117 76.4553 36.1814 79.8064C35.4679 81.5971 36.1445 84.2854 37.3092 87.0566L40.0711 95.5726C41.1759 100.254 39.4128 100.029 38.4416 104.742C38.285 105.451 37.7695 109.276 37.7833 109.93Z" fill="#FC4B6C"/>
</g>
<path d="M67.5203 82.4856C67.3744 82.5677 67.22 82.6341 67.06 82.6835C66.7562 82.794 66.3097 82.9459 65.7573 83.1439C64.6525 83.5167 63.115 84.0093 61.421 84.5525C59.727 85.0956 58.1987 85.6342 57.14 86.0761C56.5968 86.2971 56.1687 86.4904 55.8695 86.6193C55.7244 86.6997 55.5697 86.7616 55.4092 86.8034C55.5429 86.6971 55.688 86.606 55.8419 86.5319C56.1319 86.3799 56.5508 86.159 57.0848 85.9196C58.4803 85.3115 59.9078 84.7798 61.3612 84.3269C63.0598 83.7837 64.5835 83.3142 65.7205 82.9827C66.2775 82.817 66.7332 82.6881 67.0462 82.6007C67.1988 82.5427 67.3581 82.5041 67.5203 82.4856Z" fill="#263238"/>
<path d="M66.2682 77.8409C66.2682 77.9053 59.8835 77.9606 51.9981 77.9606C44.1127 77.9606 37.728 77.9053 37.728 77.8409C37.728 77.7764 44.1081 77.7212 51.9981 77.7212C59.8881 77.7212 66.2682 77.7764 66.2682 77.8409Z" fill="#FAFAFA"/>
<path d="M66.9173 82.0806C66.9173 82.1451 59.8145 82.2003 51.0545 82.2003C42.2945 82.2003 35.1963 82.1451 35.1963 82.0806C35.1963 82.0162 42.2945 81.9609 51.0545 81.9609C59.8145 81.9609 66.9173 82.0162 66.9173 82.0806Z" fill="#FAFAFA"/>
<path d="M36.9962 86.9047C36.5647 87.0218 36.116 87.0623 35.6705 87.0244C35.2265 87.0621 34.7793 87.0216 34.3494 86.9047C34.7793 86.7878 35.2265 86.7473 35.6705 86.785C36.116 86.7471 36.5647 86.7876 36.9962 86.9047Z" fill="#FAFAFA"/>
<path d="M57.711 87.0521C57.711 87.1165 53.0663 87.1717 47.3399 87.1717C41.6134 87.1717 36.9688 87.1165 36.9688 87.0521C36.9688 86.9876 41.6088 86.9324 47.3399 86.9324C53.0709 86.9324 57.711 86.983 57.711 87.0521Z" fill="#FAFAFA"/>
<path d="M57.2505 92.0191C57.2505 92.0881 53.08 92.1388 47.9427 92.1388C42.8055 92.1388 38.6304 92.0881 38.6304 92.0191C38.6304 91.95 42.7963 91.8994 47.9427 91.8994C53.0892 91.8994 57.2505 91.9547 57.2505 92.0191Z" fill="#FAFAFA"/>
<path d="M57.1216 96.6268C57.1216 96.6912 53.3469 96.7465 48.6885 96.7465C44.03 96.7465 40.2461 96.6912 40.2461 96.6268C40.2461 96.5623 44.0254 96.5071 48.6885 96.5071C53.3515 96.5071 57.1216 96.5577 57.1216 96.6268Z" fill="#FAFAFA"/>
<path d="M57.8628 100.351C57.8628 100.42 53.8211 100.471 48.8358 100.471C43.8505 100.471 39.8088 100.42 39.8088 100.351C39.8088 100.282 43.8505 100.231 48.8358 100.231C53.8211 100.231 57.8628 100.286 57.8628 100.351Z" fill="#FAFAFA"/>
<path d="M59.0319 105.101C59.0319 105.17 54.4286 105.221 48.762 105.221C43.0954 105.221 38.4922 105.17 38.4922 105.101C38.4922 105.032 43.0954 104.982 48.762 104.982C54.4286 104.982 59.0319 105.037 59.0319 105.101Z" fill="#FAFAFA"/>
<path d="M39.9286 95.1723C39.8417 95.0425 39.7764 94.8995 39.7352 94.7488L39.2749 93.5704C38.8928 92.5761 38.3543 91.2043 37.8019 89.6714C37.2495 88.1385 36.7846 86.7391 36.4946 85.7126C36.3518 85.1971 36.2414 84.792 36.1815 84.4882C36.1372 84.3384 36.111 84.1838 36.1033 84.0278C36.3163 84.5624 36.5007 85.1078 36.6557 85.662C36.9871 86.6747 37.4704 88.0649 38.0366 89.5932C38.6028 91.1214 39.1 92.5024 39.4176 93.5151C39.5879 94.0215 39.7168 94.4358 39.7997 94.7212C39.8617 94.8654 39.905 95.017 39.9286 95.1723Z" fill="#263238"/>
<path d="M27.9301 14.3047C20.8797 10.8703 12.38 13.8017 8.94562 20.8522C5.51123 27.9026 8.4426 36.4023 15.4931 39.8366C22.5435 43.271 31.0432 40.3397 34.4776 33.2892C37.912 26.2388 34.9806 17.7391 27.9301 14.3047Z" fill="#FC4B6C"/>
<path d="M26.7894 36.4795L36.664 43.0188L31.4525 32.2507L26.7894 36.4795Z" fill="#FC4B6C"/>
<path opacity="0.71" d="M21.2936 15.9863C19.184 15.9863 17.1217 16.6119 15.3675 17.784C13.6134 18.9561 12.2462 20.622 11.4389 22.571C10.6316 24.5201 10.4203 26.6648 10.8319 28.734C11.2435 30.8031 12.2594 32.7037 13.7512 34.1955C15.2429 35.6872 17.1435 36.7031 19.2127 37.1147C21.2818 37.5263 23.4265 37.315 25.3756 36.5077C27.3247 35.7004 28.9906 34.3332 30.1626 32.5791C31.3347 30.825 31.9603 28.7627 31.9603 26.653C31.9603 23.824 30.8365 21.1109 28.8361 19.1105C26.8357 17.1101 24.1226 15.9863 21.2936 15.9863ZM21.2936 35.9863C19.4477 35.9863 17.6432 35.4389 16.1083 34.4134C14.5734 33.3878 13.3772 31.9301 12.6707 30.2247C11.9643 28.5193 11.7795 26.6426 12.1396 24.8322C12.4998 23.0217 13.3887 21.3586 14.694 20.0533C15.9993 18.748 17.6623 17.8591 19.4728 17.499C21.2833 17.1389 23.1599 17.3237 24.8653 18.0301C26.5708 18.7365 28.0284 19.9328 29.054 21.4677C30.0796 23.0025 30.627 24.807 30.627 26.653C30.627 29.1283 29.6436 31.5023 27.8933 33.2527C26.1429 35.003 23.769 35.9863 21.2936 35.9863Z" fill="white"/>
<path opacity="0.71" d="M26.0669 25.3727C26.7297 25.3727 27.2669 24.8354 27.2669 24.1727C27.2669 23.5099 26.7297 22.9727 26.0669 22.9727C25.4042 22.9727 24.8669 23.5099 24.8669 24.1727C24.8669 24.8354 25.4042 25.3727 26.0669 25.3727Z" fill="white"/>
<path opacity="0.71" d="M16.9004 25.3727C17.5632 25.3727 18.1004 24.8354 18.1004 24.1727C18.1004 23.5099 17.5632 22.9727 16.9004 22.9727C16.2377 22.9727 15.7004 23.5099 15.7004 24.1727C15.7004 24.8354 16.2377 25.3727 16.9004 25.3727Z" fill="white"/>
<path opacity="0.71" d="M21.4003 27.9863C20.4439 27.9865 19.5014 28.2153 18.6514 28.6536C17.8013 29.092 17.0684 29.7272 16.5137 30.5063C16.4111 30.6504 16.37 30.8294 16.3994 31.0038C16.4288 31.1782 16.5262 31.3338 16.6703 31.4363C16.8144 31.5389 16.9934 31.58 17.1678 31.5506C17.3422 31.5212 17.4978 31.4238 17.6003 31.2797C18.0266 30.6809 18.5883 30.1914 19.2396 29.8508C19.8909 29.5102 20.6134 29.3283 21.3483 29.3199C22.0832 29.3114 22.8098 29.4767 23.4687 29.8022C24.1277 30.1277 24.7004 30.6042 25.1403 31.193C25.2464 31.3344 25.4044 31.428 25.5794 31.453C25.7544 31.478 25.9322 31.4324 26.0737 31.3263C26.2151 31.2202 26.3086 31.0623 26.3336 30.8873C26.3587 30.7122 26.3131 30.5344 26.207 30.393C25.6482 29.6457 24.9227 29.039 24.0883 28.6213C23.2539 28.2035 22.3335 27.9861 21.4003 27.9863Z" fill="white"/>
</svg>
