<svg width="212" height="198" viewBox="0 0 212 198" fill="none" xmlns="http://www.w3.org/2000/svg">
<path d="M2.2854 184.575V196.754H5.095C4.94768 195.473 4.94768 194.178 5.095 192.897C5.36189 191.465 8.41411 187.768 8.32192 184.594L2.2854 184.575Z" fill="#EBEBEB"/>
<path d="M24.7622 184.575V196.754H27.5718C27.4245 195.473 27.4245 194.178 27.5718 192.897C27.8387 191.465 30.8909 187.768 30.7987 184.594L24.7622 184.575Z" fill="#E0E0E0"/>
<path d="M46.7634 184.575V196.754H43.9489C44.0936 195.473 44.0936 194.179 43.9489 192.897C43.6772 191.465 40.6298 187.768 40.7172 184.594L46.7634 184.575Z" fill="#EBEBEB"/>
<path d="M66.2124 184.575V196.754H63.4028C63.5475 195.473 63.5475 194.179 63.4028 192.897C63.1359 191.465 60.0837 187.768 60.1759 184.594L66.2124 184.575Z" fill="#E0E0E0"/>
<path d="M67.6875 124.515H0.373535V184.963H67.6875V124.515Z" fill="#F5F5F5"/>
<path d="M49.5537 124.515L50.0535 184.963H67.6875V124.515H49.5537Z" fill="#E0E0E0"/>
<path d="M46.6178 128.965H3.40137V144.348H46.6178V128.965Z" fill="#EBEBEB"/>
<path d="M46.6178 147.409H3.40137V162.792H46.6178V147.409Z" fill="#EBEBEB"/>
<path d="M46.6178 165.859H3.40137V181.241H46.6178V165.859Z" fill="#EBEBEB"/>
<path d="M19.9679 107.148L18.1045 124.447H41.9885L43.9683 107.148H19.9679Z" fill="#E0E0E0"/>
<path d="M20.953 108.39L19.1382 123.525H40.693L42.4351 108.39H20.953Z" fill="white"/>
<path d="M24.578 110.938L23.4619 120.983H37.0635L37.7622 110.938H24.578Z" fill="#EBEBEB"/>
<path d="M43.1143 114.597L48.0493 124.515L41.9885 124.447L43.1143 114.597Z" fill="#EBEBEB"/>
<path d="M26.5916 137.457C26.5925 137.77 26.5006 138.076 26.3273 138.337C26.1541 138.598 25.9074 138.801 25.6184 138.922C25.3294 139.042 25.0112 139.074 24.704 139.014C24.3968 138.953 24.1145 138.803 23.8928 138.582C23.6711 138.361 23.5199 138.079 23.4585 137.772C23.3971 137.465 23.4281 137.147 23.5477 136.858C23.6673 136.568 23.87 136.321 24.1303 136.147C24.3905 135.973 24.6966 135.88 25.0096 135.88C25.4284 135.88 25.83 136.046 26.1265 136.341C26.423 136.637 26.5903 137.038 26.5916 137.457Z" fill="#E0E0E0"/>
<path d="M26.5916 156.09C26.5916 156.403 26.4988 156.709 26.325 156.969C26.1511 157.229 25.9041 157.432 25.615 157.552C25.326 157.672 25.0079 157.703 24.701 157.642C24.3942 157.581 24.1123 157.43 23.8911 157.209C23.6698 156.988 23.5192 156.706 23.4581 156.399C23.3971 156.092 23.4284 155.774 23.5481 155.485C23.6679 155.196 23.8706 154.949 24.1308 154.775C24.3909 154.601 24.6968 154.509 25.0097 154.509C25.2176 154.508 25.4236 154.548 25.6158 154.628C25.808 154.707 25.9826 154.823 26.1297 154.97C26.2767 155.117 26.3932 155.292 26.4725 155.484C26.5517 155.677 26.5922 155.883 26.5916 156.09Z" fill="#E0E0E0"/>
<path d="M26.5916 174.719C26.5916 175.032 26.4988 175.338 26.325 175.598C26.1511 175.858 25.9041 176.061 25.615 176.181C25.326 176.301 25.0079 176.332 24.701 176.271C24.3942 176.21 24.1123 176.059 23.8911 175.838C23.6698 175.617 23.5192 175.335 23.4581 175.028C23.3971 174.721 23.4284 174.403 23.5481 174.114C23.6679 173.825 23.8706 173.578 24.1308 173.404C24.3909 173.23 24.6968 173.137 25.0097 173.137C25.4292 173.137 25.8316 173.304 26.1282 173.601C26.4249 173.897 26.5916 174.3 26.5916 174.719Z" fill="#E0E0E0"/>
<path d="M46.55 26.2521L8.38501 25.8833L9.44771 75.6215L47.6127 75.7622L46.55 26.2521Z" fill="#E0E0E0"/>
<path d="M44.0897 28.4695L10.6802 27.6057L11.6458 72.7146L45.0456 73.1271L44.0897 28.4695Z" fill="#FAFAFA"/>
<path d="M38.3879 35.2099L16.2168 34.8411L16.8961 66.3726L39.043 65.8971L38.3879 35.2099Z" fill="#EBEBEB"/>
<path d="M16.8961 66.3726L38.6985 49.6994L16.2168 34.8411L16.8961 66.3726Z" fill="#F5F5F5"/>
<path d="M210.783 0.325119L177.296 0L178.232 43.6386L211.71 43.7599L210.783 0.325119Z" fill="#E0E0E0"/>
<path d="M208.619 2.27576L179.31 1.51392L180.159 41.0861L209.458 41.4452L208.619 2.27576Z" fill="#FAFAFA"/>
<path d="M203.616 8.18596L184.172 7.86084L184.764 35.5201L204.193 35.1077L203.616 8.18596Z" fill="#EBEBEB"/>
<path d="M184.764 35.5201L203.892 20.8947L184.172 7.86084L184.764 35.5201Z" fill="#F5F5F5"/>
<path d="M173.273 164.388C173.132 164.815 178.126 183.798 178.126 183.798L181.552 183.085L176.84 164.388H173.273Z" fill="#EBEBEB"/>
<path d="M199.821 161.676L192.969 183.798H196.968L203.533 163.248L199.821 161.676Z" fill="#F5F5F5"/>
<path d="M206.1 158.25L198.249 183.798H202.247L209.813 159.822L206.1 158.25Z" fill="#EBEBEB"/>
<path d="M175.699 182.231L179.698 196.075H199.821L203.533 182.231H175.699Z" fill="#E0E0E0"/>
<path d="M186.079 182.231C186.062 182.183 186.047 182.135 186.035 182.085L185.929 181.663C185.836 181.275 185.71 180.727 185.545 180.028L184.162 173.982L179.645 153.819L179.766 153.921H176.243L176.364 153.766C178.155 161.7 179.761 168.809 180.911 173.943C181.474 176.5 181.93 178.562 182.25 180.008C182.396 180.712 182.517 181.26 182.6 181.653C182.634 181.833 182.663 181.974 182.682 182.08C182.69 182.13 182.69 182.181 182.682 182.231C182.665 182.183 182.65 182.135 182.639 182.085C182.61 181.978 182.576 181.838 182.532 181.663C182.435 181.275 182.304 180.727 182.134 180.028C181.799 178.572 181.319 176.529 180.722 173.982C179.543 168.848 177.917 161.748 176.102 153.819L176.063 153.669H179.848L179.873 153.766C181.615 161.7 183.182 168.809 184.313 173.943C184.861 176.5 185.307 178.562 185.618 180.008C185.764 180.712 185.875 181.26 185.958 181.653L186.04 182.08C186.061 182.128 186.074 182.179 186.079 182.231Z" fill="#E0E0E0"/>
<path d="M205.746 196.653C205.746 196.72 159.677 196.779 102.873 196.779C46.0697 196.779 0 196.72 0 196.653C0 196.585 46.06 196.526 102.897 196.526C159.735 196.526 205.746 196.585 205.746 196.653Z" fill="#263238"/>
<path d="M192.499 64.2086C192.388 64.1617 192.272 64.126 192.154 64.1018C191.808 64.0238 191.448 64.0238 191.101 64.1018C190.54 64.2464 190.017 64.515 189.573 64.8879C188.969 65.4111 188.445 66.0211 188.02 66.6979C187.025 68.2216 186.244 70.3276 185.332 72.783C184.276 75.5867 183.363 78.442 182.595 81.3379C182.452 81.605 182.261 81.8436 182.032 82.0415C181.914 82.1493 181.774 82.2302 181.621 82.2787C181.469 82.3273 181.308 82.3424 181.149 82.323C180.837 82.2437 180.556 82.075 180.339 81.8377C180.11 81.6291 179.897 81.4059 179.683 81.1778C179.262 80.7145 178.813 80.277 178.339 79.8676C177.881 79.4269 177.272 79.1786 176.636 79.1737C176.318 79.2279 176.015 79.3484 175.747 79.5273C175.478 79.7062 175.251 79.9395 175.078 80.2121C174.734 80.8016 174.548 81.4704 174.54 82.1531C174.457 83.541 174.86 84.9433 175.103 86.3942C175.345 87.8451 175.651 89.3348 175.932 90.8537C176.078 91.6155 176.219 92.3822 176.364 93.1586L176.583 94.3329C176.649 94.538 176.671 94.755 176.647 94.9693C176.623 95.1836 176.553 95.3902 176.442 95.5752C176.369 95.6725 176.268 95.7455 176.153 95.7845C176.038 95.8235 175.914 95.8266 175.797 95.7935C175.587 95.7326 175.391 95.6321 175.219 95.4975L174.249 94.7599C173.588 94.2608 172.901 93.7976 172.191 93.3721C171.48 92.9297 170.704 92.6022 169.891 92.4016C169.489 92.307 169.07 92.307 168.668 92.4016C168.268 92.5029 167.915 92.7394 167.669 93.0713C167.202 93.7915 166.973 94.6401 167.014 95.4975C167.015 96.3804 167.101 97.2611 167.271 98.1276C167.621 99.9086 168.116 101.658 168.751 103.359C168.936 103.793 169.077 104.245 169.173 104.708C169.196 104.839 169.192 104.973 169.161 105.102C169.13 105.232 169.073 105.353 168.993 105.46C168.95 105.51 168.903 105.557 168.853 105.6C168.798 105.65 168.733 105.688 168.663 105.712C168.515 105.734 168.365 105.7 168.241 105.615C167.838 105.356 167.463 105.057 167.12 104.722L166.082 103.752C165.402 103.093 164.663 102.499 163.874 101.976C163.481 101.717 163.051 101.521 162.598 101.393C162.383 101.327 162.156 101.306 161.933 101.334C161.709 101.362 161.494 101.436 161.302 101.553C160.927 101.826 160.667 102.226 160.569 102.679C160.453 103.142 160.394 103.618 160.395 104.096C160.399 105.078 160.521 106.055 160.759 107.008C161.238 108.943 161.947 110.815 162.87 112.583C163.788 114.396 164.837 116.139 166.009 117.8C166.595 118.642 167.227 119.452 167.902 120.226C168.552 121.031 169.212 121.832 169.872 122.652V122.681L169.755 122.633L172.841 122.186C173.864 122.064 174.88 121.89 175.884 121.662C177.864 121.217 179.81 120.631 181.707 119.91C183.579 119.218 185.362 118.308 187.02 117.198C187.835 116.659 188.579 116.022 189.238 115.301C189.563 114.947 189.842 114.554 190.068 114.131C190.299 113.731 190.375 113.259 190.281 112.806C190.219 112.59 190.111 112.389 189.964 112.217C189.818 112.046 189.636 111.907 189.432 111.812C189.01 111.606 188.561 111.462 188.098 111.385C187.162 111.243 186.215 111.186 185.269 111.215H183.852C183.365 111.234 182.877 111.203 182.396 111.123C182.247 111.103 182.111 111.027 182.018 110.909C181.982 110.843 181.961 110.77 181.954 110.696C181.947 110.629 181.947 110.563 181.954 110.497C181.969 110.365 182.01 110.238 182.074 110.122C182.138 110.006 182.224 109.904 182.328 109.822C182.71 109.546 183.118 109.307 183.546 109.109C185.161 108.278 186.705 107.316 188.161 106.231C188.866 105.706 189.516 105.111 190.102 104.455C190.708 103.849 191.108 103.069 191.247 102.223C191.288 101.811 191.185 101.398 190.956 101.054C190.724 100.712 190.415 100.429 190.053 100.229C189.322 99.8263 188.53 99.543 187.71 99.3892C186.898 99.2257 186.079 99.1075 185.254 99.035L184.031 98.9185C183.813 98.9061 183.6 98.8482 183.405 98.7487C183.297 98.6927 183.208 98.6054 183.15 98.498C183.092 98.3907 183.068 98.2683 183.08 98.147C183.125 97.9368 183.213 97.7383 183.339 97.5645C183.466 97.3906 183.627 97.2452 183.813 97.1377L184.783 96.4195L186.652 94.9977L190.262 92.2561C191.422 91.3486 192.659 90.5819 193.533 89.495C193.979 88.9869 194.287 88.3716 194.425 87.7093C194.482 87.3909 194.47 87.0643 194.392 86.7507C194.313 86.4371 194.169 86.1436 193.969 85.8896C193.757 85.6555 193.483 85.4871 193.178 85.4043C192.874 85.3138 192.559 85.2616 192.242 85.249C191.617 85.2326 190.991 85.2553 190.369 85.317C190.058 85.317 189.748 85.3606 189.442 85.3655C189.123 85.3894 188.805 85.3202 188.525 85.1665C188.391 85.0759 188.278 84.9575 188.195 84.8193C188.111 84.6811 188.058 84.5264 188.039 84.3659C188.004 84.0642 188.022 83.7586 188.093 83.4633C189.482 80.832 190.737 78.1321 191.854 75.3742C192.824 72.9479 193.664 70.8614 193.964 69.0659C194.111 68.2822 194.144 67.4813 194.061 66.6882C193.999 66.1117 193.804 65.5572 193.494 65.0675C193.306 64.7678 193.05 64.5168 192.746 64.3347C192.643 64.2716 192.534 64.218 192.421 64.1746C192.539 64.2062 192.651 64.2535 192.756 64.3153C193.068 64.4938 193.334 64.7431 193.533 65.0432C193.849 65.5369 194.05 66.096 194.12 66.6785C194.214 67.4784 194.19 68.2878 194.047 69.0805C193.756 70.8808 192.931 72.9625 191.965 75.3887C190.872 78.1783 189.638 80.9105 188.268 83.5749C188.2 83.8478 188.184 84.1307 188.219 84.4095C188.232 84.5468 188.275 84.6798 188.343 84.7994C188.412 84.9191 188.505 85.0227 188.617 85.1035C188.87 85.2375 189.156 85.2964 189.442 85.2733C189.743 85.2733 190.048 85.2442 190.359 85.2199C190.989 85.1563 191.623 85.132 192.256 85.1471C192.585 85.1602 192.911 85.214 193.227 85.3073C193.56 85.3961 193.863 85.5758 194.1 85.8265C194.312 86.0984 194.464 86.4115 194.548 86.7458C194.631 87.08 194.644 87.428 194.586 87.7675C194.444 88.4627 194.123 89.1086 193.654 89.6405C192.756 90.7566 191.509 91.533 190.359 92.4453L186.754 95.1918L184.89 96.6087L183.944 97.3318C183.784 97.4386 183.639 97.5659 183.512 97.7103C183.395 97.8489 183.318 98.0166 183.289 98.1955C183.28 98.2762 183.297 98.3575 183.336 98.4287C183.375 98.4998 183.435 98.5573 183.507 98.5934C183.679 98.6765 183.865 98.7243 184.056 98.7341L185.278 98.8506C186.109 98.9213 186.936 99.0396 187.753 99.2048C188.602 99.3613 189.421 99.6512 190.179 100.064C190.566 100.286 190.898 100.593 191.15 100.961C191.403 101.347 191.519 101.807 191.48 102.267C191.336 103.161 190.917 103.989 190.281 104.635C189.679 105.301 189.012 105.908 188.292 106.445C186.826 107.54 185.273 108.514 183.648 109.356C183.235 109.544 182.842 109.771 182.474 110.036C182.393 110.097 182.326 110.175 182.276 110.263C182.226 110.352 182.194 110.449 182.183 110.55C182.178 110.598 182.178 110.647 182.183 110.696C182.183 110.734 182.183 110.827 182.216 110.822C182.279 110.878 182.357 110.913 182.44 110.924C182.895 110.997 183.357 111.026 183.818 111.011H185.235C186.196 110.976 187.157 111.033 188.107 111.181C188.597 111.257 189.072 111.409 189.515 111.632C189.749 111.744 189.956 111.904 190.124 112.103C190.291 112.301 190.414 112.533 190.485 112.782C190.595 113.292 190.512 113.825 190.252 114.277C190.018 114.718 189.727 115.127 189.388 115.495C188.717 116.232 187.958 116.884 187.127 117.436C185.454 118.561 183.653 119.481 181.76 120.177C179.848 120.907 177.886 121.497 175.889 121.944C174.881 122.172 173.863 122.347 172.837 122.468L169.746 122.919H169.673L169.629 122.861H169.605L167.635 120.435C166.961 119.659 166.327 118.849 165.737 118.008C164.557 116.336 163.499 114.579 162.574 112.753C161.646 110.966 160.934 109.074 160.453 107.119C160.208 106.153 160.082 105.161 160.079 104.164C160.08 103.663 160.142 103.165 160.264 102.679C160.378 102.171 160.675 101.722 161.098 101.418C161.319 101.281 161.567 101.193 161.825 101.159C162.082 101.126 162.344 101.148 162.593 101.223C163.068 101.358 163.52 101.564 163.932 101.835C164.734 102.365 165.485 102.97 166.174 103.64L167.213 104.611C167.543 104.931 167.904 105.219 168.29 105.469C168.359 105.519 168.442 105.546 168.528 105.547C168.528 105.547 168.6 105.503 168.634 105.479L168.741 105.372C168.8 105.29 168.841 105.198 168.863 105.099C168.885 105.001 168.886 104.899 168.867 104.8C168.775 104.355 168.639 103.921 168.46 103.504C167.822 101.791 167.325 100.029 166.975 98.2343C166.802 97.3536 166.716 96.4581 166.718 95.5606C166.679 94.6534 166.927 93.7571 167.426 92.9985C167.703 92.6301 168.096 92.3667 168.542 92.2512C168.978 92.1494 169.431 92.1494 169.867 92.2512C170.701 92.4484 171.498 92.7759 172.23 93.2217C172.949 93.6486 173.642 94.1168 174.307 94.6241L175.277 95.3617C175.422 95.4787 175.586 95.5691 175.763 95.6285C175.841 95.6514 175.924 95.6497 176.001 95.6237C176.079 95.5977 176.146 95.5485 176.195 95.483C176.29 95.3384 176.346 95.1709 176.355 94.9977C176.36 94.8049 176.338 94.6123 176.292 94.4251C176.219 94.0321 176.151 93.6439 176.078 93.2557C175.932 92.4793 175.792 91.7077 175.651 90.9507C175.374 89.427 175.098 87.9422 174.831 86.4913C174.564 85.0404 174.19 83.6331 174.273 82.2017C174.287 81.4923 174.484 80.7986 174.846 80.1879C175.032 79.8924 175.28 79.64 175.572 79.4476C175.864 79.2552 176.194 79.1271 176.539 79.0718C176.883 79.0435 177.227 79.1125 177.534 79.2708C177.832 79.4152 178.11 79.5961 178.364 79.8094C178.844 80.224 179.297 80.6681 179.722 81.139C179.929 81.3654 180.143 81.5838 180.363 81.7941C180.56 82.0032 180.812 82.1529 181.091 82.2259C181.228 82.2413 181.367 82.2271 181.498 82.1845C181.63 82.1418 181.75 82.0715 181.853 81.9784C182.065 81.7951 182.243 81.5748 182.377 81.3282C183.154 78.4275 184.08 75.5688 185.152 72.7635C186.074 70.313 186.87 68.2022 187.884 66.6785C188.318 65.9979 188.851 65.3861 189.466 64.8637C189.919 64.4886 190.452 64.2229 191.024 64.0873C191.375 64.0044 191.74 64.0044 192.091 64.0873C192.233 64.1043 192.371 64.1453 192.499 64.2086Z" fill="#263238"/>
<path d="M189.951 70.8079C189.943 70.8633 189.927 70.9172 189.903 70.968L189.738 71.4241C189.578 71.8366 189.355 72.4237 189.073 73.1662C188.481 74.6947 187.642 76.8832 186.603 79.5763L178.543 100.753C175.409 109.002 172.536 116.509 170.41 121.905C169.353 124.603 168.469 126.782 167.868 128.286C167.567 129.023 167.329 129.601 167.159 130.008C167.077 130.198 167.019 130.343 166.97 130.46L166.897 130.605C166.906 130.552 166.922 130.499 166.946 130.45C166.985 130.334 167.043 130.183 167.111 129.994C167.271 129.577 167.494 128.994 167.776 128.247C168.368 126.718 169.207 124.535 170.245 121.842L178.305 100.675C181.44 92.4015 184.308 84.9238 186.438 79.5278C187.496 76.8298 188.379 74.6462 188.981 73.1468C189.282 72.4092 189.52 71.8269 189.689 71.4193C189.772 71.2349 189.83 71.0845 189.879 70.9728L189.951 70.8079Z" fill="#263238"/>
<path d="M190.213 87.5732C189.83 87.8479 189.424 88.0898 189 88.2963L186.031 89.9461C184.866 90.5915 183.808 91.1689 183.027 91.562C182.616 91.7951 182.182 91.9838 181.731 92.1249C182.118 91.8552 182.523 91.6136 182.944 91.4019L185.904 89.7278C187.069 89.0824 188.132 88.5195 188.918 88.1361C189.331 87.9076 189.765 87.7191 190.213 87.5732Z" fill="#263238"/>
<path d="M181.338 91.8142C181.275 91.8433 180.12 89.6403 178.762 86.8938C177.403 84.1472 176.335 81.8957 176.408 81.8617C176.481 81.8277 177.626 84.0356 178.99 86.7822C180.353 89.5287 181.401 91.7802 181.338 91.8142Z" fill="#263238"/>
<path d="M177.097 104.737C176.709 104.45 176.352 104.125 176.03 103.766C175.399 103.135 174.574 102.238 173.676 101.199C172.778 100.161 172.051 99.1805 171.536 98.4526C171.234 98.0769 170.972 97.6703 170.755 97.2395C171.088 97.5859 171.396 97.9556 171.677 98.3459C172.23 99.0446 172.992 100.001 173.87 101.034C174.749 102.068 175.564 102.975 176.156 103.64C176.497 103.981 176.811 104.348 177.097 104.737Z" fill="#263238"/>
<path d="M185.972 102.65C185.558 102.816 185.129 102.942 184.691 103.028C183.896 103.227 182.789 103.485 181.566 103.756C180.344 104.028 179.227 104.242 178.422 104.416C177.989 104.525 177.547 104.592 177.102 104.615C177.516 104.451 177.945 104.326 178.383 104.242C179.179 104.043 180.285 103.756 181.513 103.509C182.741 103.261 183.847 103.024 184.653 102.854C185.085 102.745 185.527 102.677 185.972 102.65Z" fill="#263238"/>
<path d="M183.677 114.539C183.138 114.725 182.587 114.873 182.027 114.98C180.999 115.218 179.601 115.533 178.009 115.863C176.418 116.193 175.006 116.484 173.972 116.679C173.419 116.811 172.856 116.9 172.288 116.945C172.826 116.757 173.378 116.61 173.938 116.504C174.962 116.266 176.364 115.951 177.956 115.621C179.548 115.291 180.955 115 181.988 114.805C182.544 114.673 183.108 114.584 183.677 114.539Z" fill="#263238"/>
<path d="M172.541 116.81C172.405 116.716 172.283 116.605 172.177 116.48C171.953 116.256 171.643 115.926 171.259 115.509C170.498 114.674 169.474 113.495 168.396 112.151C167.319 110.807 166.392 109.545 165.747 108.619C165.422 108.158 165.17 107.779 165 107.512C164.899 107.381 164.817 107.235 164.757 107.08C164.879 107.191 164.986 107.317 165.077 107.454L165.893 108.517C166.572 109.414 167.518 110.652 168.595 111.991C169.673 113.33 170.667 114.529 171.395 115.388C171.808 115.836 172.19 116.311 172.541 116.81Z" fill="#263238"/>
<path d="M167.688 149.317C159.264 142.523 158.041 130.911 159.099 120.619C159.279 118.901 159.211 117.072 160.133 115.616C161.055 114.16 163.044 113.262 164.534 114.092C165.771 114.781 166.223 116.31 166.853 117.586C167.698 119.292 169.006 120.725 170.629 121.72C171.687 122.366 173.021 122.807 174.142 122.283C175.685 121.565 176 119.527 176.107 117.814L176.704 108.235C176.811 106.517 176.927 104.771 177.573 103.184C178.218 101.597 179.514 100.166 181.159 99.8161C182.804 99.4668 184.769 100.554 184.997 102.242C185.013 102.955 184.981 103.669 184.9 104.378C184.9 105.091 185.176 105.901 185.836 106.144C186.496 106.386 187.224 105.955 187.777 105.489C189.665 103.883 191.014 101.738 192.29 99.5978C193.566 97.4578 194.804 95.2645 196.541 93.4885C198.278 91.7125 200.593 90.3683 203.058 90.3974C205.523 90.4266 208.027 92.1201 208.483 94.5706C208.939 97.0211 207.362 99.3843 205.693 101.233C203.215 103.982 200.351 106.357 197.191 108.284C196.575 108.562 196.064 109.032 195.736 109.623C195.284 110.739 196.289 111.947 197.39 112.404C198.637 112.913 200.035 112.889 201.36 113.127C202.684 113.364 204.092 114.063 204.509 115.359C205.091 117.159 203.5 118.891 201.976 119.998C198.939 122.205 195.547 123.876 191.946 124.938C190.65 125.311 189.296 125.622 188.219 126.437C187.142 127.252 186.424 128.752 186.957 129.999C187.491 131.246 189.039 131.746 190.354 131.59C191.669 131.435 192.921 130.799 194.212 130.411C196.638 129.683 199.656 130.057 201.005 132.192C201.903 133.599 201.864 135.468 201.253 137.045C200.571 138.576 199.589 139.955 198.366 141.101C194.328 145.327 189.241 148.405 183.624 150.02C178.034 151.539 172.948 151.704 167.649 149.346" fill="#E7AF0E"/>
<g opacity="0.1">
<path d="M167.688 149.317C159.264 142.523 158.041 130.911 159.099 120.619C159.279 118.901 159.211 117.072 160.133 115.616C161.055 114.16 163.044 113.262 164.534 114.092C165.771 114.781 166.223 116.31 166.853 117.586C167.698 119.292 169.006 120.725 170.629 121.72C171.687 122.366 173.021 122.807 174.142 122.283C175.685 121.565 176 119.527 176.107 117.814L176.704 108.235C176.811 106.517 176.927 104.771 177.573 103.184C178.218 101.597 179.514 100.166 181.159 99.8161C182.804 99.4668 184.769 100.554 184.997 102.242C185.013 102.955 184.981 103.669 184.9 104.378C184.9 105.091 185.176 105.901 185.836 106.144C186.496 106.386 187.224 105.955 187.777 105.489C189.665 103.883 191.014 101.738 192.29 99.5978C193.566 97.4578 194.804 95.2645 196.541 93.4885C198.278 91.7125 200.593 90.3683 203.058 90.3974C205.523 90.4266 208.027 92.1201 208.483 94.5706C208.939 97.0211 207.362 99.3843 205.693 101.233C203.215 103.982 200.351 106.357 197.191 108.284C196.575 108.562 196.064 109.032 195.736 109.623C195.284 110.739 196.289 111.947 197.39 112.404C198.637 112.913 200.035 112.889 201.36 113.127C202.684 113.364 204.092 114.063 204.509 115.359C205.091 117.159 203.5 118.891 201.976 119.998C198.939 122.205 195.547 123.876 191.946 124.938C190.65 125.311 189.296 125.622 188.219 126.437C187.142 127.252 186.424 128.752 186.957 129.999C187.491 131.246 189.039 131.746 190.354 131.59C191.669 131.435 192.921 130.799 194.212 130.411C196.638 129.683 199.656 130.057 201.005 132.192C201.903 133.599 201.864 135.468 201.253 137.045C200.571 138.576 199.589 139.955 198.366 141.101C194.328 145.327 189.241 148.405 183.624 150.02C178.034 151.539 172.948 151.704 167.649 149.346" fill="black"/>
</g>
<path d="M167.028 156.964C167.837 152.214 169.098 147.552 170.794 143.042C172.893 137.54 175.305 132.163 178.019 126.937L180.13 122.812C180.829 121.458 181.518 120.119 182.275 118.848C183.732 116.414 185.321 114.062 187.035 111.802C188.661 109.633 190.276 107.634 191.805 105.775C193.334 103.917 194.799 102.218 196.196 100.724C198.391 98.3544 200.77 96.1623 203.31 94.1678C204.208 93.4642 204.921 92.9401 205.411 92.5907L205.969 92.1977C206.031 92.1509 206.096 92.1087 206.164 92.0715C206.113 92.1296 206.054 92.1802 205.989 92.222L205.45 92.6441C204.965 93.0081 204.271 93.5467 203.388 94.2697C200.883 96.2936 198.535 98.5029 196.361 100.879C194.979 102.378 193.528 104.086 191.994 105.945C190.461 107.803 188.864 109.827 187.253 111.981C185.549 114.234 183.971 116.58 182.527 119.008C181.775 120.274 181.071 121.604 180.397 122.958L178.286 127.082C175.579 132.298 173.164 137.661 171.051 143.144C169.349 147.635 168.071 152.275 167.232 157.003" fill="#263238"/>
<path d="M182.367 118.833C182.299 118.591 182.258 118.342 182.246 118.091C182.192 117.605 182.129 116.916 182.066 116.053C181.945 114.335 181.853 111.947 181.761 109.322C181.668 106.697 181.542 104.314 181.392 102.597C181.319 101.743 181.256 101.049 181.202 100.568C181.159 100.32 181.144 100.068 181.159 99.8162C181.238 100.054 181.293 100.3 181.324 100.549C181.411 101.034 181.513 101.718 181.615 102.577C181.824 104.29 181.984 106.673 182.1 109.308C182.217 111.943 182.26 114.248 182.314 116.043C182.348 116.853 182.372 117.533 182.396 118.081C182.411 118.332 182.401 118.584 182.367 118.833Z" fill="#263238"/>
<path d="M204.669 116.227C204.375 116.273 204.078 116.289 203.781 116.276C203.213 116.276 202.393 116.276 201.355 116.344C199.326 116.426 196.502 116.63 193.44 116.999C190.378 117.368 187.583 117.819 185.584 118.207C184.584 118.391 183.779 118.566 183.221 118.692C182.935 118.768 182.642 118.818 182.347 118.843C182.62 118.727 182.903 118.637 183.192 118.571C183.74 118.416 184.541 118.212 185.54 117.993C187.53 117.552 190.31 117.062 193.401 116.688C196.04 116.366 198.693 116.18 201.35 116.13C202.369 116.13 203.194 116.13 203.776 116.159C204.075 116.155 204.374 116.178 204.669 116.227Z" fill="#263238"/>
<path d="M171.095 142.644C171.037 142.559 170.993 142.466 170.964 142.368L170.639 141.543C170.362 140.829 169.988 139.781 169.547 138.486C168.659 135.89 167.543 132.265 166.363 128.252C165.184 124.239 164.107 120.604 163.272 117.994C162.865 116.722 162.525 115.679 162.278 114.903L162.011 114.063C161.973 113.967 161.948 113.865 161.938 113.762C161.993 113.849 162.037 113.941 162.069 114.039C162.156 114.262 162.263 114.524 162.389 114.864C162.666 115.577 163.04 116.625 163.486 117.921C164.374 120.517 165.49 124.142 166.664 128.16C167.839 132.177 168.926 135.802 169.76 138.413C170.168 139.684 170.503 140.728 170.731 141.504L170.998 142.343C171.044 142.439 171.076 142.54 171.095 142.644Z" fill="#263238"/>
<path d="M201.005 135.22C200.911 135.27 200.81 135.305 200.704 135.322L199.836 135.55L196.633 136.351C193.926 137.025 190.204 138 186.089 139.087C181.974 140.174 178.237 141.116 175.515 141.737C174.156 142.047 173.055 142.29 172.288 142.441L171.405 142.61C171.304 142.636 171.199 142.647 171.094 142.644C171.189 142.599 171.288 142.567 171.39 142.547L172.264 142.319L175.467 141.519C178.169 140.844 181.896 139.864 186.011 138.777C190.126 137.69 193.862 136.749 196.58 136.127C197.939 135.817 199.045 135.579 199.807 135.429L200.69 135.259C200.793 135.234 200.899 135.221 201.005 135.22Z" fill="#263238"/>
<path d="M169.649 15.3628H51.9705V176.612H169.649V15.3628Z" fill="#455A64"/>
<path d="M164.995 167.023H143.202H61.7725V21.8796H164.995V148.967V167.023Z" fill="#E0E0E0"/>
<path d="M163.365 164.33H141.766H61.0688V19.9629H163.365V146.371V164.33Z" fill="#EBEBEB"/>
<path d="M152.374 153.096L140.592 162.69H59.1619V20.3269H162.384V144.978L152.374 153.096Z" fill="#FAFAFA"/>
<path d="M152.374 153.082C152.374 153.082 152.582 152.902 153.005 152.558L154.892 151.014L162.36 144.934V144.963C162.36 124.486 162.321 78.9693 162.287 20.3123L162.399 20.4287H60.0743H59.1766L59.3028 20.3026C59.3028 73.8257 59.3028 123.2 59.2737 162.665L59.1766 162.563L140.607 162.622H140.577L149.428 155.445L151.646 153.654C152.131 153.256 152.388 153.062 152.388 153.062L151.661 153.669L149.443 155.508L140.621 162.719L59.1621 162.787H59.0602V162.685C59.0602 123.219 59.0602 73.8451 59.0359 20.322V20.1958H60.0598H162.385H162.501V20.3074C162.467 78.9839 162.438 124.481 162.428 144.959L154.931 151.01L153.034 152.596L152.374 153.082Z" fill="#263238"/>
<path d="M96.8464 10.3794H125.064C126.885 10.3794 128.631 11.1028 129.919 12.3905C131.207 13.6782 131.93 15.4246 131.93 17.2457V24.8593H89.6841V17.5368C89.6854 15.6381 90.4405 13.8176 91.7836 12.4755C93.1266 11.1333 94.9477 10.3794 96.8464 10.3794Z" fill="#E8C358"/>
<path d="M100.035 10.3794L98.4915 2.56689H122.817L121.463 10.3794H100.035Z" fill="#E8C358"/>
<path d="M87.3453 60.3989H69.9587V43.0076H87.3453V60.3989ZM70.444 59.9137H86.86V43.4928H70.444V59.9137Z" fill="#E8C358"/>
<path d="M148.802 47.2097C148.802 47.2776 136.695 47.3358 121.769 47.3358C106.843 47.3358 94.7307 47.2776 94.7307 47.2097C94.7307 47.1417 106.833 47.0835 121.769 47.0835C136.705 47.0835 148.802 47.1369 148.802 47.2097Z" fill="#263238"/>
<path d="M148.802 50.8203C148.802 50.893 136.695 50.9464 121.769 50.9464C106.843 50.9464 94.7307 50.893 94.7307 50.8203C94.7307 50.7475 106.833 50.6941 121.769 50.6941C136.705 50.6941 148.802 50.7523 148.802 50.8203Z" fill="#263238"/>
<path d="M148.802 54.4353C148.802 54.5032 136.695 54.5614 121.769 54.5614C106.843 54.5614 94.7307 54.5032 94.7307 54.4353C94.7307 54.3673 106.833 54.3091 121.769 54.3091C136.705 54.3091 148.802 54.3673 148.802 54.4353Z" fill="#263238"/>
<path d="M148.802 58.0502C148.802 58.1182 136.695 58.1764 121.769 58.1764C106.843 58.1764 94.7307 58.1182 94.7307 58.0502C94.7307 57.9823 106.833 57.9241 121.769 57.9241C136.705 57.9241 148.802 57.9726 148.802 58.0502Z" fill="#263238"/>
<path d="M87.3453 87.1992H69.9587V69.8079H87.3453V87.1992ZM70.444 86.714H86.86V70.2931H70.444V86.714Z" fill="#E8C358"/>
<path d="M148.802 74.0102C148.802 74.0781 136.695 74.1364 121.769 74.1364C106.843 74.1364 94.7307 74.0781 94.7307 74.0102C94.7307 73.9423 106.833 73.884 121.769 73.884C136.705 73.884 148.802 73.9423 148.802 74.0102Z" fill="#263238"/>
<path d="M148.802 77.6254C148.802 77.6934 136.695 77.7516 121.769 77.7516C106.843 77.7516 94.7307 77.6934 94.7307 77.6254C94.7307 77.5575 106.833 77.4993 121.769 77.4993C136.705 77.4993 148.802 77.5526 148.802 77.6254Z" fill="#263238"/>
<path d="M148.802 81.2355C148.802 81.3083 136.695 81.3617 121.769 81.3617C106.843 81.3617 94.7307 81.3083 94.7307 81.2355C94.7307 81.1628 106.833 81.1094 121.769 81.1094C136.705 81.1094 148.802 81.1676 148.802 81.2355Z" fill="#263238"/>
<path d="M148.802 84.8508C148.802 84.9187 136.695 84.9769 121.769 84.9769C106.843 84.9769 94.7307 84.9187 94.7307 84.8508C94.7307 84.7828 106.833 84.7246 121.769 84.7246C136.705 84.7246 148.802 84.7828 148.802 84.8508Z" fill="#263238"/>
<path d="M87.3453 113.136H69.9587V95.7446H87.3453V113.136ZM70.444 112.651H86.86V96.2299H70.444V112.651Z" fill="#E8C358"/>
<path d="M148.802 99.9467C148.802 100.015 136.695 100.073 121.769 100.073C106.843 100.073 94.7307 100.015 94.7307 99.9467C94.7307 99.8788 106.833 99.8206 121.769 99.8206C136.705 99.8206 148.802 99.8739 148.802 99.9467Z" fill="#263238"/>
<path d="M148.802 103.557C148.802 103.63 136.695 103.683 121.769 103.683C106.843 103.683 94.7307 103.63 94.7307 103.557C94.7307 103.484 106.833 103.431 121.769 103.431C136.705 103.431 148.802 103.489 148.802 103.557Z" fill="#263238"/>
<path d="M148.802 107.172C148.802 107.245 136.695 107.298 121.769 107.298C106.843 107.298 94.7307 107.245 94.7307 107.172C94.7307 107.1 106.833 107.046 121.769 107.046C136.705 107.046 148.802 107.104 148.802 107.172Z" fill="#263238"/>
<path d="M148.802 110.787C148.802 110.855 136.695 110.913 121.769 110.913C106.843 110.913 94.7307 110.855 94.7307 110.787C94.7307 110.719 106.833 110.661 121.769 110.661C136.705 110.661 148.802 110.719 148.802 110.787Z" fill="#263238"/>
<path d="M87.3453 138.18H69.9587V120.788H87.3453V138.18ZM70.444 137.694H86.86V121.274H70.444V137.694Z" fill="#E8C358"/>
<path d="M148.802 124.986C148.802 125.059 136.695 125.112 121.769 125.112C106.843 125.112 94.7307 125.059 94.7307 124.986C94.7307 124.913 106.833 124.86 121.769 124.86C136.705 124.86 148.802 124.937 148.802 124.986Z" fill="#263238"/>
<path d="M148.802 128.601C148.802 128.669 136.695 128.727 121.769 128.727C106.843 128.727 94.7307 128.669 94.7307 128.601C94.7307 128.533 106.833 128.475 121.769 128.475C136.705 128.475 148.802 128.533 148.802 128.601Z" fill="#263238"/>
<path d="M148.802 132.216C148.802 132.284 136.695 132.342 121.769 132.342C106.843 132.342 94.7307 132.284 94.7307 132.216C94.7307 132.148 106.833 132.09 121.769 132.09C136.705 132.09 148.802 132.143 148.802 132.216Z" fill="#263238"/>
<path d="M148.802 135.826C148.802 135.899 136.695 135.953 121.769 135.953C106.843 135.953 94.7307 135.899 94.7307 135.826C94.7307 135.754 106.833 135.7 121.769 135.7C136.705 135.7 148.802 135.758 148.802 135.826Z" fill="#263238"/>
<path d="M143.828 139.121L132.512 162.559H140.592L143.828 139.121Z" fill="#E0E0E0"/>
<path d="M140.592 162.69L143.828 139.252L162.384 144.978L140.592 162.69Z" fill="#FAFAFA"/>
<path d="M140.592 162.69L146.832 157.551L162.307 144.881L162.35 145.094L155.183 142.891L143.814 139.364L143.964 139.267C142.994 146.06 142.164 151.907 141.577 156.051C140.99 160.084 140.689 162.166 140.606 162.69C140.605 162.654 140.605 162.618 140.606 162.583L140.65 162.263C140.689 161.957 140.742 161.53 140.815 160.986C140.965 159.846 141.179 158.211 141.451 156.134C142.014 151.956 142.8 146.08 143.717 139.213V139.077L143.848 139.116L155.246 142.629L162.409 144.842L162.632 144.91L162.452 145.056C156.188 150.107 150.709 154.523 146.788 157.672L142.213 161.346L140.99 162.316L140.679 162.564L140.592 162.69Z" fill="#263238"/>
<g opacity="0.3">
<path d="M121.133 2.56689L119.794 10.3794H121.463L122.817 2.56689H120.687" fill="black"/>
</g>
<path d="M81.6061 45.0248C85.7795 46.143 88.2559 50.4333 87.1378 54.606C86.0197 58.7787 81.73 61.256 77.5565 60.1378C73.3831 59.0195 70.9067 54.7292 72.0248 50.5565C73.1429 46.3838 77.4326 43.9065 81.6061 45.0248ZM78.9745 54.8514C78.5577 54.7397 78.1293 54.9871 78.0176 55.4038C77.906 55.8206 78.1533 56.249 78.5701 56.3607C78.9869 56.4724 79.4152 56.225 79.5269 55.8082C79.6386 55.3915 79.3913 54.9631 78.9745 54.8514ZM80.5934 48.8029C80.2059 48.6992 79.8084 48.9055 79.6642 49.2697L79.6355 49.3565L78.6243 53.1357L78.6058 53.2252C78.5489 53.6128 78.7902 53.99 79.1778 54.0937C79.5654 54.1974 79.9629 53.9911 80.1071 53.6269L80.1357 53.5402L81.1469 49.7609L81.1654 49.6714C81.2223 49.2838 80.981 48.9066 80.5934 48.8029Z" fill="#E7AF0E"/>
<path d="M78.5813 72.1626C82.1264 72.1626 85 75.0369 85 78.5813C85 82.1257 82.1264 85 78.5813 85C75.0363 85 72.1626 82.1257 72.1626 78.5813C72.1626 75.0369 75.0363 72.1626 78.5813 72.1626ZM78.5825 80.5093C78.2285 80.5093 77.9415 80.7963 77.9415 81.1503C77.9415 81.5044 78.2285 81.7913 78.5825 81.7913C78.9365 81.7913 79.2235 81.5044 79.2235 81.1503C79.2235 80.7963 78.9365 80.5093 78.5825 80.5093ZM78.5811 75.372C78.2519 75.3721 77.9807 75.62 77.9437 75.9392L77.9394 76.0141L77.9406 79.224L77.9449 79.2988C77.9821 79.6181 78.2535 79.8657 78.5827 79.8656C78.9119 79.8655 79.1831 79.6176 79.2201 79.2984L79.2243 79.2235L79.2232 76.0136L79.2188 75.9387C79.1816 75.6195 78.9103 75.3718 78.5811 75.372Z" fill="#E7AF0E"/>
<path d="M78.5813 98C82.1264 98 85 100.874 85 104.419C85 107.963 82.1264 110.837 78.5813 110.837C75.0363 110.837 72.1626 107.963 72.1626 104.419C72.1626 100.874 75.0363 98 78.5813 98ZM78.5825 106.347C78.2285 106.347 77.9415 106.634 77.9415 106.988C77.9415 107.342 78.2285 107.629 78.5825 107.629C78.9365 107.629 79.2235 107.342 79.2235 106.988C79.2235 106.634 78.9365 106.347 78.5825 106.347ZM78.5811 101.209C78.2519 101.209 77.9807 101.457 77.9437 101.777L77.9394 101.851L77.9406 105.061L77.9449 105.136C77.9821 105.455 78.2535 105.703 78.5827 105.703C78.9119 105.703 79.1831 105.455 79.2201 105.136L79.2243 105.061L79.2232 101.851L79.2188 101.776C79.1816 101.457 78.9103 101.209 78.5811 101.209Z" fill="#E7AF0E"/>
<path d="M78.5813 123C82.1264 123 85 125.874 85 129.419C85 132.963 82.1264 135.837 78.5813 135.837C75.0363 135.837 72.1626 132.963 72.1626 129.419C72.1626 125.874 75.0363 123 78.5813 123ZM78.5825 131.347C78.2285 131.347 77.9415 131.634 77.9415 131.988C77.9415 132.342 78.2285 132.629 78.5825 132.629C78.9365 132.629 79.2235 132.342 79.2235 131.988C79.2235 131.634 78.9365 131.347 78.5825 131.347ZM78.5811 126.209C78.2519 126.209 77.9807 126.457 77.9437 126.777L77.9394 126.851L77.9406 130.061L77.9449 130.136C77.9821 130.455 78.2535 130.703 78.5827 130.703C78.9119 130.703 79.1831 130.455 79.2201 130.136L79.2243 130.061L79.2232 126.851L79.2188 126.776C79.1816 126.457 78.9103 126.209 78.5811 126.209Z" fill="#E7AF0E"/>
<path d="M49.8839 84.9626C50.4689 85.0067 51.0569 84.9325 51.6126 84.7444C52.1683 84.5563 52.6805 84.2582 53.1184 83.8678C53.5564 83.4773 53.9112 83.0027 54.1617 82.4721C54.4121 81.9416 54.5532 81.366 54.5763 80.7797C54.6685 78.402 54.751 76 54.751 76C54.751 76 58.3515 75.6652 58.633 72.118C58.9144 68.5708 58.7737 60.3313 58.7737 60.3313C56.7999 59.3355 54.596 58.8851 52.3898 59.0267C50.1836 59.1683 48.0553 59.8968 46.2251 61.1368L46.4435 73.6757V80.4255C46.4483 82.6674 47.6275 84.7928 49.8839 84.9626Z" fill="#FFBE9D"/>
<path d="M55.0613 67.7507C54.7983 67.3727 54.4024 67.1078 53.9527 67.0088C53.5029 66.9099 53.0324 66.9842 52.635 67.2169C52.2317 67.4971 51.9411 67.9115 51.8149 68.3861C51.6887 68.8607 51.7351 69.3647 51.946 69.8082C52.1297 70.1373 52.3799 70.4246 52.6806 70.6518C52.9814 70.8791 53.3261 71.0412 53.6929 71.1281C54.0181 71.1988 54.3064 71.3856 54.5038 71.6536C54.7012 71.9215 54.7941 72.2522 54.7653 72.5838C54.6159 73.5204 54.1783 74.3871 53.5133 75.0634C52.4142 76.1819 50.9512 76.8704 49.3887 77.0044C47.8699 77.184 46.1327 76.8686 45.2495 75.6215C44.6041 74.7141 44.5605 73.5252 44.5362 72.414C44.4812 69.7871 44.4262 67.1603 44.3712 64.5335C44.3141 63.5867 44.3744 62.6365 44.5508 61.7045C44.7366 60.7645 45.2704 59.9292 46.0453 59.3656C46.9139 58.793 48.0106 58.7445 48.9957 58.429C50.233 58.0263 51.2812 57.2111 52.4361 56.6191C53.591 56.0271 55.0031 55.6728 56.1628 56.2551C56.9974 56.6724 57.5555 57.5022 58.361 57.9632C59.5159 58.6183 61.0832 58.4485 61.6413 60.1662C61.8377 60.7536 61.8377 61.3889 61.6413 61.9762C60.86 64.2812 58.0068 65.2128 55.9493 64.2181C55.9105 64.6063 56.2938 65.4749 55.8814 66.7074C55.7503 67.1053 55.7067 67.7022 55.0904 67.7167" fill="#263238"/>
<path d="M45.2253 60.3991C45.7909 59.2721 46.1772 58.0639 46.3705 56.8179C46.462 56.1939 46.4085 55.5571 46.2141 54.9571C46.0197 54.3571 45.6897 53.8099 45.2496 53.3581C44.6001 52.7941 43.7607 52.4975 42.901 52.5283C42.0843 52.5748 41.302 52.8725 40.6609 53.3806C40.0199 53.8888 39.5515 54.5825 39.3199 55.367C39.12 56.158 39.1508 56.9896 39.4088 57.7636C39.6668 58.5376 40.1411 59.2214 40.7756 59.7343C41.4244 60.2326 42.1933 60.5506 43.0045 60.6563C43.8157 60.762 44.6404 60.6515 45.3952 60.336" fill="#263238"/>
<path d="M45.924 59.1131C45.8978 59.5487 45.7103 59.959 45.3982 60.264C45.086 60.569 44.6715 60.7468 44.2354 60.7629C44.2354 60.6901 44.7594 60.5494 45.2059 60.0836C45.6523 59.6177 45.8561 59.0937 45.924 59.1131Z" fill="#E8C358"/>
<path d="M44.7547 59.9866C44.4765 60.2781 44.1477 60.5165 43.7842 60.6902C43.3957 60.9116 42.9596 61.0365 42.5128 61.0541C42.2291 61.0695 41.9458 61.0167 41.6866 60.9002C41.4275 60.7837 41.2 60.6069 41.0231 60.3845C40.8665 60.1504 40.7621 59.8854 40.7169 59.6075C40.6717 59.3295 40.6867 59.0451 40.761 58.7735C40.8737 58.3424 41.0772 57.9403 41.3579 57.5943C41.5902 57.2663 41.8756 56.9793 42.2022 56.7451C41.9863 57.0805 41.753 57.4044 41.5035 57.7156C41.2599 58.0535 41.0851 58.4361 40.9891 58.8414C40.9286 59.0804 40.9184 59.3294 40.9594 59.5725C41.0003 59.8156 41.0914 60.0475 41.2269 60.2535C41.382 60.4429 41.5787 60.594 41.8018 60.695C42.0248 60.796 42.2681 60.8442 42.5128 60.8358C42.9275 60.8291 43.3354 60.7296 43.7065 60.5446C44.3373 60.2195 44.7304 59.9478 44.7547 59.9866Z" fill="#263238"/>
<path d="M38.6989 64.0092C38.772 64.1324 38.8291 64.2645 38.8687 64.4023C38.9945 64.7659 39.1727 65.1092 39.3977 65.4213C39.5472 65.647 39.7568 65.8266 40.0028 65.9397C40.2489 66.0529 40.5216 66.0951 40.7903 66.0618C41.112 65.971 41.4047 65.7986 41.6402 65.5614C41.8757 65.3242 42.0459 65.0303 42.1345 64.708C42.3088 64.0293 42.4305 63.3382 42.4984 62.6408C42.5669 62.0428 42.8023 61.4761 43.1778 61.0055C43.4466 60.696 43.8129 60.4872 44.2162 60.4135C44.3621 60.3778 44.5156 60.3915 44.6529 60.4523C44.6529 60.4523 44.4928 60.4523 44.2356 60.5106C43.8712 60.6113 43.5482 60.8255 43.3136 61.122C42.983 61.578 42.7803 62.1141 42.7265 62.6748C42.6705 63.389 42.5519 64.0969 42.3722 64.7905C42.2721 65.1545 42.0768 65.4853 41.8065 65.7488C41.5361 66.0123 41.2005 66.1991 40.834 66.2899C40.4989 66.3434 40.1556 66.2782 39.8635 66.1055C39.6211 65.9584 39.4127 65.7616 39.2521 65.528C39.0296 65.1943 38.8655 64.8251 38.7668 64.4362C38.717 64.2996 38.694 64.1546 38.6989 64.0092Z" fill="#263238"/>
<path d="M36.9469 93.9445C36.9469 93.9445 35.1272 107.25 36.9469 108.939C38.7666 110.627 40.5087 110.064 40.5087 110.064L43.9685 107.153L44.6479 93.925L36.9469 93.9445Z" fill="#FFBE9D"/>
<path d="M85.3799 57.2693L82.0317 59.4189C81.8813 58.0942 80.872 56.784 80.9205 57.4488C80.969 58.1136 80.9205 61.5637 80.9205 61.5637L74.9568 74.1269C74.1464 76.1164 72.5014 77.3684 71.2737 77.6644L65.6885 79.3239L67.8673 86.6949L75.6313 84.123C76.6222 83.7947 77.5225 83.2387 78.2598 82.4997C78.9972 81.7607 79.5511 80.8591 79.8772 79.8674L85.215 63.6018C85.5694 62.5541 85.8547 61.4842 86.069 60.3992C86.3019 59.0356 85.3799 57.2693 85.3799 57.2693Z" fill="#FFBE9D"/>
<path d="M57.9488 194.678L57.8614 190.956L50.8835 191.067L50.9466 196.517L51.3834 196.541C53.3244 196.614 61.1903 196.789 62.4713 196.381C63.898 195.92 57.9488 194.678 57.9488 194.678Z" fill="#E8C358"/>
<g opacity="0.5">
<path d="M53.4794 196.424C53.3618 195.844 53.0355 195.326 52.5623 194.969C52.0962 194.606 51.5104 194.433 50.9221 194.483L50.9512 196.424H53.4794Z" fill="white"/>
</g>
<g opacity="0.4">
<path d="M60.8358 195.391C60.8358 195.391 62.9224 195.954 62.6701 196.303C62.4177 196.653 54.4499 196.788 50.927 196.517V196.361L60.2244 196.298C60.2244 196.298 60.4525 195.415 60.8358 195.391Z" fill="white"/>
</g>
<path d="M50.8446 196.357H50.9659H51.3105L52.5818 196.391C53.6542 196.415 55.1342 196.425 56.7695 196.391C58.4048 196.357 59.8897 196.313 60.9573 196.26L62.2286 196.187L62.5731 196.163H62.6896H62.5683H62.2238L60.9573 196.211C59.8849 196.245 58.4048 196.294 56.7695 196.318C55.1342 196.342 53.6542 196.318 52.5818 196.318H51.3153H50.8301L50.8446 196.357Z" fill="#263238"/>
<path d="M60.2536 196.405C60.3041 196.194 60.3807 195.99 60.4817 195.798C60.6039 195.621 60.7455 195.459 60.9039 195.313C60.6974 195.41 60.5249 195.567 60.4089 195.764C60.2929 195.96 60.2388 196.187 60.2536 196.415V196.405Z" fill="#263238"/>
<path d="M58.1767 195.391C58.1767 195.391 58.2931 195.284 58.395 195.124C58.4969 194.964 58.5552 194.818 58.5357 194.809C58.5163 194.799 58.4193 194.915 58.3222 195.076C58.2252 195.236 58.1572 195.381 58.1767 195.391Z" fill="#263238"/>
<path d="M57.6089 195.105C57.6089 195.105 57.7302 195.046 57.8515 194.935C57.9728 194.823 58.0505 194.721 58.0359 194.707C58.0214 194.692 57.9098 194.765 57.7933 194.872C57.6768 194.978 57.5895 195.085 57.6089 195.105Z" fill="#263238"/>
<path d="M57.2402 194.45C57.3566 194.492 57.4815 194.505 57.6042 194.488C57.7272 194.503 57.8519 194.488 57.9681 194.445C57.8506 194.407 57.7269 194.394 57.6042 194.406C57.4811 194.392 57.3565 194.407 57.2402 194.45Z" fill="#263238"/>
<path d="M57.1091 193.989C57.2317 194.064 57.373 194.102 57.5167 194.1C57.6606 194.121 57.8074 194.099 57.9389 194.037C57.8001 194.024 57.6604 194.024 57.5216 194.037C57.3859 194.008 57.2478 193.992 57.1091 193.989Z" fill="#263238"/>
<path d="M58.4097 194.779C58.5572 194.807 58.7085 194.807 58.8561 194.779C59.021 194.758 59.1835 194.72 59.3413 194.668C59.4356 194.638 59.5267 194.599 59.6131 194.551C59.6404 194.537 59.6645 194.517 59.6837 194.493C59.7029 194.469 59.7169 194.441 59.7247 194.411C59.7304 194.377 59.7266 194.342 59.7138 194.311C59.7009 194.279 59.6795 194.251 59.6519 194.231C59.479 194.151 59.2839 194.133 59.0992 194.18C58.9145 194.227 58.7516 194.336 58.6377 194.488C58.5724 194.579 58.5247 194.681 58.497 194.789C58.4885 194.829 58.4885 194.871 58.497 194.911C58.5434 194.773 58.6105 194.644 58.696 194.527C58.7961 194.408 58.927 194.319 59.0745 194.27C59.2509 194.209 59.4443 194.219 59.6131 194.299C59.681 194.352 59.6568 194.435 59.5791 194.483C59.4987 194.529 59.4142 194.566 59.3268 194.595C59.1686 194.65 59.0063 194.692 58.8415 194.721C58.5747 194.765 58.4097 194.765 58.4097 194.779Z" fill="#263238"/>
<path d="M58.5211 194.813C58.5757 194.72 58.5931 194.609 58.5696 194.503C58.5513 194.386 58.5065 194.275 58.4386 194.178C58.4002 194.112 58.3458 194.057 58.2805 194.018C58.2152 193.979 58.141 193.957 58.065 193.955C58.0423 193.959 58.0207 193.968 58.0015 193.981C57.9824 193.994 57.966 194.011 57.9534 194.03C57.9407 194.05 57.9321 194.072 57.9279 194.094C57.9237 194.117 57.9241 194.141 57.9291 194.163C57.9399 194.235 57.9664 194.302 58.0068 194.362C58.0657 194.462 58.1393 194.552 58.2251 194.629C58.2944 194.71 58.3828 194.771 58.4823 194.809C58.4823 194.809 58.395 194.731 58.2688 194.59C58.1961 194.507 58.1311 194.418 58.0747 194.323C58.0116 194.231 57.9679 194.061 58.0747 194.037C58.1814 194.013 58.3028 194.134 58.3707 194.221C58.4357 194.308 58.4819 194.407 58.5066 194.513C58.5199 194.612 58.5248 194.713 58.5211 194.813Z" fill="#263238"/>
<path d="M50.9609 194.445C50.9609 194.445 51.1599 194.445 51.4753 194.445C51.8867 194.484 52.2787 194.638 52.6059 194.891C52.9331 195.143 53.1821 195.483 53.3241 195.871C53.4357 196.167 53.4503 196.356 53.4648 196.356C53.4744 196.31 53.4744 196.262 53.4648 196.216C53.449 196.089 53.4214 195.964 53.3823 195.842C53.2478 195.437 52.9944 195.081 52.6552 194.822C52.316 194.562 51.9066 194.41 51.4802 194.386C51.3528 194.372 51.2242 194.372 51.0968 194.386C51.0481 194.397 51.0019 194.416 50.9609 194.445Z" fill="#263238"/>
<path d="M51.6404 191.533C51.597 192.009 51.584 192.487 51.6016 192.965C51.5861 193.45 51.6007 193.937 51.6452 194.42C51.6894 193.937 51.7023 193.45 51.6841 192.965C51.6957 192.487 51.6812 192.009 51.6404 191.533Z" fill="#263238"/>
<path d="M54.3433 195.731C54.6799 195.8 55.0238 195.828 55.3671 195.813C55.7097 195.828 56.0526 195.795 56.3862 195.716C56.3862 195.692 55.9009 195.716 55.3671 195.716C54.8334 195.716 54.3481 195.706 54.3433 195.731Z" fill="#263238"/>
<path d="M52.9797 195.745C52.9797 195.745 53.0186 195.842 53.0622 195.949C53.1059 196.056 53.1399 196.143 53.1641 196.143C53.1884 196.143 53.1981 196.031 53.1399 195.91C53.0816 195.789 52.9943 195.731 52.9797 195.745Z" fill="#263238"/>
<path d="M52.4507 195.114C52.4507 195.114 52.4798 195.202 52.5574 195.275C52.6351 195.347 52.703 195.391 52.7176 195.376C52.7321 195.362 52.6885 195.284 52.6157 195.216C52.5429 195.148 52.4701 195.095 52.4507 195.114Z" fill="#263238"/>
<path d="M51.7082 194.813C51.7082 194.813 51.8101 194.813 51.912 194.867C52.0139 194.92 52.0867 194.954 52.1061 194.94C52.1255 194.925 52.0673 194.828 51.9362 194.789C51.8052 194.75 51.7033 194.813 51.7082 194.813Z" fill="#263238"/>
<path d="M51.1843 194.702C51.1843 194.702 51.2134 194.76 51.2717 194.78C51.3299 194.799 51.3833 194.804 51.393 194.78C51.4027 194.755 51.359 194.721 51.3008 194.702C51.2426 194.683 51.1892 194.678 51.1843 194.702Z" fill="#263238"/>
<path d="M33.3173 193.489L35.6853 190.611L30.3185 186.142L26.8149 190.315L27.1255 190.616C28.5376 191.931 34.4043 197.201 35.6368 197.725C37.0198 198.312 33.3173 193.489 33.3173 193.489Z" fill="#E8C358"/>
<g opacity="0.5">
<path d="M28.8094 191.902C29.1063 191.383 29.2013 190.773 29.0763 190.189C28.9573 189.612 28.6245 189.1 28.1446 188.758L26.8684 190.247L28.8094 191.902Z" fill="white"/>
</g>
<g opacity="0.4">
<path d="M35.0593 195.925C35.0593 195.925 36.2725 197.715 35.8552 197.812C35.4378 197.909 29.2946 192.805 26.8149 190.315L26.9217 190.204L34.0112 196.221C34.0112 196.221 34.7342 195.677 35.0593 195.925Z" fill="white"/>
</g>
<path d="M26.8391 190.131L26.9216 190.218L27.1739 190.456L28.1153 191.31C28.9111 192.023 30.0272 192.999 31.284 194.047C32.5408 195.095 33.7103 196.022 34.5449 196.682L35.5542 197.453L35.8308 197.657L35.9327 197.725L35.8405 197.643L35.5736 197.424L34.6031 196.633C33.7636 195.964 32.6136 195.032 31.3568 193.984C30.1 192.936 28.9791 191.97 28.1736 191.266L27.203 190.432L26.941 190.204L26.8391 190.131Z" fill="#263238"/>
<path d="M33.9385 196.303C34.1153 196.174 34.3077 196.068 34.5111 195.988C34.7209 195.934 34.9354 195.902 35.1516 195.891C34.9355 195.811 34.6981 195.811 34.482 195.891C34.2568 195.958 34.0637 196.104 33.9385 196.303Z" fill="#263238"/>
<path d="M33.0261 194.178C33.0261 194.202 33.1863 194.178 33.3658 194.115C33.5453 194.052 33.6909 193.993 33.6812 193.969C33.6715 193.945 33.5211 193.969 33.3415 194.032C33.2272 194.058 33.1196 194.107 33.0261 194.178Z" fill="#263238"/>
<path d="M32.7834 193.586C32.7834 193.586 32.9145 193.625 33.0795 193.62C33.2444 193.615 33.3706 193.591 33.3706 193.566C33.3706 193.542 33.2347 193.528 33.0746 193.532C32.9747 193.528 32.8751 193.546 32.7834 193.586Z" fill="#263238"/>
<path d="M32.9292 192.872C32.9292 192.872 33.0263 193.008 33.1815 193.139C33.2691 193.228 33.3729 193.299 33.4872 193.348C33.4872 193.348 33.3902 193.207 33.2349 193.076C33.0796 192.945 32.9486 192.834 32.9292 192.872Z" fill="#263238"/>
<path d="M33.1328 192.416C33.1856 192.55 33.2662 192.67 33.3691 192.769C33.472 192.869 33.5949 192.945 33.7297 192.994C33.6357 192.892 33.5352 192.796 33.4288 192.708C33.2687 192.552 33.1765 192.387 33.1328 192.416Z" fill="#263238"/>
<path d="M33.5987 193.843C33.6949 193.959 33.8117 194.056 33.9432 194.129C34.0809 194.218 34.2272 194.293 34.38 194.352C34.4702 194.393 34.5645 194.424 34.6614 194.445C34.7225 194.455 34.7851 194.441 34.8361 194.406C34.8628 194.385 34.883 194.357 34.8942 194.325C34.9054 194.294 34.9071 194.259 34.8992 194.226C34.8243 194.049 34.6897 193.903 34.5186 193.814C34.3475 193.726 34.1508 193.7 33.9626 193.741C33.8518 193.763 33.7473 193.809 33.6569 193.877C33.6229 193.899 33.5933 193.927 33.5696 193.959C33.6939 193.884 33.83 193.83 33.9723 193.799C34.1264 193.773 34.2848 193.791 34.4285 193.853C34.6014 193.92 34.7409 194.052 34.8167 194.221C34.8167 194.309 34.7633 194.357 34.6711 194.343C34.5816 194.323 34.4939 194.295 34.4091 194.26C34.2595 194.205 34.1151 194.137 33.9772 194.056C33.7394 193.964 33.6084 193.843 33.5987 193.843Z" fill="#263238"/>
<path d="M33.6619 193.955C33.6619 193.955 33.7881 193.916 33.9045 193.751C33.9671 193.651 34.0068 193.538 34.021 193.421C34.0321 193.345 34.0252 193.268 34.0007 193.195C33.9762 193.123 33.935 193.057 33.8803 193.003C33.8384 192.981 33.7894 192.976 33.7439 192.99C33.6985 193.003 33.6602 193.034 33.6376 193.076C33.6007 193.137 33.5775 193.205 33.5697 193.275C33.5555 193.39 33.5555 193.505 33.5697 193.62C33.5697 193.726 33.5964 193.832 33.6473 193.925C33.6473 193.925 33.6473 193.804 33.6473 193.62C33.646 193.509 33.6558 193.398 33.6765 193.29C33.6765 193.178 33.7638 193.023 33.8657 193.076C33.9676 193.13 33.9725 193.299 33.9725 193.411C33.9638 193.518 33.9324 193.623 33.8803 193.717C33.8165 193.804 33.7433 193.884 33.6619 193.955Z" fill="#263238"/>
<path d="M28.1736 188.758C28.1736 188.758 28.3386 188.869 28.5569 189.097C28.8411 189.398 29.0375 189.77 29.1247 190.175C29.2051 190.58 29.1715 191 29.0276 191.388C28.916 191.688 28.7947 191.849 28.8093 191.873C28.8457 191.841 28.8769 191.803 28.9015 191.761C28.9738 191.657 29.034 191.544 29.081 191.426C29.2488 191.032 29.2927 190.595 29.2072 190.175C29.1196 189.755 28.9083 189.371 28.6006 189.073C28.5089 188.983 28.4081 188.904 28.2997 188.835C28.2631 188.801 28.2202 188.775 28.1736 188.758Z" fill="#263238"/>
<path d="M30.5901 186.986C30.2454 187.321 29.9213 187.675 29.6196 188.049C29.2993 188.405 28.998 188.777 28.717 189.165C29.0639 188.835 29.3881 188.481 29.6875 188.107C30.0073 187.749 30.3086 187.375 30.5901 186.986Z" fill="#263238"/>
<path d="M29.9011 191.936C30.1085 192.208 30.3498 192.453 30.6193 192.664C30.8712 192.898 31.1536 193.097 31.4588 193.256C31.4588 193.256 31.1045 192.965 30.6775 192.601C30.2505 192.237 29.9205 191.902 29.9011 191.936Z" fill="#263238"/>
<path d="M28.853 191.058C28.853 191.058 28.819 191.155 28.7899 191.266C28.7608 191.378 28.7171 191.461 28.7365 191.475C28.7559 191.49 28.8336 191.417 28.8724 191.286C28.9112 191.155 28.8772 191.053 28.853 191.058Z" fill="#263238"/>
<path d="M28.8676 190.233C28.8433 190.233 28.8336 190.32 28.8433 190.422C28.853 190.524 28.8773 190.606 28.9015 190.606C28.9258 190.606 28.9355 190.519 28.9015 190.417C28.8676 190.315 28.8918 190.233 28.8676 190.233Z" fill="#263238"/>
<path d="M28.489 189.534C28.489 189.558 28.5521 189.616 28.6055 189.709C28.6589 189.801 28.6831 189.893 28.7074 189.893C28.7316 189.893 28.7462 189.781 28.6783 189.665C28.6103 189.549 28.4987 189.515 28.489 189.534Z" fill="#263238"/>
<path d="M28.1736 189.092C28.1736 189.092 28.1736 189.16 28.1736 189.214C28.1736 189.267 28.2464 189.301 28.2658 189.291C28.2852 189.282 28.2658 189.223 28.2658 189.17C28.2658 189.117 28.193 189.083 28.1736 189.092Z" fill="#263238"/>
<path d="M47.8409 115.519C47.8409 115.519 45.5165 125.35 46.1764 127.296C46.8364 129.242 51.092 130.362 51.092 130.362L50.9465 157.289L27.4021 186.404L36.0881 193.508C36.0881 193.508 61.5831 164.349 63.8299 159.055C66.0766 153.761 62.3741 115.067 62.3741 115.067L47.8409 115.519Z" fill="#263238"/>
<path d="M59.8653 111.51L61.0153 193.285L49.0442 193.358L43.0319 126.743C41.7606 125.529 39.97 123.453 40.2175 118.818L40.5086 113.437L59.8653 111.51Z" fill="#263238"/>
<path d="M47.249 161.841C47.2665 161.798 47.2893 161.757 47.317 161.719C47.38 161.632 47.4528 161.52 47.545 161.385L48.433 160.128L51.6842 155.625V155.688C51.4222 152.849 51.1068 149.409 50.7671 145.696C50.3304 140.844 49.981 136.428 49.7723 133.23C49.6656 131.634 49.5976 130.343 49.5588 129.45C49.5588 129.023 49.5297 128.679 49.5248 128.417C49.51 128.297 49.51 128.177 49.5248 128.058C49.5483 128.176 49.5629 128.296 49.5685 128.417C49.5685 128.674 49.617 129.018 49.651 129.445C49.7238 130.363 49.8208 131.644 49.947 133.221C50.1993 136.409 50.5778 140.81 51.0146 145.672C51.3397 149.399 51.6697 152.835 51.888 155.688V155.722V155.751L48.5641 160.196L47.6275 161.423L47.3752 161.739C47.2733 161.816 47.249 161.846 47.249 161.841Z" fill="#455A64"/>
<path d="M50.9174 128.058C49.8462 128.001 48.7832 127.838 47.7438 127.572C46.6866 127.394 45.6496 127.111 44.6479 126.728C45.7087 126.864 46.7603 127.063 47.7972 127.325C48.8504 127.509 49.8921 127.754 50.9174 128.058Z" fill="#455A64"/>
<path d="M59.1182 155.993C58.0849 155.565 56.9974 155.281 55.8864 155.149C54.7672 155.104 53.647 155.213 52.5576 155.474C52.8421 155.295 53.1584 155.171 53.4893 155.11C54.2804 154.904 55.1005 154.832 55.9155 154.897C56.7254 154.962 57.5189 155.16 58.2642 155.484C58.5771 155.601 58.8663 155.774 59.1182 155.993Z" fill="#455A64"/>
<path d="M63.3446 159.769C63.398 159.812 60.0303 164.335 55.8183 169.867C51.6064 175.399 48.1465 179.858 48.0932 179.819C48.0398 179.78 51.4074 175.253 55.6194 169.716C59.8314 164.18 63.2912 159.725 63.3446 159.769Z" fill="#455A64"/>
<path d="M61.7237 117.581C61.5857 117.935 61.3522 118.244 61.0492 118.474C60.7025 118.778 60.2967 119.006 59.8573 119.146C59.4179 119.285 58.9544 119.332 58.496 119.284C58.0376 119.235 57.5941 119.093 57.1934 118.865C56.7927 118.637 56.4435 118.329 56.1676 117.959C55.9108 117.676 55.7422 117.323 55.6824 116.945C55.8691 117.256 56.0733 117.556 56.2938 117.843C56.8484 118.515 57.6448 118.943 58.5116 119.034C59.3784 119.124 60.2461 118.871 60.9279 118.328C61.2061 118.093 61.4717 117.844 61.7237 117.581Z" fill="#455A64"/>
<path d="M45.3564 75.505C43.3838 73.6308 42.2207 71.0606 42.1146 68.3416C42.0086 65.6227 42.968 62.9697 44.7887 60.9475" fill="#263238"/>
<path d="M38.6259 83.1331C38.6259 83.1331 36.025 86.0737 35.4863 97.3169C35.4863 97.3169 42.8961 98.7241 43.032 98.3214C43.1678 97.9186 38.6259 83.1331 38.6259 83.1331Z" fill="#E8C358"/>
<g opacity="0.3">
<path d="M38.6259 83.1331C38.6259 83.1331 36.025 86.0737 35.4863 97.3169C35.4863 97.3169 42.8961 98.7241 43.032 98.3214C43.1678 97.9186 38.6259 83.1331 38.6259 83.1331Z" fill="black"/>
</g>
<path d="M39.8295 115.883H62.5829L62.2141 112.326C62.2141 112.326 59.6131 98.8066 59.6325 98.627L60.0401 97.7681C60.5718 96.6529 60.8561 95.4359 60.8737 94.2006C60.8913 92.9652 60.6417 91.7406 60.142 90.6107L71.3028 86.8015L68.5757 77.6108C63.5194 78.46 55.8767 79.416 55.8767 79.416L54.7412 79.5082C54.7412 79.5082 46.851 79.9206 46.6812 79.94C43.3815 80.3428 39.5432 80.5951 38.1408 84.1277C37.3886 86.0154 38.102 88.8492 39.3296 91.7704L42.2412 100.748C43.4058 105.683 41.5472 105.445 40.5234 110.414C40.3584 111.161 39.8149 115.193 39.8295 115.883Z" fill="#E8C358"/>
<g opacity="0.3">
<path d="M39.8295 115.883H62.5829L62.2141 112.326C62.2141 112.326 59.6131 98.8066 59.6325 98.627L60.0401 97.7681C60.5718 96.6529 60.8561 95.4359 60.8737 94.2006C60.8913 92.9652 60.6417 91.7406 60.142 90.6107L71.3028 86.8015L68.5757 77.6108C63.5194 78.46 55.8767 79.416 55.8767 79.416L54.7412 79.5082C54.7412 79.5082 46.851 79.9206 46.6812 79.94C43.3815 80.3428 39.5432 80.5951 38.1408 84.1277C37.3886 86.0154 38.102 88.8492 39.3296 91.7704L42.2412 100.748C43.4058 105.683 41.5472 105.445 40.5234 110.414C40.3584 111.161 39.8149 115.193 39.8295 115.883Z" fill="black"/>
</g>
<path d="M71.1766 86.9519C71.0227 87.0385 70.8601 87.1084 70.6914 87.1606C70.3711 87.277 69.9004 87.4372 69.3181 87.6458C68.1535 88.0389 66.5328 88.5581 64.747 89.1307C62.9613 89.7033 61.3503 90.271 60.2342 90.7369C59.6616 90.9698 59.2103 91.1736 58.8949 91.3095C58.7419 91.3942 58.5789 91.4594 58.4097 91.5036C58.5506 91.3915 58.7036 91.2955 58.8658 91.2173C59.1715 91.0571 59.6131 90.8242 60.176 90.5719C61.647 89.9308 63.1519 89.3703 64.684 88.8929C66.4745 88.3203 68.0807 87.8254 69.2793 87.476C69.8664 87.3013 70.3468 87.1654 70.6768 87.0732C70.8377 87.0121 71.0056 86.9714 71.1766 86.9519Z" fill="#263238"/>
<path d="M69.8565 82.0559C69.8565 82.1238 63.1261 82.182 54.8138 82.182C46.5014 82.182 39.771 82.1238 39.771 82.0559C39.771 81.9879 46.4966 81.9297 54.8138 81.9297C63.131 81.9297 69.8565 81.9879 69.8565 82.0559Z" fill="#FAFAFA"/>
<path d="M70.5409 86.5251C70.5409 86.593 63.0535 86.6513 53.8192 86.6513C44.5849 86.6513 37.1023 86.593 37.1023 86.5251C37.1023 86.4572 44.5849 86.3989 53.8192 86.3989C63.0535 86.3989 70.5409 86.4572 70.5409 86.5251Z" fill="#FAFAFA"/>
<path d="M38.9997 91.6104C38.5448 91.7338 38.0718 91.7765 37.6021 91.7366C37.1341 91.7763 36.6627 91.7336 36.2095 91.6104C36.6627 91.4872 37.1341 91.4445 37.6021 91.4842C38.0718 91.4443 38.5448 91.487 38.9997 91.6104Z" fill="#FAFAFA"/>
<path d="M60.8358 91.7656C60.8358 91.8335 55.9397 91.8917 49.9032 91.8917C43.8666 91.8917 38.9705 91.8335 38.9705 91.7656C38.9705 91.6976 43.8618 91.6394 49.9032 91.6394C55.9445 91.6394 60.8358 91.6928 60.8358 91.7656Z" fill="#FAFAFA"/>
<path d="M60.3505 97.0017C60.3505 97.0744 55.9542 97.1278 50.5388 97.1278C45.1234 97.1278 40.7222 97.0744 40.7222 97.0017C40.7222 96.9289 45.1137 96.8755 50.5388 96.8755C55.9639 96.8755 60.3505 96.9337 60.3505 97.0017Z" fill="#FAFAFA"/>
<path d="M60.2148 101.859C60.2148 101.927 56.2358 101.985 51.325 101.985C46.4143 101.985 42.4255 101.927 42.4255 101.859C42.4255 101.791 46.4094 101.733 51.325 101.733C56.2406 101.733 60.2148 101.786 60.2148 101.859Z" fill="#FAFAFA"/>
<path d="M60.9959 105.785C60.9959 105.857 56.7354 105.911 51.4801 105.911C46.2249 105.911 41.9644 105.857 41.9644 105.785C41.9644 105.712 46.2249 105.658 51.4801 105.658C56.7354 105.658 60.9959 105.717 60.9959 105.785Z" fill="#FAFAFA"/>
<path d="M62.2285 110.792C62.2285 110.865 57.376 110.919 51.4026 110.919C45.4292 110.919 40.5767 110.865 40.5767 110.792C40.5767 110.72 45.4292 110.666 51.4026 110.666C57.376 110.666 62.2285 110.724 62.2285 110.792Z" fill="#FAFAFA"/>
<path d="M42.0905 100.326C41.9989 100.189 41.9301 100.038 41.8867 99.8791L41.4015 98.6369C40.9987 97.5887 40.431 96.1427 39.8487 94.5268C39.2664 92.9109 38.7763 91.4358 38.4706 90.3536C38.3201 89.8102 38.2037 89.3832 38.1406 89.0629C38.0939 88.905 38.0662 88.7421 38.0581 88.5776C38.2826 89.1411 38.477 89.7161 38.6404 90.3003C38.9898 91.3678 39.4993 92.8333 40.0962 94.4443C40.693 96.0553 41.2171 97.5111 41.5519 98.5786C41.7315 99.1124 41.8673 99.5491 41.9547 99.85C42.02 100.002 42.0657 100.162 42.0905 100.326Z" fill="#263238"/>
<path d="M33.649 19.4161C26.7426 15.7005 18.1318 18.2872 14.4162 25.1936C10.7006 32.0999 13.2872 40.7108 20.1936 44.4264C27.1 48.142 35.7108 45.5553 39.4264 38.6489C43.142 31.7425 40.5554 23.1317 33.649 19.4161Z" fill="#E8C358"/>
<path d="M31.6162 41.5272L41.2194 48.4589L36.4458 37.4896L31.6162 41.5272Z" fill="#E8C358"/>
<path opacity="0.8" d="M26.5 42C31.6877 42 36 37.697 36 32.5C36 27.3123 31.6784 23 26.4907 23C21.2936 23 17 27.3123 17 32.5C17 37.697 21.3029 42 26.5 42ZM26.5 40.4167C22.1039 40.4167 18.5926 36.8961 18.5926 32.5C18.5926 28.1132 22.0946 24.5833 26.4907 24.5833C30.8774 24.5833 34.4073 28.1132 34.4167 32.5C34.426 36.8961 30.8867 40.4167 26.5 40.4167ZM26.3044 34.428C26.7701 34.428 27.0588 34.1392 27.0588 33.7667V33.6549C27.0588 33.1333 27.3568 32.8073 28.0088 32.3789C28.9122 31.7828 29.5549 31.2333 29.5549 30.125C29.5549 28.5696 28.1764 27.7407 26.5931 27.7407C24.9911 27.7407 23.9387 28.4951 23.6872 29.352C23.6407 29.5103 23.6034 29.6593 23.6034 29.8177C23.6034 30.2274 23.9387 30.4603 24.246 30.4603C24.7769 30.4603 24.8607 30.1716 25.1588 29.827C25.4661 29.3147 25.9132 29.0073 26.5372 29.0073C27.3848 29.0073 27.9343 29.4824 27.9343 30.1995C27.9343 30.8329 27.5431 31.1402 26.7328 31.699C26.0622 32.1647 25.5593 32.6583 25.5593 33.5711V33.6922C25.5593 34.1858 25.8294 34.428 26.3044 34.428ZM26.2858 37.2127C26.8259 37.2127 27.2916 36.7843 27.2916 36.2441C27.2916 35.6946 26.8352 35.2755 26.2858 35.2755C25.7362 35.2755 25.2799 35.7039 25.2799 36.2441C25.2799 36.775 25.7455 37.2127 26.2858 37.2127Z" fill="white"/>
</svg>
